%TF.GenerationSoftware,KiCad,Pcbnew,(5.1.6)-1*%
%TF.CreationDate,2020-08-21T18:39:33+02:00*%
%TF.ProjectId,Shiba GD-IDE,53686962-6120-4474-942d-4944452e6b69,rev?*%
%TF.SameCoordinates,Original*%
%TF.FileFunction,Copper,L1,Top*%
%TF.FilePolarity,Positive*%
%FSLAX46Y46*%
G04 Gerber Fmt 4.6, Leading zero omitted, Abs format (unit mm)*
G04 Created by KiCad (PCBNEW (5.1.6)-1) date 2020-08-21 18:39:33*
%MOMM*%
%LPD*%
G01*
G04 APERTURE LIST*
%TA.AperFunction,SMDPad,CuDef*%
%ADD10C,2.000000*%
%TD*%
%TA.AperFunction,ComponentPad*%
%ADD11O,1.700000X1.700000*%
%TD*%
%TA.AperFunction,ComponentPad*%
%ADD12R,1.700000X1.700000*%
%TD*%
%TA.AperFunction,SMDPad,CuDef*%
%ADD13C,0.100000*%
%TD*%
%TA.AperFunction,ViaPad*%
%ADD14C,2.000000*%
%TD*%
%TA.AperFunction,ViaPad*%
%ADD15C,0.800000*%
%TD*%
%TA.AperFunction,Conductor*%
%ADD16C,0.500000*%
%TD*%
%TA.AperFunction,Conductor*%
%ADD17C,0.300000*%
%TD*%
%TA.AperFunction,Conductor*%
%ADD18C,1.500000*%
%TD*%
G04 APERTURE END LIST*
D10*
%TO.P,TP249,1*%
%TO.N,TP249*%
X180492400Y-80645000D03*
%TD*%
D11*
%TO.P,J1,40*%
%TO.N,GND*%
X109956600Y-139801600D03*
%TO.P,J1,39*%
%TO.N,Net-(J1-Pad39)*%
X107416600Y-139801600D03*
%TO.P,J1,38*%
%TO.N,TP256*%
X109956600Y-137261600D03*
%TO.P,J1,37*%
%TO.N,TP255*%
X107416600Y-137261600D03*
%TO.P,J1,36*%
%TO.N,TP254*%
X109956600Y-134721600D03*
%TO.P,J1,35*%
%TO.N,TP253*%
X107416600Y-134721600D03*
%TO.P,J1,34*%
%TO.N,Net-(J1-Pad34)*%
X109956600Y-132181600D03*
%TO.P,J1,33*%
%TO.N,TP252*%
X107416600Y-132181600D03*
%TO.P,J1,32*%
%TO.N,Net-(J1-Pad32)*%
X109956600Y-129641600D03*
%TO.P,J1,31*%
%TO.N,TP250*%
X107416600Y-129641600D03*
%TO.P,J1,30*%
%TO.N,GND*%
X109956600Y-127101600D03*
%TO.P,J1,29*%
%TO.N,TP249*%
X107416600Y-127101600D03*
%TO.P,J1,28*%
%TO.N,Net-(J1-Pad28)*%
X109956600Y-124561600D03*
%TO.P,J1,27*%
%TO.N,TP248*%
X107416600Y-124561600D03*
%TO.P,J1,26*%
%TO.N,GND*%
X109956600Y-122021600D03*
%TO.P,J1,25*%
%TO.N,TP247*%
X107416600Y-122021600D03*
%TO.P,J1,24*%
%TO.N,GND*%
X109956600Y-119481600D03*
%TO.P,J1,23*%
%TO.N,TP246*%
X107416600Y-119481600D03*
%TO.P,J1,22*%
%TO.N,GND*%
X109956600Y-116941600D03*
%TO.P,J1,21*%
%TO.N,TP245*%
X107416600Y-116941600D03*
%TO.P,J1,19*%
%TO.N,GND*%
X107416600Y-114401600D03*
%TO.P,J1,18*%
%TO.N,TP244*%
X109956600Y-111861600D03*
%TO.P,J1,17*%
%TO.N,TP242*%
X107416600Y-111861600D03*
%TO.P,J1,16*%
%TO.N,TP243*%
X109956600Y-109321600D03*
%TO.P,J1,15*%
%TO.N,TP241*%
X107416600Y-109321600D03*
%TO.P,J1,14*%
%TO.N,TP240*%
X109956600Y-106781600D03*
%TO.P,J1,13*%
%TO.N,TP238*%
X107416600Y-106781600D03*
%TO.P,J1,12*%
%TO.N,TP239*%
X109956600Y-104241600D03*
%TO.P,J1,11*%
%TO.N,TP237*%
X107416600Y-104241600D03*
%TO.P,J1,10*%
%TO.N,TP236*%
X109956600Y-101701600D03*
%TO.P,J1,9*%
%TO.N,TP234*%
X107416600Y-101701600D03*
%TO.P,J1,8*%
%TO.N,TP235*%
X109956600Y-99161600D03*
%TO.P,J1,7*%
%TO.N,TP233*%
X107416600Y-99161600D03*
%TO.P,J1,6*%
%TO.N,TP232*%
X109956600Y-96621600D03*
%TO.P,J1,5*%
%TO.N,TP230*%
X107416600Y-96621600D03*
%TO.P,J1,4*%
%TO.N,TP231*%
X109956600Y-94081600D03*
%TO.P,J1,3*%
%TO.N,TP229*%
X107416600Y-94081600D03*
%TO.P,J1,2*%
%TO.N,GND*%
X109956600Y-91541600D03*
D12*
%TO.P,J1,1*%
%TO.N,TP226*%
X107416600Y-91541600D03*
%TD*%
%TA.AperFunction,SMDPad,CuDef*%
D13*
%TO.P,J2,1*%
%TO.N,N/C*%
G36*
X175010400Y-91389200D02*
G01*
X175510400Y-90639200D01*
X176510400Y-90639200D01*
X176510400Y-92139200D01*
X175510400Y-92139200D01*
X175010400Y-91389200D01*
G37*
%TD.AperFunction*%
%TA.AperFunction,SMDPad,CuDef*%
%TO.P,J2,2*%
%TO.N,TP226*%
G36*
X174060400Y-90639200D02*
G01*
X175210400Y-90639200D01*
X174710400Y-91389200D01*
X175210400Y-92139200D01*
X174060400Y-92139200D01*
X174060400Y-90639200D01*
G37*
%TD.AperFunction*%
%TD*%
D14*
%TO.N,*%
X178282600Y-89433400D03*
%TO.N,GND*%
X124485400Y-94488000D03*
%TO.N,TP256*%
X174244000Y-114427000D03*
D15*
X114198400Y-129725637D03*
D14*
%TO.N,TP255*%
X176961800Y-111023400D03*
D15*
X175768000Y-93853000D03*
X138912600Y-98755200D03*
X133164556Y-98025730D03*
D14*
%TO.N,TP254*%
X176733200Y-108229400D03*
D15*
X138149087Y-100023687D03*
X132384798Y-98805487D03*
%TO.N,TP253*%
X112776000Y-129717800D03*
D14*
X173611102Y-111910298D03*
%TO.N,TP252*%
X174371000Y-107848400D03*
D15*
X167716200Y-106426000D03*
D14*
%TO.N,TP250*%
X172872400Y-109651800D03*
D15*
%TO.N,TP249*%
X176758598Y-76860400D03*
D14*
%TO.N,TP248*%
X174980600Y-105435400D03*
%TO.N,TP247*%
X176657000Y-103657400D03*
D15*
X133421707Y-82532545D03*
D14*
%TO.N,TP246*%
X175336200Y-101727000D03*
D15*
X134006747Y-81583973D03*
D14*
%TO.N,TP245*%
X172720000Y-101498400D03*
D15*
X134703836Y-80866971D03*
D14*
%TO.N,TP244*%
X172618400Y-105943400D03*
D15*
X119503373Y-97851947D03*
D14*
%TO.N,TP242*%
X170154600Y-102031788D03*
D15*
X152831800Y-80848200D03*
D14*
%TO.N,TP243*%
X171348411Y-107772200D03*
D15*
X120164912Y-109194600D03*
D14*
%TO.N,TP241*%
X170789600Y-99695000D03*
D15*
X119938800Y-88011000D03*
X114833400Y-102514400D03*
D14*
%TO.N,TP240*%
X177317400Y-98399600D03*
D15*
X117564610Y-90047316D03*
X112369600Y-102539798D03*
D14*
%TO.N,TP238*%
X168351200Y-100152200D03*
D15*
X152603200Y-79552800D03*
D14*
%TO.N,TP239*%
X175209200Y-97891600D03*
D15*
X118314620Y-89277932D03*
D14*
%TO.N,TP237*%
X172618400Y-97332800D03*
D15*
X119126000Y-88671400D03*
D14*
%TO.N,TP236*%
X165836600Y-105638600D03*
%TO.N,TP234*%
X169722800Y-94462600D03*
D15*
X120867332Y-89306400D03*
X115619742Y-100406200D03*
D14*
%TO.N,TP235*%
X166065200Y-97053400D03*
D15*
X164185602Y-81813400D03*
D14*
%TO.N,TP233*%
X162052000Y-102057200D03*
%TO.N,TP232*%
X166954200Y-94564200D03*
D15*
X165697610Y-83362800D03*
D14*
%TO.N,TP230*%
X167665400Y-91871800D03*
D15*
X121640600Y-88595198D03*
X119761000Y-95377000D03*
D14*
%TO.N,TP231*%
X164312600Y-94767400D03*
D15*
X164954113Y-82653264D03*
D14*
%TO.N,TP229*%
X167741600Y-89636600D03*
D15*
X122453400Y-87757000D03*
X120929400Y-95351598D03*
%TD*%
D16*
%TO.N,*%
X176010400Y-91389200D02*
X177647600Y-91389200D01*
X178282600Y-90754200D02*
X178282600Y-90116683D01*
X177647600Y-91389200D02*
X178282600Y-90754200D01*
%TO.N,GND*%
X107416600Y-114401600D02*
X109956600Y-116941600D01*
X109956600Y-116941600D02*
X109956600Y-119481600D01*
X109956600Y-119481600D02*
X109956600Y-122021600D01*
D17*
X107416600Y-114401600D02*
X107442000Y-114401600D01*
X108686600Y-123291600D02*
X109956600Y-122021600D01*
X109956600Y-127101600D02*
X108686600Y-125831600D01*
X108686600Y-125831600D02*
X108686600Y-123291600D01*
X108686600Y-92811600D02*
X109956600Y-91541600D01*
X107340400Y-114401600D02*
X106095800Y-113157000D01*
X107416600Y-114401600D02*
X107340400Y-114401600D01*
X106095800Y-93395800D02*
X106680000Y-92811600D01*
X106095800Y-113157000D02*
X106095800Y-93395800D01*
X106680000Y-92811600D02*
X108686600Y-92811600D01*
X106730800Y-128397000D02*
X108661200Y-128397000D01*
X108686600Y-138531600D02*
X106590802Y-138531600D01*
X108661200Y-128397000D02*
X109956600Y-127101600D01*
X105943400Y-137884198D02*
X105943400Y-129184400D01*
X105943400Y-129184400D02*
X106730800Y-128397000D01*
X109956600Y-139801600D02*
X108686600Y-138531600D01*
X106590802Y-138531600D02*
X105943400Y-137884198D01*
D18*
X122402600Y-94488000D02*
X123710650Y-94488000D01*
X109956600Y-91541600D02*
X119456200Y-91541600D01*
X119456200Y-91541600D02*
X122402600Y-94488000D01*
D17*
%TO.N,TP256*%
X109956600Y-137261600D02*
X114198400Y-133019800D01*
X114198400Y-133019800D02*
X114198400Y-129725637D01*
%TO.N,TP255*%
X175768000Y-93878400D02*
X175768000Y-93853000D01*
X178932914Y-97043314D02*
X175768000Y-93878400D01*
X178943000Y-106327984D02*
X178932914Y-97043314D01*
X176961800Y-111023400D02*
X178943000Y-109042200D01*
X178943000Y-109042200D02*
X178943000Y-106327984D01*
X138183130Y-98025730D02*
X133164556Y-98025730D01*
X138912600Y-98755200D02*
X138183130Y-98025730D01*
%TO.N,TP254*%
X136930887Y-98805487D02*
X132384798Y-98805487D01*
X138149087Y-100023687D02*
X136930887Y-98805487D01*
%TO.N,TP253*%
X112776000Y-131902200D02*
X112776000Y-129717800D01*
X111226600Y-133451600D02*
X112776000Y-131902200D01*
X107416600Y-134721600D02*
X108686600Y-133451600D01*
X108686600Y-133451600D02*
X111226600Y-133451600D01*
%TO.N,TP252*%
X167716200Y-107162600D02*
X167716200Y-106426000D01*
X171932600Y-111379000D02*
X167716200Y-107162600D01*
X173380400Y-116001800D02*
X171932600Y-114554000D01*
X175056800Y-116001800D02*
X173380400Y-116001800D01*
X175895000Y-115163600D02*
X175056800Y-116001800D01*
X175895000Y-113461800D02*
X175895000Y-115163600D01*
X174371000Y-107848400D02*
X174371000Y-108966000D01*
X175260000Y-109855000D02*
X175260000Y-112826800D01*
X171932600Y-114554000D02*
X171932600Y-111379000D01*
X174371000Y-108966000D02*
X175260000Y-109855000D01*
X175260000Y-112826800D02*
X175895000Y-113461800D01*
%TO.N,TP249*%
X177158597Y-77260399D02*
X176758598Y-76860400D01*
X180492400Y-80594200D02*
X177158597Y-77260399D01*
%TO.N,TP247*%
X176657000Y-103657400D02*
X174112920Y-103657400D01*
X173388501Y-104381819D02*
X167610575Y-104381817D01*
X167610575Y-104381817D02*
X162039346Y-98810588D01*
X162039346Y-98810588D02*
X155316502Y-98810588D01*
X151697955Y-83612789D02*
X150423977Y-82338811D01*
X133615441Y-82338811D02*
X133421707Y-82532545D01*
X151697955Y-95192041D02*
X151697955Y-83612789D01*
X155316502Y-98810588D02*
X151697955Y-95192041D01*
X174112920Y-103657400D02*
X173388501Y-104381819D01*
X150423977Y-82338811D02*
X133615441Y-82338811D01*
%TO.N,TP246*%
X150631088Y-81838800D02*
X134261574Y-81838800D01*
X134261574Y-81838800D02*
X134006747Y-81583973D01*
X155523614Y-98310578D02*
X152197966Y-94984930D01*
X152197966Y-83405678D02*
X150631088Y-81838800D01*
X173181390Y-103881808D02*
X167817687Y-103881807D01*
X152197966Y-94984930D02*
X152197966Y-83405678D01*
X162246458Y-98310578D02*
X155523614Y-98310578D01*
X167817687Y-103881807D02*
X162246458Y-98310578D01*
X175336200Y-101727000D02*
X173181390Y-103881808D01*
%TO.N,TP245*%
X162453570Y-97810568D02*
X155730726Y-97810568D01*
X152697976Y-83198566D02*
X150366381Y-80866971D01*
X150366381Y-80866971D02*
X135269521Y-80866971D01*
X155730726Y-97810568D02*
X152697979Y-94777821D01*
X152697979Y-94777821D02*
X152697976Y-83198566D01*
X168024799Y-103381797D02*
X162453570Y-97810568D01*
X135269521Y-80866971D02*
X134703836Y-80866971D01*
X172720000Y-101498400D02*
X170836603Y-103381797D01*
X170836603Y-103381797D02*
X168024799Y-103381797D01*
%TO.N,TP244*%
X150216866Y-82838822D02*
X134585178Y-82838822D01*
X131445000Y-85979000D02*
X131445000Y-96197320D01*
X131445000Y-96197320D02*
X129790373Y-97851947D01*
X161832234Y-99310598D02*
X155109390Y-99310598D01*
X134585178Y-82838822D02*
X131445000Y-85979000D01*
X151197944Y-83819900D02*
X150216866Y-82838822D01*
X172618400Y-105943400D02*
X168465036Y-105943400D01*
X129790373Y-97851947D02*
X119503373Y-97851947D01*
X151197944Y-95399152D02*
X151197944Y-83819900D01*
X155109390Y-99310598D02*
X151197944Y-95399152D01*
X168465036Y-105943400D02*
X161832234Y-99310598D01*
%TO.N,TP242*%
X153231799Y-81248199D02*
X152831800Y-80848200D01*
X170154600Y-102031788D02*
X167398176Y-102031788D01*
X153231799Y-94604521D02*
X153231799Y-81248199D01*
X155937836Y-97310558D02*
X153231799Y-94604521D01*
X162676946Y-97310558D02*
X155937836Y-97310558D01*
X167398176Y-102031788D02*
X162676946Y-97310558D01*
%TO.N,TP243*%
X120037912Y-109321600D02*
X120164912Y-109194600D01*
X109956600Y-109321600D02*
X120037912Y-109321600D01*
%TO.N,TP241*%
X170789600Y-99695000D02*
X171246800Y-99237800D01*
X114833400Y-106324400D02*
X114833400Y-102514400D01*
X107416600Y-109321600D02*
X108616601Y-108121599D01*
X113036201Y-108121599D02*
X114833400Y-106324400D01*
X108616601Y-108121599D02*
X113036201Y-108121599D01*
X119938800Y-86119143D02*
X119938800Y-88011000D01*
X166706809Y-76523645D02*
X129534296Y-76523647D01*
X170638630Y-92533630D02*
X170638630Y-80455466D01*
X170638630Y-80455466D02*
X166706809Y-76523645D01*
X170789600Y-99695000D02*
X170789600Y-95656400D01*
X129534296Y-76523647D02*
X119938800Y-86119143D01*
X171424600Y-95021400D02*
X171424600Y-93319600D01*
X171424600Y-93319600D02*
X170638630Y-92533630D01*
X170789600Y-95656400D02*
X171424600Y-95021400D01*
%TO.N,TP240*%
X109956600Y-106781600D02*
X112369600Y-104368600D01*
X112369600Y-104368600D02*
X112369600Y-102539798D01*
X128912960Y-75023617D02*
X117564610Y-86371967D01*
X172138661Y-91607495D02*
X172138660Y-79834130D01*
X177317400Y-96786234D02*
X172138661Y-91607495D01*
X167328139Y-75023615D02*
X128912960Y-75023617D01*
X117564610Y-86371967D02*
X117564610Y-90047316D01*
X172138660Y-79834130D02*
X167328139Y-75023615D01*
X177317400Y-98399600D02*
X177317400Y-96786234D01*
%TO.N,TP238*%
X153737504Y-80687104D02*
X152603200Y-79552800D01*
X153737504Y-94326904D02*
X153737504Y-80687104D01*
X156221147Y-96810547D02*
X153737504Y-94326904D01*
X162884057Y-96810547D02*
X156221147Y-96810547D01*
X168351200Y-100152200D02*
X166225710Y-100152200D01*
X166225710Y-100152200D02*
X162884057Y-96810547D01*
%TO.N,TP239*%
X171638650Y-80041242D02*
X167121029Y-75523625D01*
X167121029Y-75523625D02*
X129120072Y-75523627D01*
X175209200Y-97891600D02*
X175209200Y-95385156D01*
X118314620Y-86329079D02*
X118314620Y-89277932D01*
X129120072Y-75523627D02*
X118314620Y-86329079D01*
X171638650Y-91814606D02*
X171638650Y-80041242D01*
X175209200Y-95385156D02*
X171638650Y-91814606D01*
%TO.N,TP237*%
X172618400Y-97332800D02*
X172618400Y-93501478D01*
X119126000Y-86224821D02*
X119126000Y-88671400D01*
X129327184Y-76023637D02*
X119126000Y-86224821D01*
X172618400Y-93501478D02*
X171138641Y-92021719D01*
X171138640Y-80248354D02*
X166913919Y-76023635D01*
X171138641Y-92021719D02*
X171138640Y-80248354D01*
X166913919Y-76023635D02*
X129327184Y-76023637D01*
%TO.N,TP236*%
X165827922Y-105638600D02*
X165751722Y-105562400D01*
X165836600Y-105638600D02*
X165827922Y-105638600D01*
X111158681Y-101701600D02*
X109956600Y-101701600D01*
X150197924Y-95813376D02*
X150197924Y-84234124D01*
X158168948Y-103784400D02*
X150197924Y-95813376D01*
X165827922Y-105638600D02*
X163973722Y-103784400D01*
X111452334Y-101407947D02*
X111158681Y-101701600D01*
X150197924Y-84234124D02*
X149802644Y-83838844D01*
X163973722Y-103784400D02*
X158168948Y-103784400D01*
X149802644Y-83838844D02*
X134999400Y-83838844D01*
X132445022Y-96611542D02*
X127648617Y-101407947D01*
X134999400Y-83838844D02*
X132445022Y-86393222D01*
X132445022Y-86393222D02*
X132445022Y-96611542D01*
X127648617Y-101407947D02*
X111452334Y-101407947D01*
%TO.N,TP234*%
X170138616Y-80662572D02*
X166499699Y-77023655D01*
X129741408Y-77023657D02*
X120867332Y-85897733D01*
X166499699Y-77023655D02*
X129741408Y-77023657D01*
X170138617Y-94046783D02*
X170138616Y-80662572D01*
X169722800Y-94462600D02*
X170138617Y-94046783D01*
X120867332Y-85897733D02*
X120867332Y-89306400D01*
X107416600Y-101701600D02*
X108712000Y-100406200D01*
X108712000Y-100406200D02*
X115619742Y-100406200D01*
%TO.N,TP235*%
X164185602Y-91803118D02*
X164185602Y-81813400D01*
X162911973Y-95438947D02*
X162911973Y-93076747D01*
X162911973Y-93076747D02*
X164185602Y-91803118D01*
X166065200Y-97053400D02*
X164526426Y-97053400D01*
X164526426Y-97053400D02*
X162911973Y-95438947D01*
%TO.N,TP233*%
X157148870Y-102057200D02*
X162052000Y-102057200D01*
X112416773Y-99223547D02*
X129125895Y-99223547D01*
X111084826Y-97891600D02*
X112416773Y-99223547D01*
X107416600Y-99161600D02*
X108686600Y-97891600D01*
X108686600Y-97891600D02*
X111084826Y-97891600D01*
X129125895Y-99223547D02*
X131945011Y-96404431D01*
X131945011Y-96404431D02*
X131945011Y-86186111D01*
X131945011Y-86186111D02*
X134792289Y-83338833D01*
X150697935Y-84027013D02*
X150697935Y-95606265D01*
X134792289Y-83338833D02*
X150009755Y-83338833D01*
X150009755Y-83338833D02*
X150697935Y-84027013D01*
X150697935Y-95606265D02*
X157148870Y-102057200D01*
%TO.N,TP232*%
X165697610Y-92469410D02*
X165697610Y-83362800D01*
X166954200Y-94564200D02*
X166954200Y-93726000D01*
X166954200Y-93726000D02*
X165697610Y-92469410D01*
%TO.N,TP230*%
X107416600Y-96621600D02*
X108661200Y-95377000D01*
X108661200Y-95377000D02*
X119761000Y-95377000D01*
X121640600Y-87152387D02*
X121640600Y-88595198D01*
X129948520Y-77523667D02*
X121640600Y-85831587D01*
X166292588Y-77523666D02*
X129948520Y-77523667D01*
X169638606Y-80869684D02*
X166292588Y-77523666D01*
X121640600Y-85831587D02*
X121640600Y-87152387D01*
X169638606Y-89898594D02*
X169638606Y-80869684D01*
X167665400Y-91871800D02*
X169638606Y-89898594D01*
%TO.N,TP231*%
X164947600Y-82659777D02*
X164954113Y-82653264D01*
X164947600Y-92329000D02*
X164947600Y-82659777D01*
X164312600Y-94767400D02*
X164312600Y-92964000D01*
X164312600Y-92964000D02*
X164947600Y-92329000D01*
%TO.N,TP229*%
X118414802Y-92837000D02*
X120929400Y-95351598D01*
X108180598Y-94081600D02*
X109425198Y-92837000D01*
X109425198Y-92837000D02*
X118414802Y-92837000D01*
X107416600Y-94081600D02*
X108180598Y-94081600D01*
X167741600Y-79679800D02*
X166085477Y-78023677D01*
X167741600Y-89636600D02*
X167741600Y-79679800D01*
X122453400Y-85725909D02*
X122453400Y-87757000D01*
X130155632Y-78023677D02*
X122453400Y-85725909D01*
X166085477Y-78023677D02*
X130155632Y-78023677D01*
%TO.N,TP226*%
X114329455Y-88900000D02*
X108535109Y-88900000D01*
X108535109Y-88900000D02*
X107416600Y-90018509D01*
X128705848Y-74523607D02*
X114329455Y-88900000D01*
X172638669Y-89967469D02*
X172638669Y-79627018D01*
X174560400Y-91389200D02*
X174060400Y-91389200D01*
X174060400Y-91389200D02*
X172638669Y-89967469D01*
X172638669Y-79627018D02*
X167535249Y-74523605D01*
X107416600Y-90018509D02*
X107416600Y-91541600D01*
X167535249Y-74523605D02*
X128705848Y-74523607D01*
%TD*%
M02*
