%TF.GenerationSoftware,KiCad,Pcbnew,(5.1.6)-1*%
%TF.CreationDate,2020-08-21T18:39:33+02:00*%
%TF.ProjectId,Shiba GD-IDE,53686962-6120-4474-942d-4944452e6b69,rev?*%
%TF.SameCoordinates,Original*%
%TF.FileFunction,Profile,NP*%
%FSLAX46Y46*%
G04 Gerber Fmt 4.6, Leading zero omitted, Abs format (unit mm)*
G04 Created by KiCad (PCBNEW (5.1.6)-1) date 2020-08-21 18:39:33*
%MOMM*%
%LPD*%
G01*
G04 APERTURE LIST*
%TA.AperFunction,Profile*%
%ADD10C,0.200000*%
%TD*%
G04 APERTURE END LIST*
D10*
X190068200Y-82905600D02*
X190068200Y-73667837D01*
X179400200Y-86995000D02*
X179404529Y-82903594D01*
X122105072Y-78517837D02*
G75*
G03*
X122105072Y-78517837I-2000000J0D01*
G01*
X115055072Y-83667837D02*
X105055072Y-83667837D01*
X187205072Y-78517837D02*
G75*
G03*
X187205072Y-78517837I-2000000J0D01*
G01*
X105054400Y-143662400D02*
X116959976Y-143662400D01*
X115055072Y-73667837D02*
X115055072Y-83667837D01*
X190068200Y-73667837D02*
X115055072Y-73667837D01*
X105055072Y-83667837D02*
X105054400Y-143662400D01*
X165586044Y-106033132D02*
X170891200Y-111353600D01*
X170891200Y-111353600D02*
X170891200Y-116916200D01*
X148869400Y-106033132D02*
X165586044Y-106033132D01*
X116963373Y-122227621D02*
X124354773Y-122227621D01*
X179400200Y-89566673D02*
X173093788Y-89566673D01*
X162403973Y-88732242D02*
X162403973Y-95946947D01*
X116959976Y-143662400D02*
X116963373Y-122227621D01*
X137826766Y-84778227D02*
X145074292Y-84778227D01*
X157501773Y-95946947D02*
X157501773Y-88733347D01*
X124510660Y-93037349D02*
X127809173Y-93037349D01*
X162403973Y-95946947D02*
X157501773Y-95946947D01*
X173093788Y-89566673D02*
X173093788Y-86996673D01*
X179404529Y-82903594D02*
X190068200Y-82905600D01*
X170891200Y-116916200D02*
X179404529Y-116916200D01*
X139869998Y-104723792D02*
X139869998Y-97055404D01*
X139869998Y-97055404D02*
X137826766Y-97055404D01*
X124510660Y-95943061D02*
X124510660Y-93037349D01*
X147638826Y-97254215D02*
X147638826Y-104446433D01*
X127809173Y-82276034D02*
X130721651Y-82276034D01*
X147638826Y-104446433D02*
X148868644Y-104446433D01*
X154163528Y-88733347D02*
X154187514Y-78501900D01*
X124354773Y-104723792D02*
X139869998Y-104723792D01*
X173093788Y-86996673D02*
X179400200Y-86995000D01*
X130721651Y-95943061D02*
X124510660Y-95943061D01*
X124354773Y-122227621D02*
X124354773Y-104723792D01*
X154187514Y-78501900D02*
X163295752Y-78501900D01*
X163295752Y-78501900D02*
X163295752Y-88732242D01*
X163295752Y-88732242D02*
X162403973Y-88732242D01*
X145074292Y-84778227D02*
X149747916Y-84778227D01*
X149747916Y-84778227D02*
X149747916Y-87867755D01*
X127809173Y-93037349D02*
X127809173Y-82276034D01*
X137826766Y-97055404D02*
X137826766Y-84778227D01*
X157501773Y-88733347D02*
X154163528Y-88733347D01*
X130721651Y-82276034D02*
X130721651Y-95943061D01*
X149747916Y-87867755D02*
X147638826Y-87867755D01*
X148868644Y-104446433D02*
X148869400Y-106033132D01*
X147638826Y-87867755D02*
X147638826Y-97254215D01*
X179404529Y-116916200D02*
X179400200Y-89566673D01*
M02*
