%TF.GenerationSoftware,KiCad,Pcbnew,(5.1.6)-1*%
%TF.CreationDate,2020-08-21T18:39:33+02:00*%
%TF.ProjectId,Shiba GD-IDE,53686962-6120-4474-942d-4944452e6b69,rev?*%
%TF.SameCoordinates,Original*%
%TF.FileFunction,Soldermask,Top*%
%TF.FilePolarity,Negative*%
%FSLAX46Y46*%
G04 Gerber Fmt 4.6, Leading zero omitted, Abs format (unit mm)*
G04 Created by KiCad (PCBNEW (5.1.6)-1) date 2020-08-21 18:39:33*
%MOMM*%
%LPD*%
G01*
G04 APERTURE LIST*
%ADD10C,1.000000*%
%ADD11C,2.100000*%
%ADD12O,1.800000X1.800000*%
%ADD13R,1.800000X1.800000*%
%ADD14C,0.100000*%
%ADD15C,0.254000*%
G04 APERTURE END LIST*
D10*
X170713400Y-102031800D02*
G75*
G03*
X170713400Y-102031800I-558800J0D01*
G01*
X173278800Y-101498400D02*
G75*
G03*
X173278800Y-101498400I-558800J0D01*
G01*
X175895000Y-101727000D02*
G75*
G03*
X175895000Y-101727000I-558800J0D01*
G01*
X177215800Y-103657400D02*
G75*
G03*
X177215800Y-103657400I-558800J0D01*
G01*
X177520600Y-111023400D02*
G75*
G03*
X177520600Y-111023400I-558800J0D01*
G01*
X174802800Y-114427000D02*
G75*
G03*
X174802800Y-114427000I-558800J0D01*
G01*
X174167800Y-111912400D02*
G75*
G03*
X174167800Y-111912400I-558800J0D01*
G01*
X173431200Y-109651800D02*
G75*
G03*
X173431200Y-109651800I-558800J0D01*
G01*
X177292000Y-108229400D02*
G75*
G03*
X177292000Y-108229400I-558800J0D01*
G01*
X174929800Y-107848400D02*
G75*
G03*
X174929800Y-107848400I-558800J0D01*
G01*
X171907200Y-107772200D02*
G75*
G03*
X171907200Y-107772200I-558800J0D01*
G01*
X175539400Y-105410000D02*
G75*
G03*
X175539400Y-105410000I-558800J0D01*
G01*
X173151800Y-105943400D02*
G75*
G03*
X173151800Y-105943400I-558800J0D01*
G01*
X166395400Y-105638600D02*
G75*
G03*
X166395400Y-105638600I-558800J0D01*
G01*
X162610800Y-102057200D02*
G75*
G03*
X162610800Y-102057200I-558800J0D01*
G01*
X178841400Y-89433400D02*
G75*
G03*
X178841400Y-89433400I-558800J0D01*
G01*
X177876200Y-98399600D02*
G75*
G03*
X177876200Y-98399600I-558800J0D01*
G01*
X175768000Y-97891600D02*
G75*
G03*
X175768000Y-97891600I-558800J0D01*
G01*
X173177200Y-97332800D02*
G75*
G03*
X173177200Y-97332800I-558800J0D01*
G01*
X171348400Y-99695000D02*
G75*
G03*
X171348400Y-99695000I-558800J0D01*
G01*
X168910000Y-100152200D02*
G75*
G03*
X168910000Y-100152200I-558800J0D01*
G01*
X170281600Y-94462600D02*
G75*
G03*
X170281600Y-94462600I-558800J0D01*
G01*
X166624000Y-97053400D02*
G75*
G03*
X166624000Y-97053400I-558800J0D01*
G01*
X164871400Y-94767400D02*
G75*
G03*
X164871400Y-94767400I-558800J0D01*
G01*
X167513000Y-94538800D02*
G75*
G03*
X167513000Y-94538800I-558800J0D01*
G01*
X168224200Y-91871800D02*
G75*
G03*
X168224200Y-91871800I-558800J0D01*
G01*
X168300400Y-89636600D02*
G75*
G03*
X168300400Y-89636600I-558800J0D01*
G01*
D11*
%TO.C,TP249*%
X180492400Y-80645000D03*
%TD*%
D12*
%TO.C,J1*%
X109956600Y-139801600D03*
X107416600Y-139801600D03*
X109956600Y-137261600D03*
X107416600Y-137261600D03*
X109956600Y-134721600D03*
X107416600Y-134721600D03*
X109956600Y-132181600D03*
X107416600Y-132181600D03*
X109956600Y-129641600D03*
X107416600Y-129641600D03*
X109956600Y-127101600D03*
X107416600Y-127101600D03*
X109956600Y-124561600D03*
X107416600Y-124561600D03*
X109956600Y-122021600D03*
X107416600Y-122021600D03*
X109956600Y-119481600D03*
X107416600Y-119481600D03*
X109956600Y-116941600D03*
X107416600Y-116941600D03*
X107416600Y-114401600D03*
X109956600Y-111861600D03*
X107416600Y-111861600D03*
X109956600Y-109321600D03*
X107416600Y-109321600D03*
X109956600Y-106781600D03*
X107416600Y-106781600D03*
X109956600Y-104241600D03*
X107416600Y-104241600D03*
X109956600Y-101701600D03*
X107416600Y-101701600D03*
X109956600Y-99161600D03*
X107416600Y-99161600D03*
X109956600Y-96621600D03*
X107416600Y-96621600D03*
X109956600Y-94081600D03*
X107416600Y-94081600D03*
X109956600Y-91541600D03*
D13*
X107416600Y-91541600D03*
%TD*%
D14*
%TO.C,J2*%
G36*
X175500645Y-92188239D02*
G01*
X175491266Y-92185394D01*
X175482621Y-92180773D01*
X175475045Y-92174555D01*
X175468797Y-92166935D01*
X174968797Y-91416935D01*
X174964186Y-91408286D01*
X174961351Y-91398903D01*
X174960400Y-91389148D01*
X174961371Y-91379394D01*
X174964226Y-91370018D01*
X174968797Y-91361465D01*
X175468797Y-90611465D01*
X175475008Y-90603882D01*
X175482578Y-90597656D01*
X175491218Y-90593026D01*
X175500594Y-90590171D01*
X175510400Y-90589200D01*
X176510400Y-90589200D01*
X176520155Y-90590161D01*
X176529534Y-90593006D01*
X176538179Y-90597627D01*
X176545755Y-90603845D01*
X176551973Y-90611421D01*
X176556594Y-90620066D01*
X176559439Y-90629445D01*
X176560400Y-90639200D01*
X176560400Y-92139200D01*
X176559439Y-92148955D01*
X176556594Y-92158334D01*
X176551973Y-92166979D01*
X176545755Y-92174555D01*
X176538179Y-92180773D01*
X176529534Y-92185394D01*
X176520155Y-92188239D01*
X176510400Y-92189200D01*
X175510400Y-92189200D01*
X175500645Y-92188239D01*
G37*
G36*
X174050645Y-92188239D02*
G01*
X174041266Y-92185394D01*
X174032621Y-92180773D01*
X174025045Y-92174555D01*
X174018827Y-92166979D01*
X174014206Y-92158334D01*
X174011361Y-92148955D01*
X174010400Y-92139200D01*
X174010400Y-90639200D01*
X174011361Y-90629445D01*
X174014206Y-90620066D01*
X174018827Y-90611421D01*
X174025045Y-90603845D01*
X174032621Y-90597627D01*
X174041266Y-90593006D01*
X174050645Y-90590161D01*
X174060400Y-90589200D01*
X175210400Y-90589200D01*
X175220155Y-90590161D01*
X175229534Y-90593006D01*
X175238179Y-90597627D01*
X175245755Y-90603845D01*
X175251973Y-90611421D01*
X175256594Y-90620066D01*
X175259439Y-90629445D01*
X175260400Y-90639200D01*
X175259439Y-90648955D01*
X175256594Y-90658334D01*
X175252003Y-90666935D01*
X174770493Y-91389200D01*
X175252003Y-92111465D01*
X175256614Y-92120114D01*
X175259449Y-92129497D01*
X175260400Y-92139252D01*
X175259429Y-92149006D01*
X175256574Y-92158382D01*
X175251944Y-92167022D01*
X175245718Y-92174592D01*
X175238135Y-92180803D01*
X175229486Y-92185414D01*
X175220103Y-92188249D01*
X175210400Y-92189200D01*
X174060400Y-92189200D01*
X174050645Y-92188239D01*
G37*
%TD*%
D15*
G36*
X124510660Y-95453200D02*
G01*
X122732800Y-95453200D01*
X122732800Y-93548200D01*
X124510660Y-93548200D01*
X124510660Y-95453200D01*
G37*
X124510660Y-95453200D02*
X122732800Y-95453200D01*
X122732800Y-93548200D01*
X124510660Y-93548200D01*
X124510660Y-95453200D01*
M02*
