%TF.GenerationSoftware,KiCad,Pcbnew,(5.1.6)-1*%
%TF.CreationDate,2020-08-21T18:39:33+02:00*%
%TF.ProjectId,Shiba GD-IDE,53686962-6120-4474-942d-4944452e6b69,rev?*%
%TF.SameCoordinates,Original*%
%TF.FileFunction,Copper,L2,Bot*%
%TF.FilePolarity,Positive*%
%FSLAX46Y46*%
G04 Gerber Fmt 4.6, Leading zero omitted, Abs format (unit mm)*
G04 Created by KiCad (PCBNEW (5.1.6)-1) date 2020-08-21 18:39:33*
%MOMM*%
%LPD*%
G01*
G04 APERTURE LIST*
%TA.AperFunction,ComponentPad*%
%ADD10O,1.700000X1.700000*%
%TD*%
%TA.AperFunction,ComponentPad*%
%ADD11R,1.700000X1.700000*%
%TD*%
%TA.AperFunction,ViaPad*%
%ADD12C,2.000000*%
%TD*%
%TA.AperFunction,ViaPad*%
%ADD13C,0.800000*%
%TD*%
%TA.AperFunction,Conductor*%
%ADD14C,0.300000*%
%TD*%
G04 APERTURE END LIST*
D10*
%TO.P,J1,40*%
%TO.N,GND*%
X109956600Y-139801600D03*
%TO.P,J1,39*%
%TO.N,Net-(J1-Pad39)*%
X107416600Y-139801600D03*
%TO.P,J1,38*%
%TO.N,TP256*%
X109956600Y-137261600D03*
%TO.P,J1,37*%
%TO.N,TP255*%
X107416600Y-137261600D03*
%TO.P,J1,36*%
%TO.N,TP254*%
X109956600Y-134721600D03*
%TO.P,J1,35*%
%TO.N,TP253*%
X107416600Y-134721600D03*
%TO.P,J1,34*%
%TO.N,Net-(J1-Pad34)*%
X109956600Y-132181600D03*
%TO.P,J1,33*%
%TO.N,TP252*%
X107416600Y-132181600D03*
%TO.P,J1,32*%
%TO.N,Net-(J1-Pad32)*%
X109956600Y-129641600D03*
%TO.P,J1,31*%
%TO.N,TP250*%
X107416600Y-129641600D03*
%TO.P,J1,30*%
%TO.N,GND*%
X109956600Y-127101600D03*
%TO.P,J1,29*%
%TO.N,TP249*%
X107416600Y-127101600D03*
%TO.P,J1,28*%
%TO.N,Net-(J1-Pad28)*%
X109956600Y-124561600D03*
%TO.P,J1,27*%
%TO.N,TP248*%
X107416600Y-124561600D03*
%TO.P,J1,26*%
%TO.N,GND*%
X109956600Y-122021600D03*
%TO.P,J1,25*%
%TO.N,TP247*%
X107416600Y-122021600D03*
%TO.P,J1,24*%
%TO.N,GND*%
X109956600Y-119481600D03*
%TO.P,J1,23*%
%TO.N,TP246*%
X107416600Y-119481600D03*
%TO.P,J1,22*%
%TO.N,GND*%
X109956600Y-116941600D03*
%TO.P,J1,21*%
%TO.N,TP245*%
X107416600Y-116941600D03*
%TO.P,J1,19*%
%TO.N,GND*%
X107416600Y-114401600D03*
%TO.P,J1,18*%
%TO.N,TP244*%
X109956600Y-111861600D03*
%TO.P,J1,17*%
%TO.N,TP242*%
X107416600Y-111861600D03*
%TO.P,J1,16*%
%TO.N,TP243*%
X109956600Y-109321600D03*
%TO.P,J1,15*%
%TO.N,TP241*%
X107416600Y-109321600D03*
%TO.P,J1,14*%
%TO.N,TP240*%
X109956600Y-106781600D03*
%TO.P,J1,13*%
%TO.N,TP238*%
X107416600Y-106781600D03*
%TO.P,J1,12*%
%TO.N,TP239*%
X109956600Y-104241600D03*
%TO.P,J1,11*%
%TO.N,TP237*%
X107416600Y-104241600D03*
%TO.P,J1,10*%
%TO.N,TP236*%
X109956600Y-101701600D03*
%TO.P,J1,9*%
%TO.N,TP234*%
X107416600Y-101701600D03*
%TO.P,J1,8*%
%TO.N,TP235*%
X109956600Y-99161600D03*
%TO.P,J1,7*%
%TO.N,TP233*%
X107416600Y-99161600D03*
%TO.P,J1,6*%
%TO.N,TP232*%
X109956600Y-96621600D03*
%TO.P,J1,5*%
%TO.N,TP230*%
X107416600Y-96621600D03*
%TO.P,J1,4*%
%TO.N,TP231*%
X109956600Y-94081600D03*
%TO.P,J1,3*%
%TO.N,TP229*%
X107416600Y-94081600D03*
%TO.P,J1,2*%
%TO.N,GND*%
X109956600Y-91541600D03*
D11*
%TO.P,J1,1*%
%TO.N,TP226*%
X107416600Y-91541600D03*
%TD*%
D12*
%TO.N,*%
X178282600Y-89433400D03*
%TO.N,GND*%
X124485400Y-94488000D03*
%TO.N,TP256*%
X174244000Y-114427000D03*
D13*
X114198400Y-129725637D03*
D12*
%TO.N,TP255*%
X176961800Y-111023400D03*
D13*
X175768000Y-93853000D03*
X138912600Y-98755200D03*
X133164556Y-98025730D03*
D12*
%TO.N,TP254*%
X176733200Y-108229400D03*
D13*
X138149087Y-100023687D03*
X132384798Y-98805487D03*
%TO.N,TP253*%
X112776000Y-129717800D03*
D12*
X173611102Y-111910298D03*
%TO.N,TP252*%
X174371000Y-107848400D03*
D13*
X167716200Y-106426000D03*
D12*
%TO.N,TP250*%
X172872400Y-109651800D03*
D13*
%TO.N,TP249*%
X176758598Y-76860400D03*
D12*
%TO.N,TP248*%
X174980600Y-105435400D03*
%TO.N,TP247*%
X176657000Y-103657400D03*
D13*
X133421707Y-82532545D03*
D12*
%TO.N,TP246*%
X175336200Y-101727000D03*
D13*
X134006747Y-81583973D03*
D12*
%TO.N,TP245*%
X172720000Y-101498400D03*
D13*
X134703836Y-80866971D03*
D12*
%TO.N,TP244*%
X172618400Y-105943400D03*
D13*
X119503373Y-97851947D03*
D12*
%TO.N,TP242*%
X170154600Y-102031788D03*
D13*
X152831800Y-80848200D03*
D12*
%TO.N,TP243*%
X171348411Y-107772200D03*
D13*
X120164912Y-109194600D03*
D12*
%TO.N,TP241*%
X170789600Y-99695000D03*
D13*
X119938800Y-88011000D03*
X114833400Y-102514400D03*
D12*
%TO.N,TP240*%
X177317400Y-98399600D03*
D13*
X117564610Y-90047316D03*
X112369600Y-102539798D03*
D12*
%TO.N,TP238*%
X168351200Y-100152200D03*
D13*
X152603200Y-79552800D03*
D12*
%TO.N,TP239*%
X175209200Y-97891600D03*
D13*
X118314620Y-89277932D03*
D12*
%TO.N,TP237*%
X172618400Y-97332800D03*
D13*
X119126000Y-88671400D03*
D12*
%TO.N,TP236*%
X165836600Y-105638600D03*
%TO.N,TP234*%
X169722800Y-94462600D03*
D13*
X120867332Y-89306400D03*
X115619742Y-100406200D03*
D12*
%TO.N,TP235*%
X166065200Y-97053400D03*
D13*
X164185602Y-81813400D03*
D12*
%TO.N,TP233*%
X162052000Y-102057200D03*
%TO.N,TP232*%
X166954200Y-94564200D03*
D13*
X165697610Y-83362800D03*
D12*
%TO.N,TP230*%
X167665400Y-91871800D03*
D13*
X121640600Y-88595198D03*
X119761000Y-95377000D03*
D12*
%TO.N,TP231*%
X164312600Y-94767400D03*
D13*
X164954113Y-82653264D03*
D12*
%TO.N,TP229*%
X167741600Y-89636600D03*
D13*
X122453400Y-87757000D03*
X120929400Y-95351598D03*
%TD*%
D14*
%TO.N,TP256*%
X174244000Y-114427000D02*
X174142400Y-114427000D01*
X114896553Y-120936803D02*
X114896552Y-129027485D01*
X124113009Y-102144545D02*
X121914943Y-104342613D01*
X121914942Y-113918412D02*
X114896553Y-120936803D01*
X174244000Y-114427000D02*
X172829787Y-114427000D01*
X172829787Y-114427000D02*
X171932600Y-113529813D01*
X168998082Y-106150325D02*
X162884104Y-100036347D01*
X114896552Y-129027485D02*
X114198400Y-129725637D01*
X150737438Y-84418970D02*
X149892464Y-83573996D01*
X136876744Y-98991098D02*
X133723296Y-102144545D01*
X149892464Y-83573996D02*
X137687467Y-83573996D01*
X137687467Y-83573996D02*
X136876745Y-84384718D01*
X133723296Y-102144545D02*
X124113009Y-102144545D01*
X121914943Y-104342613D02*
X121914942Y-113918412D01*
X136876745Y-84384718D02*
X136876744Y-98991098D01*
X150737438Y-95975970D02*
X150737438Y-84418970D01*
X154797815Y-100036347D02*
X150737438Y-95975970D01*
X162884104Y-100036347D02*
X154797815Y-100036347D01*
X168998082Y-108817689D02*
X168998082Y-106150325D01*
X170430602Y-110254343D02*
X168998082Y-108817689D01*
X171932600Y-111756341D02*
X170430602Y-110254343D01*
X171932600Y-113529813D02*
X171932600Y-111756341D01*
%TO.N,TP255*%
X133775399Y-97414887D02*
X133164556Y-98025730D01*
X133775399Y-83243331D02*
X133775399Y-97414887D01*
X136444802Y-80573929D02*
X133775399Y-83243331D01*
X166649400Y-98679000D02*
X165769485Y-98679000D01*
X175768000Y-93853000D02*
X173228000Y-93853000D01*
X164104232Y-97013747D02*
X156017947Y-97013747D01*
X153737504Y-83176304D02*
X151135129Y-80573929D01*
X167665398Y-97663002D02*
X166649400Y-98679000D01*
X169417999Y-97663001D02*
X167665398Y-97663002D01*
X173228000Y-93853000D02*
X169417999Y-97663001D01*
X156017947Y-97013747D02*
X153737504Y-94733304D01*
X153737504Y-94733304D02*
X153737504Y-83176304D01*
X165769485Y-98679000D02*
X164104232Y-97013747D01*
X151135129Y-80573929D02*
X136444802Y-80573929D01*
X138912600Y-101015800D02*
X138912600Y-98755200D01*
X136283822Y-103644578D02*
X138912600Y-101015800D01*
X124734342Y-103644578D02*
X136283822Y-103644578D01*
X123414973Y-104963947D02*
X124734342Y-103644578D01*
X123414973Y-114539747D02*
X123414973Y-104963947D01*
X116404573Y-121550147D02*
X123414973Y-114539747D01*
X116404573Y-133633278D02*
X116404573Y-121550147D01*
X114046251Y-135991600D02*
X116404573Y-133633278D01*
X108686600Y-135991600D02*
X114046251Y-135991600D01*
X107416600Y-137261600D02*
X108686600Y-135991600D01*
%TO.N,TP254*%
X133466518Y-98805487D02*
X132384798Y-98805487D01*
X134328164Y-97943841D02*
X133466518Y-98805487D01*
X134328164Y-83397689D02*
X134328164Y-97943841D01*
X136651913Y-81073940D02*
X134328164Y-83397689D01*
X150928018Y-81073940D02*
X136651913Y-81073940D01*
X153237493Y-83383415D02*
X150928018Y-81073940D01*
X153237493Y-94940415D02*
X153237493Y-83383415D01*
X155818825Y-97521747D02*
X153237493Y-94940415D01*
X163905110Y-97521747D02*
X155818825Y-97521747D01*
X165562373Y-99179010D02*
X163905110Y-97521747D01*
X169625110Y-98163012D02*
X167872510Y-98163012D01*
X172360322Y-95427800D02*
X169625110Y-98163012D01*
X176860200Y-95427800D02*
X172360322Y-95427800D01*
X178892200Y-97459800D02*
X176860200Y-95427800D01*
X178892200Y-106070400D02*
X178892200Y-97459800D01*
X176733200Y-108229400D02*
X178892200Y-106070400D01*
X166856511Y-99179011D02*
X165562373Y-99179010D01*
X167872510Y-98163012D02*
X166856511Y-99179011D01*
X122914962Y-114332636D02*
X122914963Y-104756835D01*
X122914963Y-104756835D02*
X124527231Y-103144567D01*
X115896573Y-121351025D02*
X122914962Y-114332636D01*
X135028207Y-103144567D02*
X138149087Y-100023687D01*
X124527231Y-103144567D02*
X135028207Y-103144567D01*
X115896573Y-130274408D02*
X115896573Y-121351025D01*
X111449381Y-134721600D02*
X115896573Y-130274408D01*
X109956600Y-134721600D02*
X111449381Y-134721600D01*
%TO.N,TP253*%
X172794100Y-111910298D02*
X173611102Y-111910298D01*
X114396542Y-128097258D02*
X114396542Y-120704292D01*
X121414933Y-104135501D02*
X123905898Y-101644534D01*
X151237449Y-84211859D02*
X151237450Y-95768860D01*
X123905898Y-101644534D02*
X133516185Y-101644534D01*
X136376735Y-84177606D02*
X137480356Y-83073985D01*
X163091215Y-99536336D02*
X169498093Y-105943214D01*
X169498093Y-105943214D02*
X169498093Y-108611000D01*
X136376734Y-98783986D02*
X136376735Y-84177606D01*
X170638625Y-109754823D02*
X172794100Y-111910298D01*
X150099575Y-83073985D02*
X151237449Y-84211859D01*
X121414932Y-113685902D02*
X121414933Y-104135501D01*
X133516185Y-101644534D02*
X136376734Y-98783986D01*
X112776000Y-129717800D02*
X114396542Y-128097258D01*
X114396542Y-120704292D02*
X121414932Y-113685902D01*
X151237450Y-95768860D02*
X155004926Y-99536336D01*
X137480356Y-83073985D02*
X150099575Y-83073985D01*
X155004926Y-99536336D02*
X163091215Y-99536336D01*
X169498093Y-108611000D02*
X169498689Y-108611597D01*
X169498689Y-108611597D02*
X170638625Y-109754823D01*
%TO.N,TP252*%
X174371000Y-107848400D02*
X174565602Y-107848400D01*
X122414952Y-114125524D02*
X122414953Y-104549723D01*
X114482217Y-130981599D02*
X115396562Y-130067254D01*
X167716200Y-105575565D02*
X167716200Y-106426000D01*
X137894578Y-84074007D02*
X149685353Y-84074007D01*
X137376756Y-99206364D02*
X137376756Y-84591829D01*
X107416600Y-132181600D02*
X108616601Y-130981599D01*
X154590704Y-100536358D02*
X162676993Y-100536358D01*
X162676993Y-100536358D02*
X167716200Y-105575565D01*
X115396563Y-121143913D02*
X122414952Y-114125524D01*
X150237427Y-84626081D02*
X150237427Y-96183081D01*
X150237427Y-96183081D02*
X154590704Y-100536358D01*
X149685353Y-84074007D02*
X150237427Y-84626081D01*
X137376756Y-84591829D02*
X137894578Y-84074007D01*
X133938564Y-102644556D02*
X137376756Y-99206364D01*
X124320120Y-102644556D02*
X133938564Y-102644556D01*
X122414953Y-104549723D02*
X124320120Y-102644556D01*
X115396562Y-130067254D02*
X115396563Y-121143913D01*
X108616601Y-130981599D02*
X114482217Y-130981599D01*
%TO.N,TP250*%
X123508757Y-101144523D02*
X133309074Y-101144523D01*
X169998401Y-108404609D02*
X171245592Y-109651800D01*
X135876723Y-98576875D02*
X135876725Y-83970494D01*
X155197491Y-99021777D02*
X163283778Y-99021777D01*
X163283778Y-99021777D02*
X169998401Y-105736400D01*
X108661200Y-128397000D02*
X112141909Y-128397000D01*
X112141909Y-128397000D02*
X113872562Y-126666347D01*
X113872563Y-120521149D02*
X120914922Y-113478790D01*
X133309074Y-101144523D02*
X135876723Y-98576875D01*
X151737460Y-84004748D02*
X151737460Y-95561748D01*
X171245592Y-109651800D02*
X172872400Y-109651800D01*
X169998401Y-105736400D02*
X169998401Y-108404609D01*
X150306687Y-82573975D02*
X151737460Y-84004748D01*
X107416600Y-129641600D02*
X108661200Y-128397000D01*
X135876725Y-83970494D02*
X137273245Y-82573974D01*
X120914922Y-103738358D02*
X123508757Y-101144523D01*
X137273245Y-82573974D02*
X150306687Y-82573975D01*
X120914922Y-113478790D02*
X120914922Y-103738358D01*
X113872562Y-126666347D02*
X113872563Y-120521149D01*
X151737460Y-95561748D02*
X155197491Y-99021777D01*
%TO.N,TP249*%
X115722400Y-88620600D02*
X128111199Y-76231801D01*
X107416600Y-127101600D02*
X105587800Y-125272800D01*
X105587800Y-90805000D02*
X107772200Y-88620600D01*
X176129999Y-76231801D02*
X176758598Y-76860400D01*
X105587800Y-125272800D02*
X105587800Y-90805000D01*
X128111199Y-76231801D02*
X176129999Y-76231801D01*
X107772200Y-88620600D02*
X115722400Y-88620600D01*
%TO.N,TP248*%
X134876702Y-83556273D02*
X134876702Y-98150418D01*
X152737481Y-83590525D02*
X150720907Y-81573951D01*
X152737482Y-95147526D02*
X152737481Y-83590525D01*
X163697999Y-98021758D02*
X155611713Y-98021757D01*
X169790841Y-104114600D02*
X163697999Y-98021758D01*
X173659800Y-104114600D02*
X169790841Y-104114600D01*
X174980600Y-105435400D02*
X173659800Y-104114600D01*
X119376373Y-103862663D02*
X119376373Y-114310217D01*
X136859024Y-81573951D02*
X134876702Y-83556273D01*
X132882616Y-100144504D02*
X123094531Y-100144505D01*
X108686600Y-123291600D02*
X107416600Y-124561600D01*
X134876702Y-98150418D02*
X132882616Y-100144504D01*
X150720907Y-81573951D02*
X136859024Y-81573951D01*
X119376373Y-114310217D02*
X110394990Y-123291600D01*
X155611713Y-98021757D02*
X152737482Y-95147526D01*
X123094531Y-100144505D02*
X119376373Y-103862663D01*
X110394990Y-123291600D02*
X108686600Y-123291600D01*
%TO.N,TP247*%
X118876362Y-114095880D02*
X118876363Y-103655551D01*
X133220234Y-96909374D02*
X133220234Y-82734018D01*
X107416600Y-122021600D02*
X108686600Y-120751600D01*
X130653492Y-99476116D02*
X133220234Y-96909374D01*
X123055796Y-99476116D02*
X130653492Y-99476116D01*
X118876363Y-103655551D02*
X123055796Y-99476116D01*
X112220642Y-120751600D02*
X118876362Y-114095880D01*
X108686600Y-120751600D02*
X112220642Y-120751600D01*
X133220234Y-82734018D02*
X133421707Y-82532545D01*
%TO.N,TP246*%
X132671697Y-82174669D02*
X133262393Y-81583973D01*
X107416600Y-119481600D02*
X108616601Y-118281599D01*
X130446381Y-98976105D02*
X132671697Y-96750789D01*
X132671697Y-96750789D02*
X132671697Y-82174669D01*
X118376353Y-103448439D02*
X122848685Y-98976105D01*
X122848685Y-98976105D02*
X130446381Y-98976105D01*
X118376352Y-113888768D02*
X118376353Y-103448439D01*
X113983521Y-118281599D02*
X118376352Y-113888768D01*
X108616601Y-118281599D02*
X113983521Y-118281599D01*
X133262393Y-81583973D02*
X134006747Y-81583973D01*
%TO.N,TP245*%
X133305272Y-80833972D02*
X134670837Y-80833972D01*
X117876343Y-103241327D02*
X122641574Y-98476094D01*
X109042200Y-115316000D02*
X116114998Y-115316000D01*
X107416600Y-116941600D02*
X109042200Y-115316000D01*
X116114998Y-115316000D02*
X117876342Y-113554656D01*
X117876342Y-113554656D02*
X117876343Y-103241327D01*
X132171687Y-81967557D02*
X133305272Y-80833972D01*
X134670837Y-80833972D02*
X134703836Y-80866971D01*
X122641574Y-98476094D02*
X130239270Y-98476094D01*
X130239270Y-98476094D02*
X132171686Y-96543678D01*
X132171686Y-96543678D02*
X132171687Y-81967557D01*
%TO.N,TP244*%
X117369773Y-107717780D02*
X117369773Y-99985547D01*
X113225953Y-111861600D02*
X117369773Y-107717780D01*
X109956600Y-111861600D02*
X113225953Y-111861600D01*
X117369773Y-99985547D02*
X119503373Y-97851947D01*
%TO.N,TP242*%
X119370039Y-96893081D02*
X131115163Y-96893081D01*
X133358204Y-80073918D02*
X152057518Y-80073918D01*
X108756599Y-110521601D02*
X113858830Y-110521601D01*
X152057518Y-80073918D02*
X152831800Y-80848200D01*
X131671671Y-96336571D02*
X131671672Y-81760450D01*
X131671672Y-81760450D02*
X133358204Y-80073918D01*
X131115163Y-96893081D02*
X131671671Y-96336571D01*
X116869762Y-99393358D02*
X119370039Y-96893081D01*
X116869762Y-107510669D02*
X116869762Y-99393358D01*
X113858830Y-110521601D02*
X116869762Y-107510669D01*
X107416600Y-111861600D02*
X108756599Y-110521601D01*
%TO.N,TP243*%
X120164912Y-103781246D02*
X120164912Y-109194600D01*
X170498412Y-106922201D02*
X170498412Y-105529293D01*
X133089727Y-100644515D02*
X123301643Y-100644515D01*
X152237471Y-95354637D02*
X152237471Y-83797637D01*
X170498412Y-105529293D02*
X163490887Y-98521768D01*
X152237471Y-83797637D02*
X150513797Y-82073963D01*
X163490887Y-98521768D02*
X155404601Y-98521767D01*
X150513797Y-82073963D02*
X137066133Y-82073964D01*
X135376713Y-83763384D02*
X135376712Y-98357530D01*
X123301643Y-100644515D02*
X120164912Y-103781246D01*
X135376712Y-98357530D02*
X133089727Y-100644515D01*
X137066133Y-82073964D02*
X135376713Y-83763384D01*
X171348411Y-107772200D02*
X170498412Y-106922201D01*
X155404601Y-98521767D02*
X152237471Y-95354637D01*
%TO.N,TP241*%
X114802118Y-102483118D02*
X114833400Y-102514400D01*
X119938800Y-88011000D02*
X119938800Y-92875566D01*
X114802118Y-98012248D02*
X114802118Y-102483118D01*
X119938800Y-92875566D02*
X114802118Y-98012248D01*
%TO.N,TP240*%
X117564610Y-93128390D02*
X112369600Y-98323400D01*
X112369600Y-98323400D02*
X112369600Y-102539798D01*
X117564610Y-90047316D02*
X117564610Y-93128390D01*
%TO.N,TP238*%
X133172200Y-79552800D02*
X152603200Y-79552800D01*
X115596309Y-108077000D02*
X116369752Y-107303557D01*
X131171662Y-81553338D02*
X133172200Y-79552800D01*
X116369752Y-107303557D02*
X116369752Y-99186246D01*
X119162928Y-96393070D02*
X130908052Y-96393070D01*
X131171661Y-96129461D02*
X131171662Y-81553338D01*
X108712000Y-108077000D02*
X115596309Y-108077000D01*
X130908052Y-96393070D02*
X131171661Y-96129461D01*
X116369752Y-99186246D02*
X119162928Y-96393070D01*
X107416600Y-106781600D02*
X108712000Y-108077000D01*
%TO.N,TP239*%
X113284000Y-98116122D02*
X118314620Y-93085502D01*
X118314620Y-93085502D02*
X118314620Y-89277932D01*
X113284000Y-102844600D02*
X113284000Y-98116122D01*
X109956600Y-104241600D02*
X111887000Y-104241600D01*
X111887000Y-104241600D02*
X113284000Y-102844600D01*
%TO.N,TP237*%
X108616601Y-105441601D02*
X112109399Y-105441601D01*
X107416600Y-104241600D02*
X108616601Y-105441601D01*
X119126000Y-92981244D02*
X119126000Y-88671400D01*
X112109399Y-105441601D02*
X114020600Y-103530400D01*
X114020600Y-98086644D02*
X119126000Y-92981244D01*
X114020600Y-103530400D02*
X114020600Y-98086644D01*
%TO.N,TP234*%
X120867332Y-89306400D02*
X120867332Y-92699667D01*
X120867332Y-92699667D02*
X115619742Y-97947257D01*
X115619742Y-97947257D02*
X115619742Y-100406200D01*
%TO.N,TP235*%
X128713532Y-77750834D02*
X163196434Y-77750834D01*
X163196434Y-77750834D02*
X164185602Y-78740002D01*
X116814600Y-92303600D02*
X116814600Y-89649766D01*
X109956600Y-99161600D02*
X116814600Y-92303600D01*
X164185602Y-78740002D02*
X164185602Y-81813400D01*
X116814600Y-89649766D02*
X128713532Y-77750834D01*
%TO.N,TP232*%
X109956600Y-96621600D02*
X110667800Y-96621600D01*
X165709600Y-83350810D02*
X165697610Y-83362800D01*
X165709600Y-78816200D02*
X165709600Y-83350810D01*
X163644212Y-76750812D02*
X165709600Y-78816200D01*
X128299310Y-76750812D02*
X163644212Y-76750812D01*
X108712000Y-89942309D02*
X109533699Y-89120610D01*
X109956600Y-96621600D02*
X108712000Y-95377000D01*
X108712000Y-95377000D02*
X108712000Y-89942309D01*
X109533699Y-89120610D02*
X115929512Y-89120610D01*
X115929512Y-89120610D02*
X128299310Y-76750812D01*
%TO.N,TP230*%
X119761000Y-94589600D02*
X119761000Y-95377000D01*
X121640600Y-88595198D02*
X121640600Y-92710000D01*
X121640600Y-92710000D02*
X119761000Y-94589600D01*
%TO.N,TP231*%
X109956600Y-94081600D02*
X111675644Y-94081600D01*
X111675644Y-94081600D02*
X128506421Y-77250823D01*
X128506421Y-77250823D02*
X163437101Y-77250823D01*
X164954113Y-82087579D02*
X164954113Y-82653264D01*
X164954113Y-78767835D02*
X164954113Y-82087579D01*
X163437101Y-77250823D02*
X164954113Y-78767835D01*
%TO.N,TP229*%
X120929400Y-94208600D02*
X120929400Y-95351598D01*
X122453400Y-87757000D02*
X122453400Y-92684600D01*
X122453400Y-92684600D02*
X120929400Y-94208600D01*
%TD*%
M02*
