M48
; DRILL file {KiCad (5.1.6)-1} date 08/21/20 18:39:38
; FORMAT={-:-/ absolute / inch / decimal}
; #@! TF.CreationDate,2020-08-21T18:39:38+02:00
; #@! TF.GenerationSoftware,Kicad,Pcbnew,(5.1.6)-1
FMAT,2
INCH
T1C0.0157
T2C0.0394
T3C0.0492
%
G90
G05
T1
X4.424Y-4.037
X4.44Y-5.107
X4.496Y-5.1073
X4.521Y-4.036
X4.552Y-3.953
X4.6285Y-3.5452
X4.6581Y-3.5149
X4.69Y-3.491
X4.7049Y-3.8524
X4.715Y-3.755
X4.722Y-3.465
X4.7309Y-4.299
X4.7586Y-3.516
X4.761Y-3.754
X4.789Y-3.488
X4.821Y-3.455
X5.212Y-3.89
X5.2427Y-3.8593
X5.2528Y-3.2493
X5.2759Y-3.212
X5.3033Y-3.1837
X5.4389Y-3.9379
X5.469Y-3.888
X6.008Y-3.132
X6.017Y-3.183
X6.464Y-3.221
X6.4943Y-3.2541
X6.5235Y-3.282
X6.603Y-4.19
X6.92Y-3.695
X6.959Y-3.026
T2
X4.229Y-3.604
X4.229Y-3.704
X4.229Y-3.804
X4.229Y-3.904
X4.229Y-4.004
X4.229Y-4.104
X4.229Y-4.204
X4.229Y-4.304
X4.229Y-4.404
X4.229Y-4.504
X4.229Y-4.604
X4.229Y-4.704
X4.229Y-4.804
X4.229Y-4.904
X4.229Y-5.004
X4.229Y-5.104
X4.229Y-5.204
X4.229Y-5.304
X4.229Y-5.404
X4.229Y-5.504
X4.329Y-3.604
X4.329Y-3.704
X4.329Y-3.804
X4.329Y-3.904
X4.329Y-4.004
X4.329Y-4.104
X4.329Y-4.204
X4.329Y-4.304
X4.329Y-4.404
X4.329Y-4.604
X4.329Y-4.704
X4.329Y-4.804
X4.329Y-4.904
X4.329Y-5.004
X4.329Y-5.104
X4.329Y-5.204
X4.329Y-5.304
X4.329Y-5.404
X4.329Y-5.504
T3
X4.901Y-3.72
X6.38Y-4.018
X6.469Y-3.731
X6.529Y-4.159
X6.538Y-3.821
X6.573Y-3.723
X6.601Y-3.617
X6.604Y-3.529
X6.628Y-3.943
X6.682Y-3.719
X6.699Y-4.017
X6.724Y-3.925
X6.746Y-4.243
X6.796Y-3.832
X6.796Y-4.171
X6.8Y-3.996
X6.806Y-4.317
X6.8351Y-4.4059
X6.86Y-4.505
X6.865Y-4.246
X6.889Y-4.151
X6.898Y-3.854
X6.903Y-4.005
X6.955Y-4.081
X6.958Y-4.261
X6.967Y-4.371
X6.981Y-3.874
X7.019Y-3.521
T0
M30
