%TF.GenerationSoftware,KiCad,Pcbnew,(5.1.6)-1*%
%TF.CreationDate,2020-08-21T18:39:33+02:00*%
%TF.ProjectId,Shiba GD-IDE,53686962-6120-4474-942d-4944452e6b69,rev?*%
%TF.SameCoordinates,Original*%
%TF.FileFunction,Legend,Bot*%
%TF.FilePolarity,Positive*%
%FSLAX46Y46*%
G04 Gerber Fmt 4.6, Leading zero omitted, Abs format (unit mm)*
G04 Created by KiCad (PCBNEW (5.1.6)-1) date 2020-08-21 18:39:33*
%MOMM*%
%LPD*%
G01*
G04 APERTURE LIST*
%ADD10C,0.300000*%
%ADD11C,0.200000*%
%ADD12C,0.010000*%
G04 APERTURE END LIST*
D10*
X121655491Y-104272611D02*
X122043719Y-102823723D01*
X121895823Y-103375680D02*
X121776320Y-103269711D01*
X121500341Y-103195763D01*
X121343865Y-103227784D01*
X121256383Y-103278291D01*
X121150414Y-103397794D01*
X121039492Y-103811762D01*
X121071512Y-103968238D01*
X121122020Y-104055720D01*
X121241522Y-104161689D01*
X121517501Y-104235637D01*
X121673978Y-104203617D01*
X120137607Y-103865896D02*
X120294084Y-103833875D01*
X120381565Y-103783368D01*
X120487534Y-103663865D01*
X120598457Y-103249897D01*
X120566436Y-103093420D01*
X120515929Y-103005939D01*
X120396426Y-102899970D01*
X120189442Y-102844509D01*
X120032966Y-102876529D01*
X119945484Y-102927037D01*
X119839515Y-103046539D01*
X119728593Y-103460507D01*
X119760613Y-103616984D01*
X119811121Y-103704466D01*
X119930623Y-103810434D01*
X120137607Y-103865896D01*
X119033692Y-103570102D02*
X119292511Y-102604177D01*
X119218563Y-102880155D02*
X119186542Y-102723679D01*
X119136035Y-102636197D01*
X119016532Y-102530228D01*
X118878543Y-102493254D01*
X118136761Y-103329771D02*
X118524989Y-101880882D01*
X118146668Y-102740839D02*
X117584803Y-103181874D01*
X117843622Y-102215948D02*
X118247683Y-102915802D01*
X149282891Y-79155063D02*
X149154607Y-79250213D01*
X148873234Y-79299827D01*
X148720143Y-79254291D01*
X148624993Y-79126007D01*
X148612590Y-79055664D01*
X148658126Y-78902573D01*
X148786410Y-78807423D01*
X148997440Y-78770213D01*
X149125723Y-78675063D01*
X149171260Y-78521972D01*
X149158856Y-78451629D01*
X149063706Y-78323345D01*
X148910616Y-78277809D01*
X148699585Y-78315019D01*
X148571302Y-78410170D01*
X147222374Y-78575492D02*
X147396022Y-79560299D01*
X147855465Y-78463861D02*
X147991902Y-79237638D01*
X147946366Y-79390728D01*
X147818082Y-79485879D01*
X147607052Y-79523089D01*
X147453962Y-79477552D01*
X147371215Y-79419612D01*
X146047094Y-79725621D02*
X146200184Y-79771158D01*
X146481558Y-79721544D01*
X146609841Y-79626394D01*
X146667781Y-79543647D01*
X146713318Y-79390557D01*
X146638897Y-78968496D01*
X146543747Y-78840213D01*
X146461000Y-78782273D01*
X146307910Y-78736736D01*
X146026536Y-78786350D01*
X145898252Y-78881500D01*
X145426407Y-79907596D02*
X145165934Y-78430384D01*
X144793316Y-80019227D02*
X144656878Y-79245449D01*
X144702414Y-79092359D01*
X144830698Y-78997209D01*
X145041728Y-78959998D01*
X145194818Y-79005535D01*
X145277565Y-79063475D01*
X142964387Y-80341716D02*
X142703915Y-78864504D01*
X142803142Y-79427252D02*
X142650052Y-79381715D01*
X142368678Y-79431329D01*
X142240395Y-79526479D01*
X142182455Y-79609226D01*
X142136919Y-79762316D01*
X142211339Y-80184377D01*
X142306490Y-80312660D01*
X142389236Y-80370600D01*
X142542327Y-80416137D01*
X142823700Y-80366523D01*
X142951984Y-80271373D01*
X141416832Y-80614592D02*
X141545115Y-80519442D01*
X141603055Y-80436695D01*
X141648592Y-80283604D01*
X141574171Y-79861544D01*
X141479021Y-79733261D01*
X141396274Y-79675321D01*
X141243184Y-79629784D01*
X141032154Y-79666994D01*
X140903870Y-79762145D01*
X140845930Y-79844892D01*
X140800394Y-79997982D01*
X140874814Y-80420042D01*
X140969965Y-80548326D01*
X141052712Y-80606266D01*
X141205802Y-80651802D01*
X141416832Y-80614592D01*
X139658247Y-80924678D02*
X139521809Y-80150900D01*
X139567345Y-79997810D01*
X139695629Y-79902660D01*
X139977003Y-79853046D01*
X140130093Y-79898583D01*
X139645843Y-80854334D02*
X139798934Y-80899871D01*
X140150651Y-80837854D01*
X140278934Y-80742703D01*
X140324471Y-80589613D01*
X140299664Y-80448926D01*
X140204513Y-80320643D01*
X140051423Y-80275106D01*
X139699706Y-80337124D01*
X139546616Y-80291587D01*
X138954813Y-81048712D02*
X138781165Y-80063905D01*
X138830778Y-80345278D02*
X138735628Y-80216995D01*
X138652881Y-80159055D01*
X138499791Y-80113518D01*
X138359104Y-80138325D01*
X137407258Y-81321588D02*
X137146785Y-79844376D01*
X137394854Y-81251245D02*
X137547944Y-81296781D01*
X137829318Y-81247167D01*
X137957602Y-81152017D01*
X138015541Y-81069270D01*
X138061078Y-80916180D01*
X137986657Y-80494119D01*
X137891507Y-80365836D01*
X137808760Y-80307896D01*
X137655670Y-80262360D01*
X137374296Y-80311973D01*
X137246013Y-80407124D01*
X175428340Y-84444475D02*
X176001916Y-83625323D01*
X175919977Y-83742345D02*
X175902436Y-83642864D01*
X175826384Y-83502414D01*
X175650851Y-83379505D01*
X175492860Y-83356076D01*
X175352409Y-83432128D01*
X174901742Y-84075747D01*
X175352409Y-83432128D02*
X175375838Y-83274137D01*
X175299786Y-83133686D01*
X175124253Y-83010777D01*
X174966262Y-82987348D01*
X174825811Y-83063400D01*
X174375144Y-83707020D01*
X173837014Y-82109443D02*
X173263438Y-82928595D01*
X174363612Y-82478170D02*
X173912945Y-83121790D01*
X173772495Y-83197842D01*
X173614503Y-83174413D01*
X173438970Y-83051504D01*
X173362919Y-82911054D01*
X173345377Y-82811573D01*
X172192701Y-82091659D02*
X172268753Y-82232109D01*
X172502797Y-82395988D01*
X172660788Y-82419417D01*
X172760269Y-82401875D01*
X172900719Y-82325823D01*
X173146538Y-81974758D01*
X173169966Y-81816767D01*
X173152425Y-81717286D01*
X173076373Y-81576836D01*
X172842330Y-81412957D01*
X172684338Y-81389528D01*
X171625134Y-81781442D02*
X172485498Y-80552714D01*
X171098536Y-81412714D02*
X171549203Y-80769095D01*
X171689654Y-80693043D01*
X171847645Y-80716471D01*
X172023178Y-80839380D01*
X172099230Y-80979831D01*
X172116771Y-81079311D01*
X170267852Y-79610288D02*
X169460232Y-80265561D01*
X169635886Y-79516574D01*
X168992145Y-79937803D01*
X169331678Y-78954772D01*
X168114482Y-79323257D02*
X168272474Y-79346686D01*
X168371954Y-79329145D01*
X168512405Y-79253093D01*
X168758223Y-78902027D01*
X168781652Y-78744036D01*
X168764111Y-78644555D01*
X168688059Y-78504105D01*
X168512526Y-78381196D01*
X168354535Y-78357767D01*
X168255054Y-78375308D01*
X168114604Y-78451360D01*
X167868785Y-78802425D01*
X167845357Y-78960417D01*
X167862898Y-79059897D01*
X167938950Y-79200348D01*
X168114482Y-79323257D01*
X167868907Y-77930529D02*
X167061287Y-78585802D01*
X167236941Y-77836814D01*
X166593200Y-78258044D01*
X166932733Y-77275013D01*
D11*
X127107652Y-85563817D02*
X127107652Y-84563817D01*
X127107652Y-84944770D02*
X127012414Y-84897151D01*
X126821938Y-84897151D01*
X126726700Y-84944770D01*
X126679081Y-84992389D01*
X126631462Y-85087627D01*
X126631462Y-85373341D01*
X126679081Y-85468579D01*
X126726700Y-85516198D01*
X126821938Y-85563817D01*
X127012414Y-85563817D01*
X127107652Y-85516198D01*
X125774319Y-85563817D02*
X125774319Y-85040008D01*
X125821938Y-84944770D01*
X125917176Y-84897151D01*
X126107652Y-84897151D01*
X126202891Y-84944770D01*
X125774319Y-85516198D02*
X125869557Y-85563817D01*
X126107652Y-85563817D01*
X126202891Y-85516198D01*
X126250510Y-85420960D01*
X126250510Y-85325722D01*
X126202891Y-85230484D01*
X126107652Y-85182865D01*
X125869557Y-85182865D01*
X125774319Y-85135246D01*
X125345748Y-85516198D02*
X125250510Y-85563817D01*
X125060033Y-85563817D01*
X124964795Y-85516198D01*
X124917176Y-85420960D01*
X124917176Y-85373341D01*
X124964795Y-85278103D01*
X125060033Y-85230484D01*
X125202891Y-85230484D01*
X125298129Y-85182865D01*
X125345748Y-85087627D01*
X125345748Y-85040008D01*
X125298129Y-84944770D01*
X125202891Y-84897151D01*
X125060033Y-84897151D01*
X124964795Y-84944770D01*
X124107652Y-85516198D02*
X124202891Y-85563817D01*
X124393367Y-85563817D01*
X124488605Y-85516198D01*
X124536224Y-85420960D01*
X124536224Y-85040008D01*
X124488605Y-84944770D01*
X124393367Y-84897151D01*
X124202891Y-84897151D01*
X124107652Y-84944770D01*
X124060033Y-85040008D01*
X124060033Y-85135246D01*
X124536224Y-85230484D01*
X123202891Y-85563817D02*
X123202891Y-84563817D01*
X123202891Y-85516198D02*
X123298129Y-85563817D01*
X123488605Y-85563817D01*
X123583843Y-85516198D01*
X123631462Y-85468579D01*
X123679081Y-85373341D01*
X123679081Y-85087627D01*
X123631462Y-84992389D01*
X123583843Y-84944770D01*
X123488605Y-84897151D01*
X123298129Y-84897151D01*
X123202891Y-84944770D01*
X121821938Y-85563817D02*
X121917176Y-85516198D01*
X121964795Y-85468579D01*
X122012414Y-85373341D01*
X122012414Y-85087627D01*
X121964795Y-84992389D01*
X121917176Y-84944770D01*
X121821938Y-84897151D01*
X121679081Y-84897151D01*
X121583843Y-84944770D01*
X121536224Y-84992389D01*
X121488605Y-85087627D01*
X121488605Y-85373341D01*
X121536224Y-85468579D01*
X121583843Y-85516198D01*
X121679081Y-85563817D01*
X121821938Y-85563817D01*
X121060033Y-84897151D02*
X121060033Y-85563817D01*
X121060033Y-84992389D02*
X121012414Y-84944770D01*
X120917176Y-84897151D01*
X120774319Y-84897151D01*
X120679081Y-84944770D01*
X120631462Y-85040008D01*
X120631462Y-85563817D01*
X118869557Y-84611437D02*
X118964795Y-84563817D01*
X119107652Y-84563817D01*
X119250510Y-84611437D01*
X119345748Y-84706675D01*
X119393367Y-84801913D01*
X119440986Y-84992389D01*
X119440986Y-85135246D01*
X119393367Y-85325722D01*
X119345748Y-85420960D01*
X119250510Y-85516198D01*
X119107652Y-85563817D01*
X119012414Y-85563817D01*
X118869557Y-85516198D01*
X118821938Y-85468579D01*
X118821938Y-85135246D01*
X119012414Y-85135246D01*
X118060033Y-85040008D02*
X117917176Y-85087627D01*
X117869557Y-85135246D01*
X117821938Y-85230484D01*
X117821938Y-85373341D01*
X117869557Y-85468579D01*
X117917176Y-85516198D01*
X118012414Y-85563817D01*
X118393367Y-85563817D01*
X118393367Y-84563817D01*
X118060033Y-84563817D01*
X117964795Y-84611437D01*
X117917176Y-84659056D01*
X117869557Y-84754294D01*
X117869557Y-84849532D01*
X117917176Y-84944770D01*
X117964795Y-84992389D01*
X118060033Y-85040008D01*
X118393367Y-85040008D01*
X117393367Y-85182865D02*
X116631462Y-85182865D01*
X116155272Y-85563817D02*
X116155272Y-84563817D01*
X115679081Y-85563817D02*
X115679081Y-84563817D01*
X115440986Y-84563817D01*
X115298129Y-84611437D01*
X115202891Y-84706675D01*
X115155272Y-84801913D01*
X115107652Y-84992389D01*
X115107652Y-85135246D01*
X115155272Y-85325722D01*
X115202891Y-85420960D01*
X115298129Y-85516198D01*
X115440986Y-85563817D01*
X115679081Y-85563817D01*
X114679081Y-85040008D02*
X114345748Y-85040008D01*
X114202891Y-85563817D02*
X114679081Y-85563817D01*
X114679081Y-84563817D01*
X114202891Y-84563817D01*
X112583843Y-85563817D02*
X112583843Y-84563817D01*
X112583843Y-85516198D02*
X112679081Y-85563817D01*
X112869557Y-85563817D01*
X112964795Y-85516198D01*
X113012414Y-85468579D01*
X113060033Y-85373341D01*
X113060033Y-85087627D01*
X113012414Y-84992389D01*
X112964795Y-84944770D01*
X112869557Y-84897151D01*
X112679081Y-84897151D01*
X112583843Y-84944770D01*
X111726700Y-85516198D02*
X111821938Y-85563817D01*
X112012414Y-85563817D01*
X112107652Y-85516198D01*
X112155272Y-85420960D01*
X112155272Y-85040008D01*
X112107652Y-84944770D01*
X112012414Y-84897151D01*
X111821938Y-84897151D01*
X111726700Y-84944770D01*
X111679081Y-85040008D01*
X111679081Y-85135246D01*
X112155272Y-85230484D01*
X111298129Y-85516198D02*
X111202891Y-85563817D01*
X111012414Y-85563817D01*
X110917176Y-85516198D01*
X110869557Y-85420960D01*
X110869557Y-85373341D01*
X110917176Y-85278103D01*
X111012414Y-85230484D01*
X111155272Y-85230484D01*
X111250510Y-85182865D01*
X111298129Y-85087627D01*
X111298129Y-85040008D01*
X111250510Y-84944770D01*
X111155272Y-84897151D01*
X111012414Y-84897151D01*
X110917176Y-84944770D01*
X110440986Y-85563817D02*
X110440986Y-84897151D01*
X110440986Y-84563817D02*
X110488605Y-84611437D01*
X110440986Y-84659056D01*
X110393367Y-84611437D01*
X110440986Y-84563817D01*
X110440986Y-84659056D01*
X109536224Y-84897151D02*
X109536224Y-85706675D01*
X109583843Y-85801913D01*
X109631462Y-85849532D01*
X109726700Y-85897151D01*
X109869557Y-85897151D01*
X109964795Y-85849532D01*
X109536224Y-85516198D02*
X109631462Y-85563817D01*
X109821938Y-85563817D01*
X109917176Y-85516198D01*
X109964795Y-85468579D01*
X110012414Y-85373341D01*
X110012414Y-85087627D01*
X109964795Y-84992389D01*
X109917176Y-84944770D01*
X109821938Y-84897151D01*
X109631462Y-84897151D01*
X109536224Y-84944770D01*
X109060033Y-84897151D02*
X109060033Y-85563817D01*
X109060033Y-84992389D02*
X109012414Y-84944770D01*
X108917176Y-84897151D01*
X108774319Y-84897151D01*
X108679081Y-84944770D01*
X108631462Y-85040008D01*
X108631462Y-85563817D01*
X107393367Y-85563817D02*
X107393367Y-84563817D01*
X107393367Y-84944770D02*
X107298129Y-84897151D01*
X107107652Y-84897151D01*
X107012414Y-84944770D01*
X106964795Y-84992389D01*
X106917176Y-85087627D01*
X106917176Y-85373341D01*
X106964795Y-85468579D01*
X107012414Y-85516198D01*
X107107652Y-85563817D01*
X107298129Y-85563817D01*
X107393367Y-85516198D01*
X106583843Y-84897151D02*
X106345748Y-85563817D01*
X106107652Y-84897151D02*
X106345748Y-85563817D01*
X106440986Y-85801913D01*
X106488605Y-85849532D01*
X106583843Y-85897151D01*
X123607652Y-86597151D02*
X123226700Y-86597151D01*
X123464795Y-86263817D02*
X123464795Y-87120960D01*
X123417176Y-87216198D01*
X123321938Y-87263817D01*
X123226700Y-87263817D01*
X122464795Y-87263817D02*
X122464795Y-86740008D01*
X122512414Y-86644770D01*
X122607652Y-86597151D01*
X122798129Y-86597151D01*
X122893367Y-86644770D01*
X122464795Y-87216198D02*
X122560033Y-87263817D01*
X122798129Y-87263817D01*
X122893367Y-87216198D01*
X122940986Y-87120960D01*
X122940986Y-87025722D01*
X122893367Y-86930484D01*
X122798129Y-86882865D01*
X122560033Y-86882865D01*
X122464795Y-86835246D01*
X122083843Y-86597151D02*
X121893367Y-87263817D01*
X121702891Y-86787627D01*
X121512414Y-87263817D01*
X121321938Y-86597151D01*
X121036224Y-86597151D02*
X120798129Y-87263817D01*
X120560033Y-86597151D02*
X120798129Y-87263817D01*
X120893367Y-87501913D01*
X120940986Y-87549532D01*
X121036224Y-87597151D01*
X118607652Y-87263817D02*
X118655272Y-87263817D01*
X118750510Y-87216198D01*
X118893367Y-87073341D01*
X119131462Y-86787627D01*
X119226700Y-86644770D01*
X119274319Y-86501913D01*
X119274319Y-86406675D01*
X119226700Y-86311437D01*
X119131462Y-86263817D01*
X119083843Y-86263817D01*
X118988605Y-86311437D01*
X118940986Y-86406675D01*
X118940986Y-86454294D01*
X118988605Y-86549532D01*
X119036224Y-86597151D01*
X119321938Y-86787627D01*
X119369557Y-86835246D01*
X119417176Y-86930484D01*
X119417176Y-87073341D01*
X119369557Y-87168579D01*
X119321938Y-87216198D01*
X119226700Y-87263817D01*
X119083843Y-87263817D01*
X118988605Y-87216198D01*
X118940986Y-87168579D01*
X118798129Y-86978103D01*
X118750510Y-86835246D01*
X118750510Y-86740008D01*
X117417176Y-87263817D02*
X117417176Y-86263817D01*
X117179081Y-86263817D01*
X117036224Y-86311437D01*
X116940986Y-86406675D01*
X116893367Y-86501913D01*
X116845748Y-86692389D01*
X116845748Y-86835246D01*
X116893367Y-87025722D01*
X116940986Y-87120960D01*
X117036224Y-87216198D01*
X117179081Y-87263817D01*
X117417176Y-87263817D01*
X116417176Y-87263817D02*
X116417176Y-86597151D01*
X116417176Y-86787627D02*
X116369557Y-86692389D01*
X116321938Y-86644770D01*
X116226700Y-86597151D01*
X116131462Y-86597151D01*
X115369557Y-87263817D02*
X115369557Y-86740008D01*
X115417176Y-86644770D01*
X115512414Y-86597151D01*
X115702891Y-86597151D01*
X115798129Y-86644770D01*
X115369557Y-87216198D02*
X115464795Y-87263817D01*
X115702891Y-87263817D01*
X115798129Y-87216198D01*
X115845748Y-87120960D01*
X115845748Y-87025722D01*
X115798129Y-86930484D01*
X115702891Y-86882865D01*
X115464795Y-86882865D01*
X115369557Y-86835246D01*
X114464795Y-86597151D02*
X114464795Y-87406675D01*
X114512414Y-87501913D01*
X114560033Y-87549532D01*
X114655272Y-87597151D01*
X114798129Y-87597151D01*
X114893367Y-87549532D01*
X114464795Y-87216198D02*
X114560033Y-87263817D01*
X114750510Y-87263817D01*
X114845748Y-87216198D01*
X114893367Y-87168579D01*
X114940986Y-87073341D01*
X114940986Y-86787627D01*
X114893367Y-86692389D01*
X114845748Y-86644770D01*
X114750510Y-86597151D01*
X114560033Y-86597151D01*
X114464795Y-86644770D01*
X113845748Y-87263817D02*
X113940986Y-87216198D01*
X113988605Y-87168579D01*
X114036224Y-87073341D01*
X114036224Y-86787627D01*
X113988605Y-86692389D01*
X113940986Y-86644770D01*
X113845748Y-86597151D01*
X113702891Y-86597151D01*
X113607652Y-86644770D01*
X113560033Y-86692389D01*
X113512414Y-86787627D01*
X113512414Y-87073341D01*
X113560033Y-87168579D01*
X113607652Y-87216198D01*
X113702891Y-87263817D01*
X113845748Y-87263817D01*
X113083843Y-86597151D02*
X113083843Y-87263817D01*
X113083843Y-86692389D02*
X113036224Y-86644770D01*
X112940986Y-86597151D01*
X112798129Y-86597151D01*
X112702891Y-86644770D01*
X112655272Y-86740008D01*
X112655272Y-87263817D01*
X111607652Y-87168579D02*
X111655272Y-87216198D01*
X111798129Y-87263817D01*
X111893367Y-87263817D01*
X112036224Y-87216198D01*
X112131462Y-87120960D01*
X112179081Y-87025722D01*
X112226700Y-86835246D01*
X112226700Y-86692389D01*
X112179081Y-86501913D01*
X112131462Y-86406675D01*
X112036224Y-86311437D01*
X111893367Y-86263817D01*
X111798129Y-86263817D01*
X111655272Y-86311437D01*
X111607652Y-86359056D01*
X111179081Y-87263817D02*
X111179081Y-86597151D01*
X111179081Y-86263817D02*
X111226700Y-86311437D01*
X111179081Y-86359056D01*
X111131462Y-86311437D01*
X111179081Y-86263817D01*
X111179081Y-86359056D01*
X110845748Y-86597151D02*
X110464795Y-86597151D01*
X110702891Y-86263817D02*
X110702891Y-87120960D01*
X110655272Y-87216198D01*
X110560033Y-87263817D01*
X110464795Y-87263817D01*
X110226700Y-86597151D02*
X109988605Y-87263817D01*
X109750510Y-86597151D02*
X109988605Y-87263817D01*
X110083843Y-87501913D01*
X110131462Y-87549532D01*
X110226700Y-87597151D01*
D12*
%TO.C,REF\u002A\u002A*%
G36*
X120897072Y-116953091D02*
G01*
X120886207Y-117067030D01*
X120854590Y-117174653D01*
X120803687Y-117273652D01*
X120734965Y-117361721D01*
X120649891Y-117436553D01*
X120552904Y-117494421D01*
X120446636Y-117534042D01*
X120339622Y-117552610D01*
X120233972Y-117551471D01*
X120131797Y-117531967D01*
X120035206Y-117495443D01*
X119946310Y-117443242D01*
X119867218Y-117376710D01*
X119800041Y-117297189D01*
X119746889Y-117206024D01*
X119709871Y-117104560D01*
X119691099Y-116994139D01*
X119689161Y-116944243D01*
X119689161Y-116856304D01*
X119637232Y-116856304D01*
X119600925Y-116859148D01*
X119574027Y-116870948D01*
X119546921Y-116894686D01*
X119508539Y-116933068D01*
X119508539Y-119124639D01*
X119508548Y-119386776D01*
X119508580Y-119627278D01*
X119508644Y-119847085D01*
X119508748Y-120047138D01*
X119508899Y-120228381D01*
X119509106Y-120391753D01*
X119509378Y-120538197D01*
X119509722Y-120668654D01*
X119510146Y-120784066D01*
X119510659Y-120885375D01*
X119511269Y-120973521D01*
X119511984Y-121049447D01*
X119512812Y-121114094D01*
X119513761Y-121168404D01*
X119514839Y-121213317D01*
X119516055Y-121249777D01*
X119517417Y-121278724D01*
X119518933Y-121301100D01*
X119520610Y-121317846D01*
X119522458Y-121329905D01*
X119524485Y-121338217D01*
X119526697Y-121343724D01*
X119527780Y-121345574D01*
X119531943Y-121352586D01*
X119535477Y-121359033D01*
X119539307Y-121364937D01*
X119544354Y-121370323D01*
X119551543Y-121375215D01*
X119561795Y-121379635D01*
X119576036Y-121383609D01*
X119595186Y-121387158D01*
X119620171Y-121390307D01*
X119651912Y-121393079D01*
X119691334Y-121395498D01*
X119739358Y-121397588D01*
X119796909Y-121399372D01*
X119864909Y-121400874D01*
X119944282Y-121402117D01*
X120035951Y-121403126D01*
X120140838Y-121403922D01*
X120259868Y-121404531D01*
X120393962Y-121404976D01*
X120544045Y-121405280D01*
X120711039Y-121405467D01*
X120895868Y-121405561D01*
X121099455Y-121405585D01*
X121322722Y-121405562D01*
X121566594Y-121405517D01*
X121831993Y-121405474D01*
X121870376Y-121405469D01*
X122137354Y-121405426D01*
X122382674Y-121405355D01*
X122607255Y-121405250D01*
X122812017Y-121405103D01*
X122997878Y-121404906D01*
X123165760Y-121404653D01*
X123316580Y-121404337D01*
X123451259Y-121403950D01*
X123570716Y-121403484D01*
X123675871Y-121402934D01*
X123767643Y-121402290D01*
X123846951Y-121401548D01*
X123914715Y-121400698D01*
X123971854Y-121399734D01*
X124019289Y-121398648D01*
X124057938Y-121397434D01*
X124088721Y-121396084D01*
X124112557Y-121394592D01*
X124130366Y-121392948D01*
X124143067Y-121391148D01*
X124151580Y-121389182D01*
X124155938Y-121387514D01*
X124164400Y-121383943D01*
X124172169Y-121381307D01*
X124179274Y-121378671D01*
X124185745Y-121375099D01*
X124191611Y-121369658D01*
X124196901Y-121361412D01*
X124201646Y-121349427D01*
X124205874Y-121332768D01*
X124209615Y-121310500D01*
X124212899Y-121281689D01*
X124215755Y-121245400D01*
X124218212Y-121200698D01*
X124220301Y-121146648D01*
X124222050Y-121082316D01*
X124223489Y-121006767D01*
X124224648Y-120919067D01*
X124225555Y-120818280D01*
X124226241Y-120703471D01*
X124226735Y-120573707D01*
X124227067Y-120428052D01*
X124227265Y-120265572D01*
X124227359Y-120085332D01*
X124227380Y-119886397D01*
X124227357Y-119667833D01*
X124227318Y-119428705D01*
X124227294Y-119168077D01*
X124227294Y-119125926D01*
X124227308Y-118863029D01*
X124227333Y-118621769D01*
X124227343Y-118401202D01*
X124227314Y-118200389D01*
X124227220Y-118018386D01*
X124227034Y-117854253D01*
X124226731Y-117707048D01*
X124226286Y-117575829D01*
X124225706Y-117465904D01*
X123922869Y-117465904D01*
X123883079Y-117523748D01*
X123871908Y-117539516D01*
X123861838Y-117553478D01*
X123852810Y-117566821D01*
X123844769Y-117580730D01*
X123837658Y-117596393D01*
X123831419Y-117614995D01*
X123825997Y-117637723D01*
X123821334Y-117665764D01*
X123817373Y-117700304D01*
X123814057Y-117742529D01*
X123811331Y-117793626D01*
X123809136Y-117854781D01*
X123807417Y-117927181D01*
X123806116Y-118012012D01*
X123805177Y-118110459D01*
X123804542Y-118223711D01*
X123804156Y-118352953D01*
X123803960Y-118499371D01*
X123803899Y-118664153D01*
X123803915Y-118848484D01*
X123803952Y-119053550D01*
X123803961Y-119176170D01*
X123803937Y-119393119D01*
X123803903Y-119588679D01*
X123803915Y-119764036D01*
X123804030Y-119920378D01*
X123804302Y-120058894D01*
X123804790Y-120180771D01*
X123805548Y-120287197D01*
X123806634Y-120379359D01*
X123808103Y-120458446D01*
X123810012Y-120525645D01*
X123812416Y-120582144D01*
X123815373Y-120629130D01*
X123818938Y-120667792D01*
X123823167Y-120699317D01*
X123828118Y-120724892D01*
X123833845Y-120745707D01*
X123840405Y-120762948D01*
X123847855Y-120777802D01*
X123856251Y-120791459D01*
X123865648Y-120805106D01*
X123876104Y-120819930D01*
X123882195Y-120828820D01*
X123920968Y-120886437D01*
X123389404Y-120886437D01*
X123266155Y-120886402D01*
X123163659Y-120886252D01*
X123080092Y-120885915D01*
X123013628Y-120885323D01*
X122962443Y-120884404D01*
X122924713Y-120883088D01*
X122898612Y-120881306D01*
X122882316Y-120878988D01*
X122874000Y-120876063D01*
X122871840Y-120872461D01*
X122874011Y-120868112D01*
X122875207Y-120866682D01*
X122900357Y-120829610D01*
X122926255Y-120776809D01*
X122949864Y-120714807D01*
X122958133Y-120688394D01*
X122962750Y-120670453D01*
X122966651Y-120649392D01*
X122969920Y-120623126D01*
X122972638Y-120589569D01*
X122974887Y-120546636D01*
X122976749Y-120492241D01*
X122978308Y-120424299D01*
X122979644Y-120340725D01*
X122980841Y-120239432D01*
X122981980Y-120118337D01*
X122982357Y-120073637D01*
X122983374Y-119948486D01*
X122984132Y-119844119D01*
X122984575Y-119758744D01*
X122984642Y-119690570D01*
X122984277Y-119637802D01*
X122983420Y-119598651D01*
X122982013Y-119571322D01*
X122979997Y-119554023D01*
X122977315Y-119544963D01*
X122973908Y-119542349D01*
X122969716Y-119544388D01*
X122965243Y-119548704D01*
X122954888Y-119561639D01*
X122932830Y-119590713D01*
X122900629Y-119633796D01*
X122859846Y-119688755D01*
X122812042Y-119753460D01*
X122758777Y-119825779D01*
X122701612Y-119903581D01*
X122642109Y-119984735D01*
X122581827Y-120067109D01*
X122522327Y-120148573D01*
X122465170Y-120226994D01*
X122411917Y-120300241D01*
X122364129Y-120366184D01*
X122323365Y-120422691D01*
X122291188Y-120467630D01*
X122269157Y-120498871D01*
X122264589Y-120505503D01*
X122241668Y-120542406D01*
X122214860Y-120590396D01*
X122189461Y-120639934D01*
X122186240Y-120646614D01*
X122164562Y-120694809D01*
X122151976Y-120732371D01*
X122146246Y-120768197D01*
X122145128Y-120810237D01*
X122145762Y-120886437D01*
X120991323Y-120886437D01*
X121082487Y-120792706D01*
X121129284Y-120742812D01*
X121179571Y-120686332D01*
X121225616Y-120632063D01*
X121246041Y-120606710D01*
X121276479Y-120567165D01*
X121316534Y-120513953D01*
X121365033Y-120448704D01*
X121420807Y-120373048D01*
X121482683Y-120288614D01*
X121549491Y-120197031D01*
X121620059Y-120099929D01*
X121693217Y-119998938D01*
X121767793Y-119895687D01*
X121842616Y-119791805D01*
X121916515Y-119688922D01*
X121988318Y-119588668D01*
X122056856Y-119492673D01*
X122120956Y-119402564D01*
X122179447Y-119319973D01*
X122231158Y-119246529D01*
X122274919Y-119183861D01*
X122309557Y-119133598D01*
X122333902Y-119097371D01*
X122346783Y-119076808D01*
X122348541Y-119072705D01*
X122340582Y-119061379D01*
X122319787Y-119034199D01*
X122287519Y-118992866D01*
X122245142Y-118939081D01*
X122194019Y-118874543D01*
X122135513Y-118800955D01*
X122070986Y-118720015D01*
X122001803Y-118633425D01*
X121929325Y-118542885D01*
X121854918Y-118450097D01*
X121795189Y-118375739D01*
X120784183Y-118375739D01*
X120778274Y-118388696D01*
X120763944Y-118410945D01*
X120762897Y-118412428D01*
X120744110Y-118442581D01*
X120724463Y-118479412D01*
X120720564Y-118487548D01*
X120717028Y-118495977D01*
X120713902Y-118506096D01*
X120711158Y-118519297D01*
X120708764Y-118536975D01*
X120706691Y-118560521D01*
X120704907Y-118591330D01*
X120703384Y-118630794D01*
X120702091Y-118680306D01*
X120700998Y-118741260D01*
X120700075Y-118815048D01*
X120699291Y-118903065D01*
X120698617Y-119006702D01*
X120698022Y-119127353D01*
X120697477Y-119266411D01*
X120696951Y-119425269D01*
X120696417Y-119604126D01*
X120695878Y-119789244D01*
X120695444Y-119953182D01*
X120695181Y-120097340D01*
X120695156Y-120223116D01*
X120695437Y-120331908D01*
X120696091Y-120425114D01*
X120697186Y-120504134D01*
X120698790Y-120570365D01*
X120700969Y-120625207D01*
X120703791Y-120670058D01*
X120707323Y-120706315D01*
X120711633Y-120735378D01*
X120716789Y-120758646D01*
X120722857Y-120777516D01*
X120729905Y-120793388D01*
X120738001Y-120807659D01*
X120747212Y-120821728D01*
X120755712Y-120834195D01*
X120772848Y-120860489D01*
X120782994Y-120878074D01*
X120784183Y-120881294D01*
X120773276Y-120882371D01*
X120742083Y-120883372D01*
X120692895Y-120884272D01*
X120628005Y-120885047D01*
X120549702Y-120885674D01*
X120460279Y-120886128D01*
X120362028Y-120886386D01*
X120293117Y-120886437D01*
X120188124Y-120886217D01*
X120091282Y-120885585D01*
X120004779Y-120884586D01*
X119930804Y-120883264D01*
X119871546Y-120881663D01*
X119829192Y-120879828D01*
X119805932Y-120877802D01*
X119802050Y-120876530D01*
X119809748Y-120861628D01*
X119817746Y-120853597D01*
X119830918Y-120836471D01*
X119848157Y-120806220D01*
X119860079Y-120781659D01*
X119886717Y-120722748D01*
X119889792Y-119545882D01*
X119892867Y-118369015D01*
X120338525Y-118369015D01*
X120436342Y-118369179D01*
X120526736Y-118369648D01*
X120607302Y-118370384D01*
X120675634Y-118371353D01*
X120729328Y-118372517D01*
X120765977Y-118373840D01*
X120783176Y-118375286D01*
X120784183Y-118375739D01*
X121795189Y-118375739D01*
X121779942Y-118356759D01*
X121705762Y-118264574D01*
X121633741Y-118175241D01*
X121565241Y-118090461D01*
X121501627Y-118011935D01*
X121444260Y-117941363D01*
X121394505Y-117880446D01*
X121353724Y-117830884D01*
X121336560Y-117810215D01*
X121250268Y-117709553D01*
X121173669Y-117626296D01*
X121104855Y-117558475D01*
X121041920Y-117504126D01*
X121032539Y-117496759D01*
X120993028Y-117466154D01*
X122124788Y-117465904D01*
X122119499Y-117513881D01*
X122122802Y-117571225D01*
X122144333Y-117639500D01*
X122184307Y-117719249D01*
X122229615Y-117791532D01*
X122245833Y-117814177D01*
X122273886Y-117851733D01*
X122312102Y-117902058D01*
X122358809Y-117963010D01*
X122412333Y-118032448D01*
X122471003Y-118108231D01*
X122533147Y-118188217D01*
X122597093Y-118270265D01*
X122661167Y-118352233D01*
X122723699Y-118431980D01*
X122783015Y-118507364D01*
X122837443Y-118576244D01*
X122885311Y-118636479D01*
X122924947Y-118685926D01*
X122954678Y-118722445D01*
X122972833Y-118743895D01*
X122975892Y-118747193D01*
X122978751Y-118739186D01*
X122980965Y-118708892D01*
X122982529Y-118656593D01*
X122983439Y-118582568D01*
X122983692Y-118487100D01*
X122983285Y-118370471D01*
X122982376Y-118250482D01*
X122981054Y-118118370D01*
X122979529Y-118006631D01*
X122977553Y-117913062D01*
X122974878Y-117835456D01*
X122971254Y-117771611D01*
X122966433Y-117719320D01*
X122960166Y-117676381D01*
X122952204Y-117640588D01*
X122942299Y-117609737D01*
X122930203Y-117581623D01*
X122915665Y-117554042D01*
X122900983Y-117529003D01*
X122862986Y-117465904D01*
X123922869Y-117465904D01*
X124225706Y-117465904D01*
X124225673Y-117459654D01*
X124224867Y-117357581D01*
X124223842Y-117268670D01*
X124222572Y-117191978D01*
X124221032Y-117126564D01*
X124219196Y-117071486D01*
X124217039Y-117025802D01*
X124214535Y-116988571D01*
X124211659Y-116958850D01*
X124208385Y-116935699D01*
X124204687Y-116918176D01*
X124200541Y-116905338D01*
X124195919Y-116896245D01*
X124190798Y-116889955D01*
X124185150Y-116885525D01*
X124178951Y-116882015D01*
X124172176Y-116878482D01*
X124166180Y-116874913D01*
X124160947Y-116872337D01*
X124152771Y-116870009D01*
X124140558Y-116867915D01*
X124123213Y-116866044D01*
X124099641Y-116864384D01*
X124068749Y-116862921D01*
X124029440Y-116861645D01*
X123980622Y-116860541D01*
X123921199Y-116859598D01*
X123850076Y-116858804D01*
X123766160Y-116858146D01*
X123668355Y-116857612D01*
X123555566Y-116857190D01*
X123426701Y-116856866D01*
X123280663Y-116856629D01*
X123116358Y-116856467D01*
X122932692Y-116856367D01*
X122728569Y-116856317D01*
X122517425Y-116856304D01*
X120897072Y-116856304D01*
X120897072Y-116953091D01*
G37*
X120897072Y-116953091D02*
X120886207Y-117067030D01*
X120854590Y-117174653D01*
X120803687Y-117273652D01*
X120734965Y-117361721D01*
X120649891Y-117436553D01*
X120552904Y-117494421D01*
X120446636Y-117534042D01*
X120339622Y-117552610D01*
X120233972Y-117551471D01*
X120131797Y-117531967D01*
X120035206Y-117495443D01*
X119946310Y-117443242D01*
X119867218Y-117376710D01*
X119800041Y-117297189D01*
X119746889Y-117206024D01*
X119709871Y-117104560D01*
X119691099Y-116994139D01*
X119689161Y-116944243D01*
X119689161Y-116856304D01*
X119637232Y-116856304D01*
X119600925Y-116859148D01*
X119574027Y-116870948D01*
X119546921Y-116894686D01*
X119508539Y-116933068D01*
X119508539Y-119124639D01*
X119508548Y-119386776D01*
X119508580Y-119627278D01*
X119508644Y-119847085D01*
X119508748Y-120047138D01*
X119508899Y-120228381D01*
X119509106Y-120391753D01*
X119509378Y-120538197D01*
X119509722Y-120668654D01*
X119510146Y-120784066D01*
X119510659Y-120885375D01*
X119511269Y-120973521D01*
X119511984Y-121049447D01*
X119512812Y-121114094D01*
X119513761Y-121168404D01*
X119514839Y-121213317D01*
X119516055Y-121249777D01*
X119517417Y-121278724D01*
X119518933Y-121301100D01*
X119520610Y-121317846D01*
X119522458Y-121329905D01*
X119524485Y-121338217D01*
X119526697Y-121343724D01*
X119527780Y-121345574D01*
X119531943Y-121352586D01*
X119535477Y-121359033D01*
X119539307Y-121364937D01*
X119544354Y-121370323D01*
X119551543Y-121375215D01*
X119561795Y-121379635D01*
X119576036Y-121383609D01*
X119595186Y-121387158D01*
X119620171Y-121390307D01*
X119651912Y-121393079D01*
X119691334Y-121395498D01*
X119739358Y-121397588D01*
X119796909Y-121399372D01*
X119864909Y-121400874D01*
X119944282Y-121402117D01*
X120035951Y-121403126D01*
X120140838Y-121403922D01*
X120259868Y-121404531D01*
X120393962Y-121404976D01*
X120544045Y-121405280D01*
X120711039Y-121405467D01*
X120895868Y-121405561D01*
X121099455Y-121405585D01*
X121322722Y-121405562D01*
X121566594Y-121405517D01*
X121831993Y-121405474D01*
X121870376Y-121405469D01*
X122137354Y-121405426D01*
X122382674Y-121405355D01*
X122607255Y-121405250D01*
X122812017Y-121405103D01*
X122997878Y-121404906D01*
X123165760Y-121404653D01*
X123316580Y-121404337D01*
X123451259Y-121403950D01*
X123570716Y-121403484D01*
X123675871Y-121402934D01*
X123767643Y-121402290D01*
X123846951Y-121401548D01*
X123914715Y-121400698D01*
X123971854Y-121399734D01*
X124019289Y-121398648D01*
X124057938Y-121397434D01*
X124088721Y-121396084D01*
X124112557Y-121394592D01*
X124130366Y-121392948D01*
X124143067Y-121391148D01*
X124151580Y-121389182D01*
X124155938Y-121387514D01*
X124164400Y-121383943D01*
X124172169Y-121381307D01*
X124179274Y-121378671D01*
X124185745Y-121375099D01*
X124191611Y-121369658D01*
X124196901Y-121361412D01*
X124201646Y-121349427D01*
X124205874Y-121332768D01*
X124209615Y-121310500D01*
X124212899Y-121281689D01*
X124215755Y-121245400D01*
X124218212Y-121200698D01*
X124220301Y-121146648D01*
X124222050Y-121082316D01*
X124223489Y-121006767D01*
X124224648Y-120919067D01*
X124225555Y-120818280D01*
X124226241Y-120703471D01*
X124226735Y-120573707D01*
X124227067Y-120428052D01*
X124227265Y-120265572D01*
X124227359Y-120085332D01*
X124227380Y-119886397D01*
X124227357Y-119667833D01*
X124227318Y-119428705D01*
X124227294Y-119168077D01*
X124227294Y-119125926D01*
X124227308Y-118863029D01*
X124227333Y-118621769D01*
X124227343Y-118401202D01*
X124227314Y-118200389D01*
X124227220Y-118018386D01*
X124227034Y-117854253D01*
X124226731Y-117707048D01*
X124226286Y-117575829D01*
X124225706Y-117465904D01*
X123922869Y-117465904D01*
X123883079Y-117523748D01*
X123871908Y-117539516D01*
X123861838Y-117553478D01*
X123852810Y-117566821D01*
X123844769Y-117580730D01*
X123837658Y-117596393D01*
X123831419Y-117614995D01*
X123825997Y-117637723D01*
X123821334Y-117665764D01*
X123817373Y-117700304D01*
X123814057Y-117742529D01*
X123811331Y-117793626D01*
X123809136Y-117854781D01*
X123807417Y-117927181D01*
X123806116Y-118012012D01*
X123805177Y-118110459D01*
X123804542Y-118223711D01*
X123804156Y-118352953D01*
X123803960Y-118499371D01*
X123803899Y-118664153D01*
X123803915Y-118848484D01*
X123803952Y-119053550D01*
X123803961Y-119176170D01*
X123803937Y-119393119D01*
X123803903Y-119588679D01*
X123803915Y-119764036D01*
X123804030Y-119920378D01*
X123804302Y-120058894D01*
X123804790Y-120180771D01*
X123805548Y-120287197D01*
X123806634Y-120379359D01*
X123808103Y-120458446D01*
X123810012Y-120525645D01*
X123812416Y-120582144D01*
X123815373Y-120629130D01*
X123818938Y-120667792D01*
X123823167Y-120699317D01*
X123828118Y-120724892D01*
X123833845Y-120745707D01*
X123840405Y-120762948D01*
X123847855Y-120777802D01*
X123856251Y-120791459D01*
X123865648Y-120805106D01*
X123876104Y-120819930D01*
X123882195Y-120828820D01*
X123920968Y-120886437D01*
X123389404Y-120886437D01*
X123266155Y-120886402D01*
X123163659Y-120886252D01*
X123080092Y-120885915D01*
X123013628Y-120885323D01*
X122962443Y-120884404D01*
X122924713Y-120883088D01*
X122898612Y-120881306D01*
X122882316Y-120878988D01*
X122874000Y-120876063D01*
X122871840Y-120872461D01*
X122874011Y-120868112D01*
X122875207Y-120866682D01*
X122900357Y-120829610D01*
X122926255Y-120776809D01*
X122949864Y-120714807D01*
X122958133Y-120688394D01*
X122962750Y-120670453D01*
X122966651Y-120649392D01*
X122969920Y-120623126D01*
X122972638Y-120589569D01*
X122974887Y-120546636D01*
X122976749Y-120492241D01*
X122978308Y-120424299D01*
X122979644Y-120340725D01*
X122980841Y-120239432D01*
X122981980Y-120118337D01*
X122982357Y-120073637D01*
X122983374Y-119948486D01*
X122984132Y-119844119D01*
X122984575Y-119758744D01*
X122984642Y-119690570D01*
X122984277Y-119637802D01*
X122983420Y-119598651D01*
X122982013Y-119571322D01*
X122979997Y-119554023D01*
X122977315Y-119544963D01*
X122973908Y-119542349D01*
X122969716Y-119544388D01*
X122965243Y-119548704D01*
X122954888Y-119561639D01*
X122932830Y-119590713D01*
X122900629Y-119633796D01*
X122859846Y-119688755D01*
X122812042Y-119753460D01*
X122758777Y-119825779D01*
X122701612Y-119903581D01*
X122642109Y-119984735D01*
X122581827Y-120067109D01*
X122522327Y-120148573D01*
X122465170Y-120226994D01*
X122411917Y-120300241D01*
X122364129Y-120366184D01*
X122323365Y-120422691D01*
X122291188Y-120467630D01*
X122269157Y-120498871D01*
X122264589Y-120505503D01*
X122241668Y-120542406D01*
X122214860Y-120590396D01*
X122189461Y-120639934D01*
X122186240Y-120646614D01*
X122164562Y-120694809D01*
X122151976Y-120732371D01*
X122146246Y-120768197D01*
X122145128Y-120810237D01*
X122145762Y-120886437D01*
X120991323Y-120886437D01*
X121082487Y-120792706D01*
X121129284Y-120742812D01*
X121179571Y-120686332D01*
X121225616Y-120632063D01*
X121246041Y-120606710D01*
X121276479Y-120567165D01*
X121316534Y-120513953D01*
X121365033Y-120448704D01*
X121420807Y-120373048D01*
X121482683Y-120288614D01*
X121549491Y-120197031D01*
X121620059Y-120099929D01*
X121693217Y-119998938D01*
X121767793Y-119895687D01*
X121842616Y-119791805D01*
X121916515Y-119688922D01*
X121988318Y-119588668D01*
X122056856Y-119492673D01*
X122120956Y-119402564D01*
X122179447Y-119319973D01*
X122231158Y-119246529D01*
X122274919Y-119183861D01*
X122309557Y-119133598D01*
X122333902Y-119097371D01*
X122346783Y-119076808D01*
X122348541Y-119072705D01*
X122340582Y-119061379D01*
X122319787Y-119034199D01*
X122287519Y-118992866D01*
X122245142Y-118939081D01*
X122194019Y-118874543D01*
X122135513Y-118800955D01*
X122070986Y-118720015D01*
X122001803Y-118633425D01*
X121929325Y-118542885D01*
X121854918Y-118450097D01*
X121795189Y-118375739D01*
X120784183Y-118375739D01*
X120778274Y-118388696D01*
X120763944Y-118410945D01*
X120762897Y-118412428D01*
X120744110Y-118442581D01*
X120724463Y-118479412D01*
X120720564Y-118487548D01*
X120717028Y-118495977D01*
X120713902Y-118506096D01*
X120711158Y-118519297D01*
X120708764Y-118536975D01*
X120706691Y-118560521D01*
X120704907Y-118591330D01*
X120703384Y-118630794D01*
X120702091Y-118680306D01*
X120700998Y-118741260D01*
X120700075Y-118815048D01*
X120699291Y-118903065D01*
X120698617Y-119006702D01*
X120698022Y-119127353D01*
X120697477Y-119266411D01*
X120696951Y-119425269D01*
X120696417Y-119604126D01*
X120695878Y-119789244D01*
X120695444Y-119953182D01*
X120695181Y-120097340D01*
X120695156Y-120223116D01*
X120695437Y-120331908D01*
X120696091Y-120425114D01*
X120697186Y-120504134D01*
X120698790Y-120570365D01*
X120700969Y-120625207D01*
X120703791Y-120670058D01*
X120707323Y-120706315D01*
X120711633Y-120735378D01*
X120716789Y-120758646D01*
X120722857Y-120777516D01*
X120729905Y-120793388D01*
X120738001Y-120807659D01*
X120747212Y-120821728D01*
X120755712Y-120834195D01*
X120772848Y-120860489D01*
X120782994Y-120878074D01*
X120784183Y-120881294D01*
X120773276Y-120882371D01*
X120742083Y-120883372D01*
X120692895Y-120884272D01*
X120628005Y-120885047D01*
X120549702Y-120885674D01*
X120460279Y-120886128D01*
X120362028Y-120886386D01*
X120293117Y-120886437D01*
X120188124Y-120886217D01*
X120091282Y-120885585D01*
X120004779Y-120884586D01*
X119930804Y-120883264D01*
X119871546Y-120881663D01*
X119829192Y-120879828D01*
X119805932Y-120877802D01*
X119802050Y-120876530D01*
X119809748Y-120861628D01*
X119817746Y-120853597D01*
X119830918Y-120836471D01*
X119848157Y-120806220D01*
X119860079Y-120781659D01*
X119886717Y-120722748D01*
X119889792Y-119545882D01*
X119892867Y-118369015D01*
X120338525Y-118369015D01*
X120436342Y-118369179D01*
X120526736Y-118369648D01*
X120607302Y-118370384D01*
X120675634Y-118371353D01*
X120729328Y-118372517D01*
X120765977Y-118373840D01*
X120783176Y-118375286D01*
X120784183Y-118375739D01*
X121795189Y-118375739D01*
X121779942Y-118356759D01*
X121705762Y-118264574D01*
X121633741Y-118175241D01*
X121565241Y-118090461D01*
X121501627Y-118011935D01*
X121444260Y-117941363D01*
X121394505Y-117880446D01*
X121353724Y-117830884D01*
X121336560Y-117810215D01*
X121250268Y-117709553D01*
X121173669Y-117626296D01*
X121104855Y-117558475D01*
X121041920Y-117504126D01*
X121032539Y-117496759D01*
X120993028Y-117466154D01*
X122124788Y-117465904D01*
X122119499Y-117513881D01*
X122122802Y-117571225D01*
X122144333Y-117639500D01*
X122184307Y-117719249D01*
X122229615Y-117791532D01*
X122245833Y-117814177D01*
X122273886Y-117851733D01*
X122312102Y-117902058D01*
X122358809Y-117963010D01*
X122412333Y-118032448D01*
X122471003Y-118108231D01*
X122533147Y-118188217D01*
X122597093Y-118270265D01*
X122661167Y-118352233D01*
X122723699Y-118431980D01*
X122783015Y-118507364D01*
X122837443Y-118576244D01*
X122885311Y-118636479D01*
X122924947Y-118685926D01*
X122954678Y-118722445D01*
X122972833Y-118743895D01*
X122975892Y-118747193D01*
X122978751Y-118739186D01*
X122980965Y-118708892D01*
X122982529Y-118656593D01*
X122983439Y-118582568D01*
X122983692Y-118487100D01*
X122983285Y-118370471D01*
X122982376Y-118250482D01*
X122981054Y-118118370D01*
X122979529Y-118006631D01*
X122977553Y-117913062D01*
X122974878Y-117835456D01*
X122971254Y-117771611D01*
X122966433Y-117719320D01*
X122960166Y-117676381D01*
X122952204Y-117640588D01*
X122942299Y-117609737D01*
X122930203Y-117581623D01*
X122915665Y-117554042D01*
X122900983Y-117529003D01*
X122862986Y-117465904D01*
X123922869Y-117465904D01*
X124225706Y-117465904D01*
X124225673Y-117459654D01*
X124224867Y-117357581D01*
X124223842Y-117268670D01*
X124222572Y-117191978D01*
X124221032Y-117126564D01*
X124219196Y-117071486D01*
X124217039Y-117025802D01*
X124214535Y-116988571D01*
X124211659Y-116958850D01*
X124208385Y-116935699D01*
X124204687Y-116918176D01*
X124200541Y-116905338D01*
X124195919Y-116896245D01*
X124190798Y-116889955D01*
X124185150Y-116885525D01*
X124178951Y-116882015D01*
X124172176Y-116878482D01*
X124166180Y-116874913D01*
X124160947Y-116872337D01*
X124152771Y-116870009D01*
X124140558Y-116867915D01*
X124123213Y-116866044D01*
X124099641Y-116864384D01*
X124068749Y-116862921D01*
X124029440Y-116861645D01*
X123980622Y-116860541D01*
X123921199Y-116859598D01*
X123850076Y-116858804D01*
X123766160Y-116858146D01*
X123668355Y-116857612D01*
X123555566Y-116857190D01*
X123426701Y-116856866D01*
X123280663Y-116856629D01*
X123116358Y-116856467D01*
X122932692Y-116856367D01*
X122728569Y-116856317D01*
X122517425Y-116856304D01*
X120897072Y-116856304D01*
X120897072Y-116953091D01*
G36*
X117622243Y-117413108D02*
G01*
X117462102Y-117434282D01*
X117298162Y-117474422D01*
X117128359Y-117533926D01*
X116950629Y-117613191D01*
X116939362Y-117618736D01*
X116881667Y-117646762D01*
X116830120Y-117670839D01*
X116788481Y-117689286D01*
X116760510Y-117700423D01*
X116750939Y-117702970D01*
X116731722Y-117707978D01*
X116727111Y-117712184D01*
X116732214Y-117722617D01*
X116748254Y-117748905D01*
X116773384Y-117788294D01*
X116805758Y-117838028D01*
X116843529Y-117895352D01*
X116884850Y-117957513D01*
X116927874Y-118021755D01*
X116970755Y-118085322D01*
X117011646Y-118145462D01*
X117048701Y-118199417D01*
X117080072Y-118244434D01*
X117103913Y-118277758D01*
X117118378Y-118296634D01*
X117120363Y-118298824D01*
X117130481Y-118294175D01*
X117152822Y-118276999D01*
X117183392Y-118250477D01*
X117199136Y-118236001D01*
X117295625Y-118160719D01*
X117402336Y-118105278D01*
X117517840Y-118070178D01*
X117640710Y-118055917D01*
X117710111Y-118057088D01*
X117831249Y-118074249D01*
X117940467Y-118110131D01*
X118038090Y-118164996D01*
X118124444Y-118239107D01*
X118199857Y-118332725D01*
X118264654Y-118446113D01*
X118302071Y-118532704D01*
X118345924Y-118668403D01*
X118378244Y-118815887D01*
X118399115Y-118971351D01*
X118408621Y-119130993D01*
X118406845Y-119291010D01*
X118393869Y-119447598D01*
X118369778Y-119596955D01*
X118334654Y-119735277D01*
X118288580Y-119858761D01*
X118272299Y-119893015D01*
X118204052Y-120007101D01*
X118123593Y-120103594D01*
X118032102Y-120181707D01*
X117930761Y-120240654D01*
X117820752Y-120279649D01*
X117703257Y-120297905D01*
X117661789Y-120299248D01*
X117540231Y-120288327D01*
X117419794Y-120255511D01*
X117302006Y-120201476D01*
X117188395Y-120126902D01*
X117096987Y-120048576D01*
X117050457Y-120004045D01*
X116869189Y-120301308D01*
X116824092Y-120375470D01*
X116782853Y-120443683D01*
X116746937Y-120503496D01*
X116717806Y-120552457D01*
X116696922Y-120588116D01*
X116685748Y-120608021D01*
X116684297Y-120611116D01*
X116692526Y-120620755D01*
X116718105Y-120638036D01*
X116757799Y-120661320D01*
X116808375Y-120688971D01*
X116866598Y-120719352D01*
X116929235Y-120750827D01*
X116993051Y-120781759D01*
X117054812Y-120810510D01*
X117111284Y-120835445D01*
X117159234Y-120854926D01*
X117182686Y-120863355D01*
X117316451Y-120901170D01*
X117454345Y-120926173D01*
X117602050Y-120939177D01*
X117728839Y-120941505D01*
X117796794Y-120940410D01*
X117862395Y-120938312D01*
X117919825Y-120935471D01*
X117963269Y-120932143D01*
X117977374Y-120930459D01*
X118116388Y-120901624D01*
X118257915Y-120856505D01*
X118395397Y-120797787D01*
X118522278Y-120728157D01*
X118599783Y-120675478D01*
X118727191Y-120567276D01*
X118845494Y-120440708D01*
X118952500Y-120298903D01*
X119046020Y-120144988D01*
X119123862Y-119982090D01*
X119167716Y-119864793D01*
X119217964Y-119681165D01*
X119251463Y-119486618D01*
X119268223Y-119285362D01*
X119268256Y-119081605D01*
X119251571Y-118879558D01*
X119218179Y-118683429D01*
X119168092Y-118497428D01*
X119164275Y-118485840D01*
X119101391Y-118323787D01*
X119024644Y-118175869D01*
X118931430Y-118037902D01*
X118819145Y-117905698D01*
X118775280Y-117860436D01*
X118639138Y-117736494D01*
X118499181Y-117633952D01*
X118353261Y-117551693D01*
X118199230Y-117488601D01*
X118034940Y-117443560D01*
X117939383Y-117426070D01*
X117780649Y-117410503D01*
X117622243Y-117413108D01*
G37*
X117622243Y-117413108D02*
X117462102Y-117434282D01*
X117298162Y-117474422D01*
X117128359Y-117533926D01*
X116950629Y-117613191D01*
X116939362Y-117618736D01*
X116881667Y-117646762D01*
X116830120Y-117670839D01*
X116788481Y-117689286D01*
X116760510Y-117700423D01*
X116750939Y-117702970D01*
X116731722Y-117707978D01*
X116727111Y-117712184D01*
X116732214Y-117722617D01*
X116748254Y-117748905D01*
X116773384Y-117788294D01*
X116805758Y-117838028D01*
X116843529Y-117895352D01*
X116884850Y-117957513D01*
X116927874Y-118021755D01*
X116970755Y-118085322D01*
X117011646Y-118145462D01*
X117048701Y-118199417D01*
X117080072Y-118244434D01*
X117103913Y-118277758D01*
X117118378Y-118296634D01*
X117120363Y-118298824D01*
X117130481Y-118294175D01*
X117152822Y-118276999D01*
X117183392Y-118250477D01*
X117199136Y-118236001D01*
X117295625Y-118160719D01*
X117402336Y-118105278D01*
X117517840Y-118070178D01*
X117640710Y-118055917D01*
X117710111Y-118057088D01*
X117831249Y-118074249D01*
X117940467Y-118110131D01*
X118038090Y-118164996D01*
X118124444Y-118239107D01*
X118199857Y-118332725D01*
X118264654Y-118446113D01*
X118302071Y-118532704D01*
X118345924Y-118668403D01*
X118378244Y-118815887D01*
X118399115Y-118971351D01*
X118408621Y-119130993D01*
X118406845Y-119291010D01*
X118393869Y-119447598D01*
X118369778Y-119596955D01*
X118334654Y-119735277D01*
X118288580Y-119858761D01*
X118272299Y-119893015D01*
X118204052Y-120007101D01*
X118123593Y-120103594D01*
X118032102Y-120181707D01*
X117930761Y-120240654D01*
X117820752Y-120279649D01*
X117703257Y-120297905D01*
X117661789Y-120299248D01*
X117540231Y-120288327D01*
X117419794Y-120255511D01*
X117302006Y-120201476D01*
X117188395Y-120126902D01*
X117096987Y-120048576D01*
X117050457Y-120004045D01*
X116869189Y-120301308D01*
X116824092Y-120375470D01*
X116782853Y-120443683D01*
X116746937Y-120503496D01*
X116717806Y-120552457D01*
X116696922Y-120588116D01*
X116685748Y-120608021D01*
X116684297Y-120611116D01*
X116692526Y-120620755D01*
X116718105Y-120638036D01*
X116757799Y-120661320D01*
X116808375Y-120688971D01*
X116866598Y-120719352D01*
X116929235Y-120750827D01*
X116993051Y-120781759D01*
X117054812Y-120810510D01*
X117111284Y-120835445D01*
X117159234Y-120854926D01*
X117182686Y-120863355D01*
X117316451Y-120901170D01*
X117454345Y-120926173D01*
X117602050Y-120939177D01*
X117728839Y-120941505D01*
X117796794Y-120940410D01*
X117862395Y-120938312D01*
X117919825Y-120935471D01*
X117963269Y-120932143D01*
X117977374Y-120930459D01*
X118116388Y-120901624D01*
X118257915Y-120856505D01*
X118395397Y-120797787D01*
X118522278Y-120728157D01*
X118599783Y-120675478D01*
X118727191Y-120567276D01*
X118845494Y-120440708D01*
X118952500Y-120298903D01*
X119046020Y-120144988D01*
X119123862Y-119982090D01*
X119167716Y-119864793D01*
X119217964Y-119681165D01*
X119251463Y-119486618D01*
X119268223Y-119285362D01*
X119268256Y-119081605D01*
X119251571Y-118879558D01*
X119218179Y-118683429D01*
X119168092Y-118497428D01*
X119164275Y-118485840D01*
X119101391Y-118323787D01*
X119024644Y-118175869D01*
X118931430Y-118037902D01*
X118819145Y-117905698D01*
X118775280Y-117860436D01*
X118639138Y-117736494D01*
X118499181Y-117633952D01*
X118353261Y-117551693D01*
X118199230Y-117488601D01*
X118034940Y-117443560D01*
X117939383Y-117426070D01*
X117780649Y-117410503D01*
X117622243Y-117413108D01*
G36*
X115277098Y-118330589D02*
G01*
X115125180Y-118350604D01*
X114989916Y-118384239D01*
X114870433Y-118431762D01*
X114765857Y-118493442D01*
X114688248Y-118557002D01*
X114619407Y-118631136D01*
X114565666Y-118710908D01*
X114522762Y-118803128D01*
X114507288Y-118846198D01*
X114494428Y-118885179D01*
X114483226Y-118921326D01*
X114473552Y-118956471D01*
X114465276Y-118992447D01*
X114458269Y-119031087D01*
X114452400Y-119074222D01*
X114447541Y-119123686D01*
X114443562Y-119181310D01*
X114440332Y-119248928D01*
X114437723Y-119328371D01*
X114435605Y-119421473D01*
X114433848Y-119530064D01*
X114432323Y-119655979D01*
X114430900Y-119801049D01*
X114429647Y-119943815D01*
X114428321Y-120100005D01*
X114427116Y-120235276D01*
X114425906Y-120351283D01*
X114424566Y-120449682D01*
X114422972Y-120532130D01*
X114420997Y-120600283D01*
X114418516Y-120655797D01*
X114415403Y-120700329D01*
X114411534Y-120735535D01*
X114406783Y-120763071D01*
X114401024Y-120784593D01*
X114394133Y-120801759D01*
X114385983Y-120816223D01*
X114376449Y-120829643D01*
X114365406Y-120843675D01*
X114361106Y-120849108D01*
X114345286Y-120871947D01*
X114338250Y-120887500D01*
X114338228Y-120887959D01*
X114349105Y-120890158D01*
X114380090Y-120892184D01*
X114428715Y-120893979D01*
X114492509Y-120895488D01*
X114569003Y-120896653D01*
X114655728Y-120897417D01*
X114750215Y-120897723D01*
X114761122Y-120897726D01*
X115184015Y-120897726D01*
X115187277Y-120801659D01*
X115190539Y-120705593D01*
X115252628Y-120756580D01*
X115349958Y-120824094D01*
X115459859Y-120878786D01*
X115546323Y-120909015D01*
X115615394Y-120923703D01*
X115698747Y-120933696D01*
X115788513Y-120938683D01*
X115876827Y-120938350D01*
X115955821Y-120932388D01*
X115992050Y-120926675D01*
X116132069Y-120888813D01*
X116258494Y-120833969D01*
X116370412Y-120762961D01*
X116466910Y-120676605D01*
X116547072Y-120575716D01*
X116609985Y-120461113D01*
X116654360Y-120335021D01*
X116666694Y-120278438D01*
X116674304Y-120216239D01*
X116677933Y-120141400D01*
X116678427Y-120107504D01*
X116678362Y-120104319D01*
X115918424Y-120104319D01*
X115909131Y-120179370D01*
X115880944Y-120243197D01*
X115832475Y-120298835D01*
X115827418Y-120303248D01*
X115779124Y-120338074D01*
X115727415Y-120360657D01*
X115666683Y-120372577D01*
X115591320Y-120375420D01*
X115573213Y-120375015D01*
X115519394Y-120372362D01*
X115479364Y-120366946D01*
X115444348Y-120356782D01*
X115405569Y-120339887D01*
X115394927Y-120334709D01*
X115334276Y-120298881D01*
X115287457Y-120256249D01*
X115274720Y-120241010D01*
X115230050Y-120184499D01*
X115230050Y-119988623D01*
X115230586Y-119909976D01*
X115232276Y-119852025D01*
X115235244Y-119812912D01*
X115239615Y-119790778D01*
X115243700Y-119784311D01*
X115259625Y-119781148D01*
X115293408Y-119778525D01*
X115340332Y-119776692D01*
X115395679Y-119775894D01*
X115404566Y-119775879D01*
X115525342Y-119781133D01*
X115628012Y-119797300D01*
X115714566Y-119824998D01*
X115786991Y-119864845D01*
X115841921Y-119911795D01*
X115886468Y-119969682D01*
X115911192Y-120032730D01*
X115918424Y-120104319D01*
X116678362Y-120104319D01*
X116676494Y-120013749D01*
X116668150Y-119934849D01*
X116651904Y-119863627D01*
X116626267Y-119792901D01*
X116602271Y-119740530D01*
X116543652Y-119645233D01*
X116465555Y-119557207D01*
X116370357Y-119478054D01*
X116260434Y-119409377D01*
X116138162Y-119352778D01*
X116005917Y-119309858D01*
X115941250Y-119294919D01*
X115805068Y-119272814D01*
X115656623Y-119258231D01*
X115505167Y-119251850D01*
X115378608Y-119253482D01*
X115216722Y-119260261D01*
X115224142Y-119201282D01*
X115243434Y-119102129D01*
X115274568Y-119021409D01*
X115318403Y-118958503D01*
X115375801Y-118912793D01*
X115447624Y-118883659D01*
X115534731Y-118870484D01*
X115637986Y-118872648D01*
X115675961Y-118876649D01*
X115817152Y-118901817D01*
X115953965Y-118942851D01*
X116048494Y-118980852D01*
X116093654Y-119000227D01*
X116132087Y-119015797D01*
X116158438Y-119025442D01*
X116166126Y-119027489D01*
X116175870Y-119018411D01*
X116192589Y-118989442D01*
X116216440Y-118940254D01*
X116247579Y-118870521D01*
X116286165Y-118779916D01*
X116292762Y-118764126D01*
X116322819Y-118691809D01*
X116349798Y-118626462D01*
X116372536Y-118570943D01*
X116389866Y-118528109D01*
X116400624Y-118500818D01*
X116403731Y-118491979D01*
X116393732Y-118487224D01*
X116367455Y-118481947D01*
X116339183Y-118478268D01*
X116309026Y-118473511D01*
X116261239Y-118464065D01*
X116200060Y-118450857D01*
X116129726Y-118434813D01*
X116054478Y-118416857D01*
X116025917Y-118409834D01*
X115920856Y-118384246D01*
X115833192Y-118364184D01*
X115758604Y-118349006D01*
X115692769Y-118338072D01*
X115631365Y-118330741D01*
X115570070Y-118326372D01*
X115504562Y-118324324D01*
X115446544Y-118323926D01*
X115277098Y-118330589D01*
G37*
X115277098Y-118330589D02*
X115125180Y-118350604D01*
X114989916Y-118384239D01*
X114870433Y-118431762D01*
X114765857Y-118493442D01*
X114688248Y-118557002D01*
X114619407Y-118631136D01*
X114565666Y-118710908D01*
X114522762Y-118803128D01*
X114507288Y-118846198D01*
X114494428Y-118885179D01*
X114483226Y-118921326D01*
X114473552Y-118956471D01*
X114465276Y-118992447D01*
X114458269Y-119031087D01*
X114452400Y-119074222D01*
X114447541Y-119123686D01*
X114443562Y-119181310D01*
X114440332Y-119248928D01*
X114437723Y-119328371D01*
X114435605Y-119421473D01*
X114433848Y-119530064D01*
X114432323Y-119655979D01*
X114430900Y-119801049D01*
X114429647Y-119943815D01*
X114428321Y-120100005D01*
X114427116Y-120235276D01*
X114425906Y-120351283D01*
X114424566Y-120449682D01*
X114422972Y-120532130D01*
X114420997Y-120600283D01*
X114418516Y-120655797D01*
X114415403Y-120700329D01*
X114411534Y-120735535D01*
X114406783Y-120763071D01*
X114401024Y-120784593D01*
X114394133Y-120801759D01*
X114385983Y-120816223D01*
X114376449Y-120829643D01*
X114365406Y-120843675D01*
X114361106Y-120849108D01*
X114345286Y-120871947D01*
X114338250Y-120887500D01*
X114338228Y-120887959D01*
X114349105Y-120890158D01*
X114380090Y-120892184D01*
X114428715Y-120893979D01*
X114492509Y-120895488D01*
X114569003Y-120896653D01*
X114655728Y-120897417D01*
X114750215Y-120897723D01*
X114761122Y-120897726D01*
X115184015Y-120897726D01*
X115187277Y-120801659D01*
X115190539Y-120705593D01*
X115252628Y-120756580D01*
X115349958Y-120824094D01*
X115459859Y-120878786D01*
X115546323Y-120909015D01*
X115615394Y-120923703D01*
X115698747Y-120933696D01*
X115788513Y-120938683D01*
X115876827Y-120938350D01*
X115955821Y-120932388D01*
X115992050Y-120926675D01*
X116132069Y-120888813D01*
X116258494Y-120833969D01*
X116370412Y-120762961D01*
X116466910Y-120676605D01*
X116547072Y-120575716D01*
X116609985Y-120461113D01*
X116654360Y-120335021D01*
X116666694Y-120278438D01*
X116674304Y-120216239D01*
X116677933Y-120141400D01*
X116678427Y-120107504D01*
X116678362Y-120104319D01*
X115918424Y-120104319D01*
X115909131Y-120179370D01*
X115880944Y-120243197D01*
X115832475Y-120298835D01*
X115827418Y-120303248D01*
X115779124Y-120338074D01*
X115727415Y-120360657D01*
X115666683Y-120372577D01*
X115591320Y-120375420D01*
X115573213Y-120375015D01*
X115519394Y-120372362D01*
X115479364Y-120366946D01*
X115444348Y-120356782D01*
X115405569Y-120339887D01*
X115394927Y-120334709D01*
X115334276Y-120298881D01*
X115287457Y-120256249D01*
X115274720Y-120241010D01*
X115230050Y-120184499D01*
X115230050Y-119988623D01*
X115230586Y-119909976D01*
X115232276Y-119852025D01*
X115235244Y-119812912D01*
X115239615Y-119790778D01*
X115243700Y-119784311D01*
X115259625Y-119781148D01*
X115293408Y-119778525D01*
X115340332Y-119776692D01*
X115395679Y-119775894D01*
X115404566Y-119775879D01*
X115525342Y-119781133D01*
X115628012Y-119797300D01*
X115714566Y-119824998D01*
X115786991Y-119864845D01*
X115841921Y-119911795D01*
X115886468Y-119969682D01*
X115911192Y-120032730D01*
X115918424Y-120104319D01*
X116678362Y-120104319D01*
X116676494Y-120013749D01*
X116668150Y-119934849D01*
X116651904Y-119863627D01*
X116626267Y-119792901D01*
X116602271Y-119740530D01*
X116543652Y-119645233D01*
X116465555Y-119557207D01*
X116370357Y-119478054D01*
X116260434Y-119409377D01*
X116138162Y-119352778D01*
X116005917Y-119309858D01*
X115941250Y-119294919D01*
X115805068Y-119272814D01*
X115656623Y-119258231D01*
X115505167Y-119251850D01*
X115378608Y-119253482D01*
X115216722Y-119260261D01*
X115224142Y-119201282D01*
X115243434Y-119102129D01*
X115274568Y-119021409D01*
X115318403Y-118958503D01*
X115375801Y-118912793D01*
X115447624Y-118883659D01*
X115534731Y-118870484D01*
X115637986Y-118872648D01*
X115675961Y-118876649D01*
X115817152Y-118901817D01*
X115953965Y-118942851D01*
X116048494Y-118980852D01*
X116093654Y-119000227D01*
X116132087Y-119015797D01*
X116158438Y-119025442D01*
X116166126Y-119027489D01*
X116175870Y-119018411D01*
X116192589Y-118989442D01*
X116216440Y-118940254D01*
X116247579Y-118870521D01*
X116286165Y-118779916D01*
X116292762Y-118764126D01*
X116322819Y-118691809D01*
X116349798Y-118626462D01*
X116372536Y-118570943D01*
X116389866Y-118528109D01*
X116400624Y-118500818D01*
X116403731Y-118491979D01*
X116393732Y-118487224D01*
X116367455Y-118481947D01*
X116339183Y-118478268D01*
X116309026Y-118473511D01*
X116261239Y-118464065D01*
X116200060Y-118450857D01*
X116129726Y-118434813D01*
X116054478Y-118416857D01*
X116025917Y-118409834D01*
X115920856Y-118384246D01*
X115833192Y-118364184D01*
X115758604Y-118349006D01*
X115692769Y-118338072D01*
X115631365Y-118330741D01*
X115570070Y-118326372D01*
X115504562Y-118324324D01*
X115446544Y-118323926D01*
X115277098Y-118330589D01*
G36*
X111764165Y-118936282D02*
G01*
X111764146Y-119170699D01*
X111764120Y-119383640D01*
X111764047Y-119576205D01*
X111763890Y-119749496D01*
X111763608Y-119904613D01*
X111763163Y-120042657D01*
X111762516Y-120164729D01*
X111761627Y-120271931D01*
X111760459Y-120365363D01*
X111758971Y-120446127D01*
X111757126Y-120515323D01*
X111754883Y-120574052D01*
X111752203Y-120623416D01*
X111749049Y-120664515D01*
X111745380Y-120698450D01*
X111741159Y-120726323D01*
X111736345Y-120749235D01*
X111730899Y-120768286D01*
X111724784Y-120784577D01*
X111717960Y-120799210D01*
X111710387Y-120813286D01*
X111702027Y-120827905D01*
X111696833Y-120837011D01*
X111662568Y-120897726D01*
X112520717Y-120897726D01*
X112520717Y-120801770D01*
X112521448Y-120758407D01*
X112523400Y-120725242D01*
X112526209Y-120707461D01*
X112527451Y-120705815D01*
X112538873Y-120712699D01*
X112561588Y-120730542D01*
X112584287Y-120749916D01*
X112638872Y-120790651D01*
X112708351Y-120831654D01*
X112785402Y-120869160D01*
X112862707Y-120899401D01*
X112893559Y-120909049D01*
X112962056Y-120923615D01*
X113044908Y-120933576D01*
X113134301Y-120938620D01*
X113222424Y-120938433D01*
X113301465Y-120932703D01*
X113339161Y-120926895D01*
X113477258Y-120888834D01*
X113604559Y-120831110D01*
X113720380Y-120754248D01*
X113824035Y-120658776D01*
X113914839Y-120545216D01*
X113981641Y-120434418D01*
X114036508Y-120317662D01*
X114078509Y-120198313D01*
X114108505Y-120072320D01*
X114127361Y-119935631D01*
X114135940Y-119784195D01*
X114136666Y-119706748D01*
X114134572Y-119649971D01*
X113305455Y-119649971D01*
X113305248Y-119743039D01*
X113302335Y-119830729D01*
X113296672Y-119907809D01*
X113288217Y-119969046D01*
X113285634Y-119981387D01*
X113253832Y-120088670D01*
X113212174Y-120175695D01*
X113160309Y-120242679D01*
X113097891Y-120289842D01*
X113024572Y-120317402D01*
X112940003Y-120325578D01*
X112843837Y-120314588D01*
X112780361Y-120298866D01*
X112731218Y-120280676D01*
X112677089Y-120254828D01*
X112636428Y-120231126D01*
X112565872Y-120184758D01*
X112565872Y-119034567D01*
X112633280Y-118990999D01*
X112711805Y-118950077D01*
X112795991Y-118923426D01*
X112881115Y-118911502D01*
X112962456Y-118914759D01*
X113035292Y-118933652D01*
X113067246Y-118949221D01*
X113125171Y-118992218D01*
X113174128Y-119048990D01*
X113215282Y-119121612D01*
X113249798Y-119212158D01*
X113278839Y-119322703D01*
X113280120Y-119328570D01*
X113290291Y-119390825D01*
X113297933Y-119468631D01*
X113303002Y-119556757D01*
X113305455Y-119649971D01*
X114134572Y-119649971D01*
X114128815Y-119493932D01*
X114106870Y-119298096D01*
X114070886Y-119119369D01*
X114020913Y-118957882D01*
X113957004Y-118813763D01*
X113879210Y-118687143D01*
X113787583Y-118578152D01*
X113682175Y-118486920D01*
X113637010Y-118455969D01*
X113536061Y-118399822D01*
X113432771Y-118360211D01*
X113322683Y-118336051D01*
X113201342Y-118326256D01*
X113108836Y-118327302D01*
X112979182Y-118338268D01*
X112866588Y-118360083D01*
X112767797Y-118393751D01*
X112679551Y-118440273D01*
X112630686Y-118474485D01*
X112601319Y-118496399D01*
X112579629Y-118511370D01*
X112571419Y-118515770D01*
X112569804Y-118504941D01*
X112568513Y-118474288D01*
X112567534Y-118426563D01*
X112566855Y-118364516D01*
X112566462Y-118290899D01*
X112566342Y-118208464D01*
X112566484Y-118119962D01*
X112566875Y-118028144D01*
X112567501Y-117935761D01*
X112568352Y-117845565D01*
X112569412Y-117760308D01*
X112570671Y-117682740D01*
X112572116Y-117615613D01*
X112573734Y-117561678D01*
X112575511Y-117523687D01*
X112576003Y-117516704D01*
X112583580Y-117446288D01*
X112595141Y-117391139D01*
X112612880Y-117344018D01*
X112638990Y-117297684D01*
X112645257Y-117288104D01*
X112669689Y-117251415D01*
X111764361Y-117251415D01*
X111764165Y-118936282D01*
G37*
X111764165Y-118936282D02*
X111764146Y-119170699D01*
X111764120Y-119383640D01*
X111764047Y-119576205D01*
X111763890Y-119749496D01*
X111763608Y-119904613D01*
X111763163Y-120042657D01*
X111762516Y-120164729D01*
X111761627Y-120271931D01*
X111760459Y-120365363D01*
X111758971Y-120446127D01*
X111757126Y-120515323D01*
X111754883Y-120574052D01*
X111752203Y-120623416D01*
X111749049Y-120664515D01*
X111745380Y-120698450D01*
X111741159Y-120726323D01*
X111736345Y-120749235D01*
X111730899Y-120768286D01*
X111724784Y-120784577D01*
X111717960Y-120799210D01*
X111710387Y-120813286D01*
X111702027Y-120827905D01*
X111696833Y-120837011D01*
X111662568Y-120897726D01*
X112520717Y-120897726D01*
X112520717Y-120801770D01*
X112521448Y-120758407D01*
X112523400Y-120725242D01*
X112526209Y-120707461D01*
X112527451Y-120705815D01*
X112538873Y-120712699D01*
X112561588Y-120730542D01*
X112584287Y-120749916D01*
X112638872Y-120790651D01*
X112708351Y-120831654D01*
X112785402Y-120869160D01*
X112862707Y-120899401D01*
X112893559Y-120909049D01*
X112962056Y-120923615D01*
X113044908Y-120933576D01*
X113134301Y-120938620D01*
X113222424Y-120938433D01*
X113301465Y-120932703D01*
X113339161Y-120926895D01*
X113477258Y-120888834D01*
X113604559Y-120831110D01*
X113720380Y-120754248D01*
X113824035Y-120658776D01*
X113914839Y-120545216D01*
X113981641Y-120434418D01*
X114036508Y-120317662D01*
X114078509Y-120198313D01*
X114108505Y-120072320D01*
X114127361Y-119935631D01*
X114135940Y-119784195D01*
X114136666Y-119706748D01*
X114134572Y-119649971D01*
X113305455Y-119649971D01*
X113305248Y-119743039D01*
X113302335Y-119830729D01*
X113296672Y-119907809D01*
X113288217Y-119969046D01*
X113285634Y-119981387D01*
X113253832Y-120088670D01*
X113212174Y-120175695D01*
X113160309Y-120242679D01*
X113097891Y-120289842D01*
X113024572Y-120317402D01*
X112940003Y-120325578D01*
X112843837Y-120314588D01*
X112780361Y-120298866D01*
X112731218Y-120280676D01*
X112677089Y-120254828D01*
X112636428Y-120231126D01*
X112565872Y-120184758D01*
X112565872Y-119034567D01*
X112633280Y-118990999D01*
X112711805Y-118950077D01*
X112795991Y-118923426D01*
X112881115Y-118911502D01*
X112962456Y-118914759D01*
X113035292Y-118933652D01*
X113067246Y-118949221D01*
X113125171Y-118992218D01*
X113174128Y-119048990D01*
X113215282Y-119121612D01*
X113249798Y-119212158D01*
X113278839Y-119322703D01*
X113280120Y-119328570D01*
X113290291Y-119390825D01*
X113297933Y-119468631D01*
X113303002Y-119556757D01*
X113305455Y-119649971D01*
X114134572Y-119649971D01*
X114128815Y-119493932D01*
X114106870Y-119298096D01*
X114070886Y-119119369D01*
X114020913Y-118957882D01*
X113957004Y-118813763D01*
X113879210Y-118687143D01*
X113787583Y-118578152D01*
X113682175Y-118486920D01*
X113637010Y-118455969D01*
X113536061Y-118399822D01*
X113432771Y-118360211D01*
X113322683Y-118336051D01*
X113201342Y-118326256D01*
X113108836Y-118327302D01*
X112979182Y-118338268D01*
X112866588Y-118360083D01*
X112767797Y-118393751D01*
X112679551Y-118440273D01*
X112630686Y-118474485D01*
X112601319Y-118496399D01*
X112579629Y-118511370D01*
X112571419Y-118515770D01*
X112569804Y-118504941D01*
X112568513Y-118474288D01*
X112567534Y-118426563D01*
X112566855Y-118364516D01*
X112566462Y-118290899D01*
X112566342Y-118208464D01*
X112566484Y-118119962D01*
X112566875Y-118028144D01*
X112567501Y-117935761D01*
X112568352Y-117845565D01*
X112569412Y-117760308D01*
X112570671Y-117682740D01*
X112572116Y-117615613D01*
X112573734Y-117561678D01*
X112575511Y-117523687D01*
X112576003Y-117516704D01*
X112583580Y-117446288D01*
X112595141Y-117391139D01*
X112612880Y-117344018D01*
X112638990Y-117297684D01*
X112645257Y-117288104D01*
X112669689Y-117251415D01*
X111764361Y-117251415D01*
X111764165Y-118936282D01*
G36*
X120223715Y-116490608D02*
G01*
X120127440Y-116514846D01*
X120040856Y-116557678D01*
X119966045Y-116617456D01*
X119905090Y-116692531D01*
X119860071Y-116781257D01*
X119833808Y-116877567D01*
X119827958Y-116974832D01*
X119842812Y-117068691D01*
X119876512Y-117156548D01*
X119927200Y-117235807D01*
X119993017Y-117303873D01*
X120072106Y-117358149D01*
X120162606Y-117396039D01*
X120213872Y-117408463D01*
X120258370Y-117415984D01*
X120292671Y-117418956D01*
X120325632Y-117417131D01*
X120366106Y-117410262D01*
X120399203Y-117403287D01*
X120492619Y-117371778D01*
X120576291Y-117320654D01*
X120648337Y-117251466D01*
X120706872Y-117165765D01*
X120720820Y-117138526D01*
X120737258Y-117102159D01*
X120747566Y-117071619D01*
X120753132Y-117039487D01*
X120755341Y-116998344D01*
X120755620Y-116952259D01*
X120751533Y-116867902D01*
X120738118Y-116798623D01*
X120712928Y-116737998D01*
X120673518Y-116679604D01*
X120634970Y-116635339D01*
X120563078Y-116569521D01*
X120487985Y-116524090D01*
X120405234Y-116496887D01*
X120327600Y-116486613D01*
X120223715Y-116490608D01*
G37*
X120223715Y-116490608D02*
X120127440Y-116514846D01*
X120040856Y-116557678D01*
X119966045Y-116617456D01*
X119905090Y-116692531D01*
X119860071Y-116781257D01*
X119833808Y-116877567D01*
X119827958Y-116974832D01*
X119842812Y-117068691D01*
X119876512Y-117156548D01*
X119927200Y-117235807D01*
X119993017Y-117303873D01*
X120072106Y-117358149D01*
X120162606Y-117396039D01*
X120213872Y-117408463D01*
X120258370Y-117415984D01*
X120292671Y-117418956D01*
X120325632Y-117417131D01*
X120366106Y-117410262D01*
X120399203Y-117403287D01*
X120492619Y-117371778D01*
X120576291Y-117320654D01*
X120648337Y-117251466D01*
X120706872Y-117165765D01*
X120720820Y-117138526D01*
X120737258Y-117102159D01*
X120747566Y-117071619D01*
X120753132Y-117039487D01*
X120755341Y-116998344D01*
X120755620Y-116952259D01*
X120751533Y-116867902D01*
X120738118Y-116798623D01*
X120712928Y-116737998D01*
X120673518Y-116679604D01*
X120634970Y-116635339D01*
X120563078Y-116569521D01*
X120487985Y-116524090D01*
X120405234Y-116496887D01*
X120327600Y-116486613D01*
X120223715Y-116490608D01*
G36*
X155199728Y-104619955D02*
G01*
X155144271Y-104647605D01*
X155095324Y-104698517D01*
X155081843Y-104717375D01*
X155067158Y-104742052D01*
X155057630Y-104768853D01*
X155052179Y-104804624D01*
X155049725Y-104856206D01*
X155049186Y-104924304D01*
X155051620Y-105017625D01*
X155060078Y-105087694D01*
X155076298Y-105139968D01*
X155102018Y-105179906D01*
X155138975Y-105212966D01*
X155141690Y-105214923D01*
X155178112Y-105234945D01*
X155221970Y-105244852D01*
X155277748Y-105247294D01*
X155368424Y-105247294D01*
X155368462Y-105335320D01*
X155369306Y-105384345D01*
X155374448Y-105413102D01*
X155387885Y-105430348D01*
X155413614Y-105444845D01*
X155419793Y-105447806D01*
X155448708Y-105461685D01*
X155471096Y-105470451D01*
X155487743Y-105471208D01*
X155499436Y-105461060D01*
X155506962Y-105437110D01*
X155511106Y-105396463D01*
X155512657Y-105336223D01*
X155512401Y-105253492D01*
X155511123Y-105145376D01*
X155510724Y-105113037D01*
X155509287Y-105001561D01*
X155508000Y-104928640D01*
X155368501Y-104928640D01*
X155367717Y-104990536D01*
X155364232Y-105031034D01*
X155356348Y-105057745D01*
X155342367Y-105078281D01*
X155332875Y-105088297D01*
X155294068Y-105117604D01*
X155259709Y-105119989D01*
X155224256Y-105095787D01*
X155223358Y-105094894D01*
X155208933Y-105076190D01*
X155200159Y-105050769D01*
X155195733Y-105011621D01*
X155194354Y-104951734D01*
X155194329Y-104938467D01*
X155197660Y-104855938D01*
X155208503Y-104798728D01*
X155228132Y-104763803D01*
X155257822Y-104748131D01*
X155274981Y-104746551D01*
X155315706Y-104753963D01*
X155343640Y-104778367D01*
X155360455Y-104823017D01*
X155367822Y-104891167D01*
X155368501Y-104928640D01*
X155508000Y-104928640D01*
X155507764Y-104915282D01*
X155505795Y-104850370D01*
X155503022Y-104802995D01*
X155499084Y-104769327D01*
X155493623Y-104745535D01*
X155486280Y-104727790D01*
X155476695Y-104712261D01*
X155472585Y-104706418D01*
X155418067Y-104651222D01*
X155349136Y-104619927D01*
X155269400Y-104611202D01*
X155199728Y-104619955D01*
G37*
X155199728Y-104619955D02*
X155144271Y-104647605D01*
X155095324Y-104698517D01*
X155081843Y-104717375D01*
X155067158Y-104742052D01*
X155057630Y-104768853D01*
X155052179Y-104804624D01*
X155049725Y-104856206D01*
X155049186Y-104924304D01*
X155051620Y-105017625D01*
X155060078Y-105087694D01*
X155076298Y-105139968D01*
X155102018Y-105179906D01*
X155138975Y-105212966D01*
X155141690Y-105214923D01*
X155178112Y-105234945D01*
X155221970Y-105244852D01*
X155277748Y-105247294D01*
X155368424Y-105247294D01*
X155368462Y-105335320D01*
X155369306Y-105384345D01*
X155374448Y-105413102D01*
X155387885Y-105430348D01*
X155413614Y-105444845D01*
X155419793Y-105447806D01*
X155448708Y-105461685D01*
X155471096Y-105470451D01*
X155487743Y-105471208D01*
X155499436Y-105461060D01*
X155506962Y-105437110D01*
X155511106Y-105396463D01*
X155512657Y-105336223D01*
X155512401Y-105253492D01*
X155511123Y-105145376D01*
X155510724Y-105113037D01*
X155509287Y-105001561D01*
X155508000Y-104928640D01*
X155368501Y-104928640D01*
X155367717Y-104990536D01*
X155364232Y-105031034D01*
X155356348Y-105057745D01*
X155342367Y-105078281D01*
X155332875Y-105088297D01*
X155294068Y-105117604D01*
X155259709Y-105119989D01*
X155224256Y-105095787D01*
X155223358Y-105094894D01*
X155208933Y-105076190D01*
X155200159Y-105050769D01*
X155195733Y-105011621D01*
X155194354Y-104951734D01*
X155194329Y-104938467D01*
X155197660Y-104855938D01*
X155208503Y-104798728D01*
X155228132Y-104763803D01*
X155257822Y-104748131D01*
X155274981Y-104746551D01*
X155315706Y-104753963D01*
X155343640Y-104778367D01*
X155360455Y-104823017D01*
X155367822Y-104891167D01*
X155368501Y-104928640D01*
X155508000Y-104928640D01*
X155507764Y-104915282D01*
X155505795Y-104850370D01*
X155503022Y-104802995D01*
X155499084Y-104769327D01*
X155493623Y-104745535D01*
X155486280Y-104727790D01*
X155476695Y-104712261D01*
X155472585Y-104706418D01*
X155418067Y-104651222D01*
X155349136Y-104619927D01*
X155269400Y-104611202D01*
X155199728Y-104619955D01*
G36*
X154083379Y-104627817D02*
G01*
X154036800Y-104654760D01*
X154004415Y-104681503D01*
X153980730Y-104709521D01*
X153964413Y-104743785D01*
X153954133Y-104789264D01*
X153948558Y-104850929D01*
X153946356Y-104933748D01*
X153946101Y-104993283D01*
X153946101Y-105212428D01*
X154007786Y-105240081D01*
X154069472Y-105267734D01*
X154076729Y-105027707D01*
X154079728Y-104938065D01*
X154082874Y-104872999D01*
X154086771Y-104828063D01*
X154092025Y-104798807D01*
X154099241Y-104780785D01*
X154109022Y-104769548D01*
X154112160Y-104767116D01*
X154159711Y-104748120D01*
X154207775Y-104755637D01*
X154236386Y-104775580D01*
X154248025Y-104789712D01*
X154256081Y-104808257D01*
X154261201Y-104836371D01*
X154264031Y-104879210D01*
X154265216Y-104941932D01*
X154265415Y-105007298D01*
X154265454Y-105089305D01*
X154266858Y-105147353D01*
X154271558Y-105186502D01*
X154281485Y-105211817D01*
X154298569Y-105228360D01*
X154324740Y-105241193D01*
X154359697Y-105254528D01*
X154397876Y-105269044D01*
X154393331Y-105011426D01*
X154391501Y-104918556D01*
X154389360Y-104849926D01*
X154386291Y-104800748D01*
X154381678Y-104766235D01*
X154374904Y-104741599D01*
X154365353Y-104722053D01*
X154353838Y-104704807D01*
X154298282Y-104649717D01*
X154230492Y-104617859D01*
X154156759Y-104610228D01*
X154083379Y-104627817D01*
G37*
X154083379Y-104627817D02*
X154036800Y-104654760D01*
X154004415Y-104681503D01*
X153980730Y-104709521D01*
X153964413Y-104743785D01*
X153954133Y-104789264D01*
X153948558Y-104850929D01*
X153946356Y-104933748D01*
X153946101Y-104993283D01*
X153946101Y-105212428D01*
X154007786Y-105240081D01*
X154069472Y-105267734D01*
X154076729Y-105027707D01*
X154079728Y-104938065D01*
X154082874Y-104872999D01*
X154086771Y-104828063D01*
X154092025Y-104798807D01*
X154099241Y-104780785D01*
X154109022Y-104769548D01*
X154112160Y-104767116D01*
X154159711Y-104748120D01*
X154207775Y-104755637D01*
X154236386Y-104775580D01*
X154248025Y-104789712D01*
X154256081Y-104808257D01*
X154261201Y-104836371D01*
X154264031Y-104879210D01*
X154265216Y-104941932D01*
X154265415Y-105007298D01*
X154265454Y-105089305D01*
X154266858Y-105147353D01*
X154271558Y-105186502D01*
X154281485Y-105211817D01*
X154298569Y-105228360D01*
X154324740Y-105241193D01*
X154359697Y-105254528D01*
X154397876Y-105269044D01*
X154393331Y-105011426D01*
X154391501Y-104918556D01*
X154389360Y-104849926D01*
X154386291Y-104800748D01*
X154381678Y-104766235D01*
X154374904Y-104741599D01*
X154365353Y-104722053D01*
X154353838Y-104704807D01*
X154298282Y-104649717D01*
X154230492Y-104617859D01*
X154156759Y-104610228D01*
X154083379Y-104627817D01*
G36*
X155758357Y-104621999D02*
G01*
X155690327Y-104657770D01*
X155640121Y-104715338D01*
X155622287Y-104752349D01*
X155608409Y-104807919D01*
X155601305Y-104878133D01*
X155600632Y-104954764D01*
X155606045Y-105029589D01*
X155617202Y-105094379D01*
X155633758Y-105140910D01*
X155638846Y-105148924D01*
X155699117Y-105208744D01*
X155770703Y-105244572D01*
X155848380Y-105255057D01*
X155926924Y-105238847D01*
X155948783Y-105229129D01*
X155991350Y-105199180D01*
X156028709Y-105159470D01*
X156032240Y-105154434D01*
X156046591Y-105130161D01*
X156056078Y-105104215D01*
X156061682Y-105070059D01*
X156064386Y-105021156D01*
X156065173Y-104950972D01*
X156065186Y-104935237D01*
X156065150Y-104930229D01*
X155920043Y-104930229D01*
X155919199Y-104996467D01*
X155915876Y-105040423D01*
X155908889Y-105068816D01*
X155897056Y-105088362D01*
X155891015Y-105094894D01*
X155856286Y-105119717D01*
X155822569Y-105118585D01*
X155788477Y-105097053D01*
X155768143Y-105074066D01*
X155756101Y-105040515D01*
X155749338Y-104987606D01*
X155748874Y-104981436D01*
X155747720Y-104885550D01*
X155759784Y-104814336D01*
X155784902Y-104768231D01*
X155822912Y-104747672D01*
X155836480Y-104746551D01*
X155872108Y-104752189D01*
X155896478Y-104771723D01*
X155911379Y-104809079D01*
X155918597Y-104868187D01*
X155920043Y-104930229D01*
X156065150Y-104930229D01*
X156064646Y-104860450D01*
X156062376Y-104808196D01*
X156057404Y-104771986D01*
X156048759Y-104745336D01*
X156035467Y-104721759D01*
X156032529Y-104717375D01*
X155983159Y-104658286D01*
X155929363Y-104623984D01*
X155863870Y-104610368D01*
X155841630Y-104609702D01*
X155758357Y-104621999D01*
G37*
X155758357Y-104621999D02*
X155690327Y-104657770D01*
X155640121Y-104715338D01*
X155622287Y-104752349D01*
X155608409Y-104807919D01*
X155601305Y-104878133D01*
X155600632Y-104954764D01*
X155606045Y-105029589D01*
X155617202Y-105094379D01*
X155633758Y-105140910D01*
X155638846Y-105148924D01*
X155699117Y-105208744D01*
X155770703Y-105244572D01*
X155848380Y-105255057D01*
X155926924Y-105238847D01*
X155948783Y-105229129D01*
X155991350Y-105199180D01*
X156028709Y-105159470D01*
X156032240Y-105154434D01*
X156046591Y-105130161D01*
X156056078Y-105104215D01*
X156061682Y-105070059D01*
X156064386Y-105021156D01*
X156065173Y-104950972D01*
X156065186Y-104935237D01*
X156065150Y-104930229D01*
X155920043Y-104930229D01*
X155919199Y-104996467D01*
X155915876Y-105040423D01*
X155908889Y-105068816D01*
X155897056Y-105088362D01*
X155891015Y-105094894D01*
X155856286Y-105119717D01*
X155822569Y-105118585D01*
X155788477Y-105097053D01*
X155768143Y-105074066D01*
X155756101Y-105040515D01*
X155749338Y-104987606D01*
X155748874Y-104981436D01*
X155747720Y-104885550D01*
X155759784Y-104814336D01*
X155784902Y-104768231D01*
X155822912Y-104747672D01*
X155836480Y-104746551D01*
X155872108Y-104752189D01*
X155896478Y-104771723D01*
X155911379Y-104809079D01*
X155918597Y-104868187D01*
X155920043Y-104930229D01*
X156065150Y-104930229D01*
X156064646Y-104860450D01*
X156062376Y-104808196D01*
X156057404Y-104771986D01*
X156048759Y-104745336D01*
X156035467Y-104721759D01*
X156032529Y-104717375D01*
X155983159Y-104658286D01*
X155929363Y-104623984D01*
X155863870Y-104610368D01*
X155841630Y-104609702D01*
X155758357Y-104621999D01*
G36*
X154631169Y-104631276D02*
G01*
X154573945Y-104669772D01*
X154529723Y-104725372D01*
X154503305Y-104796123D01*
X154497962Y-104848199D01*
X154498569Y-104869930D01*
X154503650Y-104886568D01*
X154517617Y-104901474D01*
X154544883Y-104918010D01*
X154589860Y-104939535D01*
X154656961Y-104969411D01*
X154657301Y-104969561D01*
X154719065Y-104997850D01*
X154769713Y-105022970D01*
X154804068Y-105042216D01*
X154816954Y-105052885D01*
X154816958Y-105052971D01*
X154805600Y-105076203D01*
X154779041Y-105101811D01*
X154748549Y-105120258D01*
X154733102Y-105123923D01*
X154690957Y-105111249D01*
X154654664Y-105079508D01*
X154636955Y-105044609D01*
X154619920Y-105018882D01*
X154586550Y-104989583D01*
X154547323Y-104964272D01*
X154512716Y-104950508D01*
X154505479Y-104949751D01*
X154497333Y-104962197D01*
X154496842Y-104994009D01*
X154502829Y-105036903D01*
X154514115Y-105082595D01*
X154529522Y-105122798D01*
X154530301Y-105124359D01*
X154576668Y-105189099D01*
X154636761Y-105233134D01*
X154705007Y-105254748D01*
X154775834Y-105252222D01*
X154843668Y-105223841D01*
X154846684Y-105221845D01*
X154900045Y-105173485D01*
X154935132Y-105110389D01*
X154954550Y-105027424D01*
X154957156Y-105004115D01*
X154961771Y-104894092D01*
X154956239Y-104842785D01*
X154816958Y-104842785D01*
X154815148Y-104874790D01*
X154805250Y-104884130D01*
X154780574Y-104877142D01*
X154741677Y-104860624D01*
X154698197Y-104839918D01*
X154697116Y-104839370D01*
X154660263Y-104819986D01*
X154645472Y-104807050D01*
X154649119Y-104793488D01*
X154664477Y-104775669D01*
X154703549Y-104749882D01*
X154745626Y-104747987D01*
X154783369Y-104766754D01*
X154809438Y-104802952D01*
X154816958Y-104842785D01*
X154956239Y-104842785D01*
X154952278Y-104806064D01*
X154927922Y-104736249D01*
X154894016Y-104687339D01*
X154832819Y-104637915D01*
X154765409Y-104613396D01*
X154696592Y-104611834D01*
X154631169Y-104631276D01*
G37*
X154631169Y-104631276D02*
X154573945Y-104669772D01*
X154529723Y-104725372D01*
X154503305Y-104796123D01*
X154497962Y-104848199D01*
X154498569Y-104869930D01*
X154503650Y-104886568D01*
X154517617Y-104901474D01*
X154544883Y-104918010D01*
X154589860Y-104939535D01*
X154656961Y-104969411D01*
X154657301Y-104969561D01*
X154719065Y-104997850D01*
X154769713Y-105022970D01*
X154804068Y-105042216D01*
X154816954Y-105052885D01*
X154816958Y-105052971D01*
X154805600Y-105076203D01*
X154779041Y-105101811D01*
X154748549Y-105120258D01*
X154733102Y-105123923D01*
X154690957Y-105111249D01*
X154654664Y-105079508D01*
X154636955Y-105044609D01*
X154619920Y-105018882D01*
X154586550Y-104989583D01*
X154547323Y-104964272D01*
X154512716Y-104950508D01*
X154505479Y-104949751D01*
X154497333Y-104962197D01*
X154496842Y-104994009D01*
X154502829Y-105036903D01*
X154514115Y-105082595D01*
X154529522Y-105122798D01*
X154530301Y-105124359D01*
X154576668Y-105189099D01*
X154636761Y-105233134D01*
X154705007Y-105254748D01*
X154775834Y-105252222D01*
X154843668Y-105223841D01*
X154846684Y-105221845D01*
X154900045Y-105173485D01*
X154935132Y-105110389D01*
X154954550Y-105027424D01*
X154957156Y-105004115D01*
X154961771Y-104894092D01*
X154956239Y-104842785D01*
X154816958Y-104842785D01*
X154815148Y-104874790D01*
X154805250Y-104884130D01*
X154780574Y-104877142D01*
X154741677Y-104860624D01*
X154698197Y-104839918D01*
X154697116Y-104839370D01*
X154660263Y-104819986D01*
X154645472Y-104807050D01*
X154649119Y-104793488D01*
X154664477Y-104775669D01*
X154703549Y-104749882D01*
X154745626Y-104747987D01*
X154783369Y-104766754D01*
X154809438Y-104802952D01*
X154816958Y-104842785D01*
X154956239Y-104842785D01*
X154952278Y-104806064D01*
X154927922Y-104736249D01*
X154894016Y-104687339D01*
X154832819Y-104637915D01*
X154765409Y-104613396D01*
X154696592Y-104611834D01*
X154631169Y-104631276D01*
G36*
X153423586Y-104551326D02*
G01*
X153419333Y-104610650D01*
X153414447Y-104645609D01*
X153407677Y-104660857D01*
X153397770Y-104661052D01*
X153394558Y-104659232D01*
X153351828Y-104646052D01*
X153296245Y-104646822D01*
X153239735Y-104660370D01*
X153204390Y-104677898D01*
X153168151Y-104705898D01*
X153141659Y-104737586D01*
X153123473Y-104777850D01*
X153112150Y-104831580D01*
X153106250Y-104903663D01*
X153104329Y-104998988D01*
X153104295Y-105017274D01*
X153104272Y-105222683D01*
X153149981Y-105238617D01*
X153182445Y-105249457D01*
X153200257Y-105254505D01*
X153200781Y-105254551D01*
X153202535Y-105240865D01*
X153204028Y-105203113D01*
X153205146Y-105146261D01*
X153205775Y-105075271D01*
X153205872Y-105032110D01*
X153206074Y-104947010D01*
X153207114Y-104886018D01*
X153209641Y-104844214D01*
X153214308Y-104816679D01*
X153221765Y-104798493D01*
X153232661Y-104784735D01*
X153239465Y-104778110D01*
X153286200Y-104751412D01*
X153337200Y-104749412D01*
X153383471Y-104771992D01*
X153392028Y-104780144D01*
X153404579Y-104795473D01*
X153413284Y-104813655D01*
X153418841Y-104839946D01*
X153421946Y-104879599D01*
X153423296Y-104937869D01*
X153423586Y-105018210D01*
X153423586Y-105222683D01*
X153469295Y-105238617D01*
X153501759Y-105249457D01*
X153519571Y-105254505D01*
X153520095Y-105254551D01*
X153521435Y-105240660D01*
X153522644Y-105201476D01*
X153523671Y-105140737D01*
X153524470Y-105062178D01*
X153524991Y-104969535D01*
X153525186Y-104866546D01*
X153525186Y-104469379D01*
X153478015Y-104449481D01*
X153430843Y-104429584D01*
X153423586Y-104551326D01*
G37*
X153423586Y-104551326D02*
X153419333Y-104610650D01*
X153414447Y-104645609D01*
X153407677Y-104660857D01*
X153397770Y-104661052D01*
X153394558Y-104659232D01*
X153351828Y-104646052D01*
X153296245Y-104646822D01*
X153239735Y-104660370D01*
X153204390Y-104677898D01*
X153168151Y-104705898D01*
X153141659Y-104737586D01*
X153123473Y-104777850D01*
X153112150Y-104831580D01*
X153106250Y-104903663D01*
X153104329Y-104998988D01*
X153104295Y-105017274D01*
X153104272Y-105222683D01*
X153149981Y-105238617D01*
X153182445Y-105249457D01*
X153200257Y-105254505D01*
X153200781Y-105254551D01*
X153202535Y-105240865D01*
X153204028Y-105203113D01*
X153205146Y-105146261D01*
X153205775Y-105075271D01*
X153205872Y-105032110D01*
X153206074Y-104947010D01*
X153207114Y-104886018D01*
X153209641Y-104844214D01*
X153214308Y-104816679D01*
X153221765Y-104798493D01*
X153232661Y-104784735D01*
X153239465Y-104778110D01*
X153286200Y-104751412D01*
X153337200Y-104749412D01*
X153383471Y-104771992D01*
X153392028Y-104780144D01*
X153404579Y-104795473D01*
X153413284Y-104813655D01*
X153418841Y-104839946D01*
X153421946Y-104879599D01*
X153423296Y-104937869D01*
X153423586Y-105018210D01*
X153423586Y-105222683D01*
X153469295Y-105238617D01*
X153501759Y-105249457D01*
X153519571Y-105254505D01*
X153520095Y-105254551D01*
X153521435Y-105240660D01*
X153522644Y-105201476D01*
X153523671Y-105140737D01*
X153524470Y-105062178D01*
X153524991Y-104969535D01*
X153525186Y-104866546D01*
X153525186Y-104469379D01*
X153478015Y-104449481D01*
X153430843Y-104429584D01*
X153423586Y-104551326D01*
G36*
X152759728Y-104651005D02*
G01*
X152702856Y-104672124D01*
X152702205Y-104672530D01*
X152667032Y-104698417D01*
X152641065Y-104728670D01*
X152622802Y-104768095D01*
X152610740Y-104821499D01*
X152603376Y-104893688D01*
X152599208Y-104989469D01*
X152598843Y-105003115D01*
X152593596Y-105208879D01*
X152637756Y-105231715D01*
X152669709Y-105247147D01*
X152689002Y-105254460D01*
X152689894Y-105254551D01*
X152693233Y-105241059D01*
X152695885Y-105204663D01*
X152697516Y-105151489D01*
X152697872Y-105108430D01*
X152697880Y-105038678D01*
X152701069Y-104994874D01*
X152712184Y-104973981D01*
X152735971Y-104972962D01*
X152777176Y-104988778D01*
X152839386Y-105017852D01*
X152885131Y-105042000D01*
X152908659Y-105062950D01*
X152915576Y-105085784D01*
X152915586Y-105086914D01*
X152904173Y-105126249D01*
X152870380Y-105147499D01*
X152818663Y-105150576D01*
X152781411Y-105150043D01*
X152761769Y-105160772D01*
X152749520Y-105186542D01*
X152742470Y-105219374D01*
X152752630Y-105238003D01*
X152756455Y-105240669D01*
X152792471Y-105251377D01*
X152842906Y-105252893D01*
X152894846Y-105245796D01*
X152931650Y-105232825D01*
X152982534Y-105189622D01*
X153011458Y-105129483D01*
X153017186Y-105082499D01*
X153012815Y-105040119D01*
X152996997Y-105005525D01*
X152965675Y-104974800D01*
X152914794Y-104944027D01*
X152840296Y-104909289D01*
X152835758Y-104907325D01*
X152768651Y-104876324D01*
X152727240Y-104850899D01*
X152709491Y-104828051D01*
X152713365Y-104804782D01*
X152736829Y-104778093D01*
X152743845Y-104771951D01*
X152790842Y-104748137D01*
X152839539Y-104749140D01*
X152881950Y-104772488D01*
X152910088Y-104815712D01*
X152912703Y-104824197D01*
X152938164Y-104865345D01*
X152970471Y-104885165D01*
X153017186Y-104904807D01*
X153017186Y-104853987D01*
X153002976Y-104780119D01*
X152960797Y-104712364D01*
X152938848Y-104689698D01*
X152888955Y-104660606D01*
X152825505Y-104647437D01*
X152759728Y-104651005D01*
G37*
X152759728Y-104651005D02*
X152702856Y-104672124D01*
X152702205Y-104672530D01*
X152667032Y-104698417D01*
X152641065Y-104728670D01*
X152622802Y-104768095D01*
X152610740Y-104821499D01*
X152603376Y-104893688D01*
X152599208Y-104989469D01*
X152598843Y-105003115D01*
X152593596Y-105208879D01*
X152637756Y-105231715D01*
X152669709Y-105247147D01*
X152689002Y-105254460D01*
X152689894Y-105254551D01*
X152693233Y-105241059D01*
X152695885Y-105204663D01*
X152697516Y-105151489D01*
X152697872Y-105108430D01*
X152697880Y-105038678D01*
X152701069Y-104994874D01*
X152712184Y-104973981D01*
X152735971Y-104972962D01*
X152777176Y-104988778D01*
X152839386Y-105017852D01*
X152885131Y-105042000D01*
X152908659Y-105062950D01*
X152915576Y-105085784D01*
X152915586Y-105086914D01*
X152904173Y-105126249D01*
X152870380Y-105147499D01*
X152818663Y-105150576D01*
X152781411Y-105150043D01*
X152761769Y-105160772D01*
X152749520Y-105186542D01*
X152742470Y-105219374D01*
X152752630Y-105238003D01*
X152756455Y-105240669D01*
X152792471Y-105251377D01*
X152842906Y-105252893D01*
X152894846Y-105245796D01*
X152931650Y-105232825D01*
X152982534Y-105189622D01*
X153011458Y-105129483D01*
X153017186Y-105082499D01*
X153012815Y-105040119D01*
X152996997Y-105005525D01*
X152965675Y-104974800D01*
X152914794Y-104944027D01*
X152840296Y-104909289D01*
X152835758Y-104907325D01*
X152768651Y-104876324D01*
X152727240Y-104850899D01*
X152709491Y-104828051D01*
X152713365Y-104804782D01*
X152736829Y-104778093D01*
X152743845Y-104771951D01*
X152790842Y-104748137D01*
X152839539Y-104749140D01*
X152881950Y-104772488D01*
X152910088Y-104815712D01*
X152912703Y-104824197D01*
X152938164Y-104865345D01*
X152970471Y-104885165D01*
X153017186Y-104904807D01*
X153017186Y-104853987D01*
X153002976Y-104780119D01*
X152960797Y-104712364D01*
X152938848Y-104689698D01*
X152888955Y-104660606D01*
X152825505Y-104647437D01*
X152759728Y-104651005D01*
G36*
X152269546Y-104649792D02*
G01*
X152203614Y-104674121D01*
X152150199Y-104717154D01*
X152129308Y-104747446D01*
X152106533Y-104803031D01*
X152107006Y-104843223D01*
X152130910Y-104870254D01*
X152139755Y-104874850D01*
X152177942Y-104889181D01*
X152197444Y-104885509D01*
X152204050Y-104861444D01*
X152204386Y-104848151D01*
X152216480Y-104799247D01*
X152248001Y-104765036D01*
X152291813Y-104748513D01*
X152340777Y-104752671D01*
X152380578Y-104774264D01*
X152394022Y-104786581D01*
X152403551Y-104801524D01*
X152409987Y-104824112D01*
X152414155Y-104859365D01*
X152416875Y-104912303D01*
X152418970Y-104987944D01*
X152419512Y-105011894D01*
X152421491Y-105093827D01*
X152423741Y-105151492D01*
X152427115Y-105189645D01*
X152432466Y-105213041D01*
X152440648Y-105226435D01*
X152452513Y-105234582D01*
X152460110Y-105238181D01*
X152492370Y-105250489D01*
X152511361Y-105254551D01*
X152517636Y-105240985D01*
X152521466Y-105199971D01*
X152522872Y-105131036D01*
X152521874Y-105033706D01*
X152521564Y-105018694D01*
X152519371Y-104929896D01*
X152516779Y-104865056D01*
X152513090Y-104819104D01*
X152507608Y-104786972D01*
X152499637Y-104763590D01*
X152488479Y-104743889D01*
X152482642Y-104735447D01*
X152449176Y-104698094D01*
X152411745Y-104669040D01*
X152407163Y-104666504D01*
X152340046Y-104646480D01*
X152269546Y-104649792D01*
G37*
X152269546Y-104649792D02*
X152203614Y-104674121D01*
X152150199Y-104717154D01*
X152129308Y-104747446D01*
X152106533Y-104803031D01*
X152107006Y-104843223D01*
X152130910Y-104870254D01*
X152139755Y-104874850D01*
X152177942Y-104889181D01*
X152197444Y-104885509D01*
X152204050Y-104861444D01*
X152204386Y-104848151D01*
X152216480Y-104799247D01*
X152248001Y-104765036D01*
X152291813Y-104748513D01*
X152340777Y-104752671D01*
X152380578Y-104774264D01*
X152394022Y-104786581D01*
X152403551Y-104801524D01*
X152409987Y-104824112D01*
X152414155Y-104859365D01*
X152416875Y-104912303D01*
X152418970Y-104987944D01*
X152419512Y-105011894D01*
X152421491Y-105093827D01*
X152423741Y-105151492D01*
X152427115Y-105189645D01*
X152432466Y-105213041D01*
X152440648Y-105226435D01*
X152452513Y-105234582D01*
X152460110Y-105238181D01*
X152492370Y-105250489D01*
X152511361Y-105254551D01*
X152517636Y-105240985D01*
X152521466Y-105199971D01*
X152522872Y-105131036D01*
X152521874Y-105033706D01*
X152521564Y-105018694D01*
X152519371Y-104929896D01*
X152516779Y-104865056D01*
X152513090Y-104819104D01*
X152507608Y-104786972D01*
X152499637Y-104763590D01*
X152488479Y-104743889D01*
X152482642Y-104735447D01*
X152449176Y-104698094D01*
X152411745Y-104669040D01*
X152407163Y-104666504D01*
X152340046Y-104646480D01*
X152269546Y-104649792D01*
G36*
X151609355Y-104765395D02*
G01*
X151609539Y-104873874D01*
X151610253Y-104957324D01*
X151611797Y-105019741D01*
X151614471Y-105065122D01*
X151618578Y-105097466D01*
X151624417Y-105120770D01*
X151632290Y-105139032D01*
X151638251Y-105149455D01*
X151687617Y-105205982D01*
X151750208Y-105241414D01*
X151819459Y-105254127D01*
X151888804Y-105242500D01*
X151930097Y-105221605D01*
X151973447Y-105185459D01*
X152002991Y-105141313D01*
X152020817Y-105083499D01*
X152029009Y-105006350D01*
X152030170Y-104949751D01*
X152030014Y-104945684D01*
X151928615Y-104945684D01*
X151927996Y-105010587D01*
X151925158Y-105053551D01*
X151918632Y-105081659D01*
X151906949Y-105101990D01*
X151892989Y-105117325D01*
X151846107Y-105146927D01*
X151795771Y-105149456D01*
X151748196Y-105124742D01*
X151744493Y-105121393D01*
X151728689Y-105103972D01*
X151718779Y-105083246D01*
X151713414Y-105052399D01*
X151711244Y-105004614D01*
X151710901Y-104951785D01*
X151711645Y-104885418D01*
X151714724Y-104841143D01*
X151721411Y-104812046D01*
X151732976Y-104791210D01*
X151742459Y-104780144D01*
X151786512Y-104752235D01*
X151837248Y-104748880D01*
X151885676Y-104770196D01*
X151895022Y-104778110D01*
X151910932Y-104795684D01*
X151920862Y-104816624D01*
X151926194Y-104847819D01*
X151928309Y-104896159D01*
X151928615Y-104945684D01*
X152030014Y-104945684D01*
X152026662Y-104858605D01*
X152014746Y-104790123D01*
X151992337Y-104738637D01*
X151957348Y-104698480D01*
X151930097Y-104677898D01*
X151880565Y-104655662D01*
X151823156Y-104645341D01*
X151769790Y-104648104D01*
X151739929Y-104659249D01*
X151728211Y-104662420D01*
X151720435Y-104650594D01*
X151715007Y-104618903D01*
X151710901Y-104570630D01*
X151706405Y-104516866D01*
X151700159Y-104484519D01*
X151688796Y-104466022D01*
X151668944Y-104453807D01*
X151656472Y-104448399D01*
X151609301Y-104428638D01*
X151609355Y-104765395D01*
G37*
X151609355Y-104765395D02*
X151609539Y-104873874D01*
X151610253Y-104957324D01*
X151611797Y-105019741D01*
X151614471Y-105065122D01*
X151618578Y-105097466D01*
X151624417Y-105120770D01*
X151632290Y-105139032D01*
X151638251Y-105149455D01*
X151687617Y-105205982D01*
X151750208Y-105241414D01*
X151819459Y-105254127D01*
X151888804Y-105242500D01*
X151930097Y-105221605D01*
X151973447Y-105185459D01*
X152002991Y-105141313D01*
X152020817Y-105083499D01*
X152029009Y-105006350D01*
X152030170Y-104949751D01*
X152030014Y-104945684D01*
X151928615Y-104945684D01*
X151927996Y-105010587D01*
X151925158Y-105053551D01*
X151918632Y-105081659D01*
X151906949Y-105101990D01*
X151892989Y-105117325D01*
X151846107Y-105146927D01*
X151795771Y-105149456D01*
X151748196Y-105124742D01*
X151744493Y-105121393D01*
X151728689Y-105103972D01*
X151718779Y-105083246D01*
X151713414Y-105052399D01*
X151711244Y-105004614D01*
X151710901Y-104951785D01*
X151711645Y-104885418D01*
X151714724Y-104841143D01*
X151721411Y-104812046D01*
X151732976Y-104791210D01*
X151742459Y-104780144D01*
X151786512Y-104752235D01*
X151837248Y-104748880D01*
X151885676Y-104770196D01*
X151895022Y-104778110D01*
X151910932Y-104795684D01*
X151920862Y-104816624D01*
X151926194Y-104847819D01*
X151928309Y-104896159D01*
X151928615Y-104945684D01*
X152030014Y-104945684D01*
X152026662Y-104858605D01*
X152014746Y-104790123D01*
X151992337Y-104738637D01*
X151957348Y-104698480D01*
X151930097Y-104677898D01*
X151880565Y-104655662D01*
X151823156Y-104645341D01*
X151769790Y-104648104D01*
X151739929Y-104659249D01*
X151728211Y-104662420D01*
X151720435Y-104650594D01*
X151715007Y-104618903D01*
X151710901Y-104570630D01*
X151706405Y-104516866D01*
X151700159Y-104484519D01*
X151688796Y-104466022D01*
X151668944Y-104453807D01*
X151656472Y-104448399D01*
X151609301Y-104428638D01*
X151609355Y-104765395D01*
G36*
X151019639Y-104658700D02*
G01*
X151017424Y-104696887D01*
X151015688Y-104754923D01*
X151014573Y-104828217D01*
X151014215Y-104905092D01*
X151014215Y-105165233D01*
X151060146Y-105211164D01*
X151091797Y-105239466D01*
X151119582Y-105250930D01*
X151157557Y-105250205D01*
X151172632Y-105248358D01*
X151219746Y-105242985D01*
X151258716Y-105239906D01*
X151268215Y-105239622D01*
X151300239Y-105241482D01*
X151346040Y-105246151D01*
X151363798Y-105248358D01*
X151407415Y-105251772D01*
X151436727Y-105244357D01*
X151465792Y-105221464D01*
X151476284Y-105211164D01*
X151522215Y-105165233D01*
X151522215Y-104678639D01*
X151485246Y-104661795D01*
X151453413Y-104649319D01*
X151434789Y-104644951D01*
X151430014Y-104658755D01*
X151425551Y-104697323D01*
X151421697Y-104756393D01*
X151418750Y-104831700D01*
X151417329Y-104895323D01*
X151413358Y-105145694D01*
X151378713Y-105150593D01*
X151347204Y-105147168D01*
X151331764Y-105136078D01*
X151327449Y-105115345D01*
X151323764Y-105071182D01*
X151321003Y-105009183D01*
X151319460Y-104934946D01*
X151319237Y-104896743D01*
X151319015Y-104676820D01*
X151273306Y-104660886D01*
X151240954Y-104650052D01*
X151223357Y-104644999D01*
X151222849Y-104644951D01*
X151221084Y-104658685D01*
X151219143Y-104696767D01*
X151217190Y-104754519D01*
X151215388Y-104827264D01*
X151214129Y-104895323D01*
X151210158Y-105145694D01*
X151123072Y-105145694D01*
X151119076Y-104917277D01*
X151115080Y-104688859D01*
X151072625Y-104666905D01*
X151041280Y-104651830D01*
X151022728Y-104644988D01*
X151022193Y-104644951D01*
X151019639Y-104658700D01*
G37*
X151019639Y-104658700D02*
X151017424Y-104696887D01*
X151015688Y-104754923D01*
X151014573Y-104828217D01*
X151014215Y-104905092D01*
X151014215Y-105165233D01*
X151060146Y-105211164D01*
X151091797Y-105239466D01*
X151119582Y-105250930D01*
X151157557Y-105250205D01*
X151172632Y-105248358D01*
X151219746Y-105242985D01*
X151258716Y-105239906D01*
X151268215Y-105239622D01*
X151300239Y-105241482D01*
X151346040Y-105246151D01*
X151363798Y-105248358D01*
X151407415Y-105251772D01*
X151436727Y-105244357D01*
X151465792Y-105221464D01*
X151476284Y-105211164D01*
X151522215Y-105165233D01*
X151522215Y-104678639D01*
X151485246Y-104661795D01*
X151453413Y-104649319D01*
X151434789Y-104644951D01*
X151430014Y-104658755D01*
X151425551Y-104697323D01*
X151421697Y-104756393D01*
X151418750Y-104831700D01*
X151417329Y-104895323D01*
X151413358Y-105145694D01*
X151378713Y-105150593D01*
X151347204Y-105147168D01*
X151331764Y-105136078D01*
X151327449Y-105115345D01*
X151323764Y-105071182D01*
X151321003Y-105009183D01*
X151319460Y-104934946D01*
X151319237Y-104896743D01*
X151319015Y-104676820D01*
X151273306Y-104660886D01*
X151240954Y-104650052D01*
X151223357Y-104644999D01*
X151222849Y-104644951D01*
X151221084Y-104658685D01*
X151219143Y-104696767D01*
X151217190Y-104754519D01*
X151215388Y-104827264D01*
X151214129Y-104895323D01*
X151210158Y-105145694D01*
X151123072Y-105145694D01*
X151119076Y-104917277D01*
X151115080Y-104688859D01*
X151072625Y-104666905D01*
X151041280Y-104651830D01*
X151022728Y-104644988D01*
X151022193Y-104644951D01*
X151019639Y-104658700D01*
G36*
X150654596Y-104656372D02*
G01*
X150612805Y-104675381D01*
X150580003Y-104698415D01*
X150555969Y-104724170D01*
X150539375Y-104757395D01*
X150528895Y-104802837D01*
X150523201Y-104865244D01*
X150520965Y-104949364D01*
X150520729Y-105004758D01*
X150520729Y-105220863D01*
X150557698Y-105237707D01*
X150586816Y-105250018D01*
X150601241Y-105254551D01*
X150604000Y-105241062D01*
X150606190Y-105204690D01*
X150607530Y-105151579D01*
X150607815Y-105109409D01*
X150609038Y-105048484D01*
X150612336Y-105000152D01*
X150617151Y-104970555D01*
X150620976Y-104964266D01*
X150646689Y-104970689D01*
X150687054Y-104987162D01*
X150733793Y-105009495D01*
X150778627Y-105033494D01*
X150813279Y-105054967D01*
X150829470Y-105069722D01*
X150829534Y-105069882D01*
X150828142Y-105097189D01*
X150815654Y-105123256D01*
X150793729Y-105144429D01*
X150761729Y-105151511D01*
X150734380Y-105150686D01*
X150695646Y-105150079D01*
X150675314Y-105159153D01*
X150663103Y-105183129D01*
X150661563Y-105187650D01*
X150656269Y-105221843D01*
X150670425Y-105242605D01*
X150707324Y-105252499D01*
X150747183Y-105254329D01*
X150818910Y-105240764D01*
X150856040Y-105221392D01*
X150901896Y-105175882D01*
X150926216Y-105120020D01*
X150928399Y-105060994D01*
X150907843Y-105005990D01*
X150876923Y-104971523D01*
X150846052Y-104952226D01*
X150797530Y-104927796D01*
X150740987Y-104903022D01*
X150731562Y-104899236D01*
X150669453Y-104871828D01*
X150633650Y-104847671D01*
X150622135Y-104823656D01*
X150632892Y-104796672D01*
X150651358Y-104775580D01*
X150695003Y-104749609D01*
X150743026Y-104747661D01*
X150787066Y-104767674D01*
X150818763Y-104807588D01*
X150822923Y-104817885D01*
X150847145Y-104855761D01*
X150882507Y-104883879D01*
X150927129Y-104906954D01*
X150927129Y-104841522D01*
X150924503Y-104801543D01*
X150913242Y-104770034D01*
X150888273Y-104736415D01*
X150864303Y-104710521D01*
X150827031Y-104673854D01*
X150798071Y-104654158D01*
X150766967Y-104646257D01*
X150731759Y-104644951D01*
X150654596Y-104656372D01*
G37*
X150654596Y-104656372D02*
X150612805Y-104675381D01*
X150580003Y-104698415D01*
X150555969Y-104724170D01*
X150539375Y-104757395D01*
X150528895Y-104802837D01*
X150523201Y-104865244D01*
X150520965Y-104949364D01*
X150520729Y-105004758D01*
X150520729Y-105220863D01*
X150557698Y-105237707D01*
X150586816Y-105250018D01*
X150601241Y-105254551D01*
X150604000Y-105241062D01*
X150606190Y-105204690D01*
X150607530Y-105151579D01*
X150607815Y-105109409D01*
X150609038Y-105048484D01*
X150612336Y-105000152D01*
X150617151Y-104970555D01*
X150620976Y-104964266D01*
X150646689Y-104970689D01*
X150687054Y-104987162D01*
X150733793Y-105009495D01*
X150778627Y-105033494D01*
X150813279Y-105054967D01*
X150829470Y-105069722D01*
X150829534Y-105069882D01*
X150828142Y-105097189D01*
X150815654Y-105123256D01*
X150793729Y-105144429D01*
X150761729Y-105151511D01*
X150734380Y-105150686D01*
X150695646Y-105150079D01*
X150675314Y-105159153D01*
X150663103Y-105183129D01*
X150661563Y-105187650D01*
X150656269Y-105221843D01*
X150670425Y-105242605D01*
X150707324Y-105252499D01*
X150747183Y-105254329D01*
X150818910Y-105240764D01*
X150856040Y-105221392D01*
X150901896Y-105175882D01*
X150926216Y-105120020D01*
X150928399Y-105060994D01*
X150907843Y-105005990D01*
X150876923Y-104971523D01*
X150846052Y-104952226D01*
X150797530Y-104927796D01*
X150740987Y-104903022D01*
X150731562Y-104899236D01*
X150669453Y-104871828D01*
X150633650Y-104847671D01*
X150622135Y-104823656D01*
X150632892Y-104796672D01*
X150651358Y-104775580D01*
X150695003Y-104749609D01*
X150743026Y-104747661D01*
X150787066Y-104767674D01*
X150818763Y-104807588D01*
X150822923Y-104817885D01*
X150847145Y-104855761D01*
X150882507Y-104883879D01*
X150927129Y-104906954D01*
X150927129Y-104841522D01*
X150924503Y-104801543D01*
X150913242Y-104770034D01*
X150888273Y-104736415D01*
X150864303Y-104710521D01*
X150827031Y-104673854D01*
X150798071Y-104654158D01*
X150766967Y-104646257D01*
X150731759Y-104644951D01*
X150654596Y-104656372D01*
G36*
X150146872Y-104658789D02*
G01*
X150129524Y-104666371D01*
X150088116Y-104699165D01*
X150052707Y-104746584D01*
X150030808Y-104797188D01*
X150027243Y-104822135D01*
X150039193Y-104856964D01*
X150065405Y-104875394D01*
X150093508Y-104886553D01*
X150106377Y-104888609D01*
X150112643Y-104873686D01*
X150125016Y-104841212D01*
X150130444Y-104826539D01*
X150160882Y-104775781D01*
X150204952Y-104750464D01*
X150261462Y-104751243D01*
X150265647Y-104752240D01*
X150295817Y-104766544D01*
X150317996Y-104794430D01*
X150333145Y-104839324D01*
X150342222Y-104904652D01*
X150346186Y-104993841D01*
X150346558Y-105041298D01*
X150346742Y-105116108D01*
X150347950Y-105167106D01*
X150351163Y-105199508D01*
X150357363Y-105218532D01*
X150367532Y-105229393D01*
X150382653Y-105237309D01*
X150383526Y-105237707D01*
X150412644Y-105250018D01*
X150427069Y-105254551D01*
X150429286Y-105240846D01*
X150431183Y-105202962D01*
X150432625Y-105145752D01*
X150433474Y-105074064D01*
X150433643Y-105021602D01*
X150432780Y-104920084D01*
X150429402Y-104843069D01*
X150422330Y-104786060D01*
X150410384Y-104744563D01*
X150392382Y-104714080D01*
X150367145Y-104690117D01*
X150342225Y-104673392D01*
X150282301Y-104651134D01*
X150212561Y-104646113D01*
X150146872Y-104658789D01*
G37*
X150146872Y-104658789D02*
X150129524Y-104666371D01*
X150088116Y-104699165D01*
X150052707Y-104746584D01*
X150030808Y-104797188D01*
X150027243Y-104822135D01*
X150039193Y-104856964D01*
X150065405Y-104875394D01*
X150093508Y-104886553D01*
X150106377Y-104888609D01*
X150112643Y-104873686D01*
X150125016Y-104841212D01*
X150130444Y-104826539D01*
X150160882Y-104775781D01*
X150204952Y-104750464D01*
X150261462Y-104751243D01*
X150265647Y-104752240D01*
X150295817Y-104766544D01*
X150317996Y-104794430D01*
X150333145Y-104839324D01*
X150342222Y-104904652D01*
X150346186Y-104993841D01*
X150346558Y-105041298D01*
X150346742Y-105116108D01*
X150347950Y-105167106D01*
X150351163Y-105199508D01*
X150357363Y-105218532D01*
X150367532Y-105229393D01*
X150382653Y-105237309D01*
X150383526Y-105237707D01*
X150412644Y-105250018D01*
X150427069Y-105254551D01*
X150429286Y-105240846D01*
X150431183Y-105202962D01*
X150432625Y-105145752D01*
X150433474Y-105074064D01*
X150433643Y-105021602D01*
X150432780Y-104920084D01*
X150429402Y-104843069D01*
X150422330Y-104786060D01*
X150410384Y-104744563D01*
X150392382Y-104714080D01*
X150367145Y-104690117D01*
X150342225Y-104673392D01*
X150282301Y-104651134D01*
X150212561Y-104646113D01*
X150146872Y-104658789D01*
G36*
X149645877Y-104667003D02*
G01*
X149588451Y-104704534D01*
X149560753Y-104738133D01*
X149538810Y-104799101D01*
X149537067Y-104847345D01*
X149541015Y-104911853D01*
X149689786Y-104976971D01*
X149762123Y-105010239D01*
X149809388Y-105037001D01*
X149833965Y-105060181D01*
X149838235Y-105082704D01*
X149824583Y-105107492D01*
X149809529Y-105123923D01*
X149765726Y-105150272D01*
X149718083Y-105152118D01*
X149674327Y-105131583D01*
X149642183Y-105090789D01*
X149636434Y-105076384D01*
X149608896Y-105031393D01*
X149577214Y-105012219D01*
X149533758Y-104995816D01*
X149533758Y-105058003D01*
X149537600Y-105100320D01*
X149552649Y-105136006D01*
X149584192Y-105176980D01*
X149588880Y-105182304D01*
X149623966Y-105218757D01*
X149654125Y-105238320D01*
X149691857Y-105247320D01*
X149723137Y-105250267D01*
X149779087Y-105251002D01*
X149818917Y-105241697D01*
X149843764Y-105227883D01*
X149882816Y-105197504D01*
X149909847Y-105164650D01*
X149926955Y-105123331D01*
X149936234Y-105067558D01*
X149939779Y-104991342D01*
X149940062Y-104952659D01*
X149939100Y-104906284D01*
X149851465Y-104906284D01*
X149850449Y-104931163D01*
X149847916Y-104935237D01*
X149831198Y-104929702D01*
X149795223Y-104915054D01*
X149747141Y-104894227D01*
X149737086Y-104889751D01*
X149676320Y-104858851D01*
X149642840Y-104831694D01*
X149635482Y-104806257D01*
X149653081Y-104780518D01*
X149667616Y-104769146D01*
X149720062Y-104746401D01*
X149769150Y-104750159D01*
X149810245Y-104777921D01*
X149838714Y-104827189D01*
X149847841Y-104866294D01*
X149851465Y-104906284D01*
X149939100Y-104906284D01*
X149938187Y-104862286D01*
X149931276Y-104795421D01*
X149917588Y-104746732D01*
X149895376Y-104710886D01*
X149862898Y-104682550D01*
X149848739Y-104673392D01*
X149784419Y-104649544D01*
X149713999Y-104648043D01*
X149645877Y-104667003D01*
G37*
X149645877Y-104667003D02*
X149588451Y-104704534D01*
X149560753Y-104738133D01*
X149538810Y-104799101D01*
X149537067Y-104847345D01*
X149541015Y-104911853D01*
X149689786Y-104976971D01*
X149762123Y-105010239D01*
X149809388Y-105037001D01*
X149833965Y-105060181D01*
X149838235Y-105082704D01*
X149824583Y-105107492D01*
X149809529Y-105123923D01*
X149765726Y-105150272D01*
X149718083Y-105152118D01*
X149674327Y-105131583D01*
X149642183Y-105090789D01*
X149636434Y-105076384D01*
X149608896Y-105031393D01*
X149577214Y-105012219D01*
X149533758Y-104995816D01*
X149533758Y-105058003D01*
X149537600Y-105100320D01*
X149552649Y-105136006D01*
X149584192Y-105176980D01*
X149588880Y-105182304D01*
X149623966Y-105218757D01*
X149654125Y-105238320D01*
X149691857Y-105247320D01*
X149723137Y-105250267D01*
X149779087Y-105251002D01*
X149818917Y-105241697D01*
X149843764Y-105227883D01*
X149882816Y-105197504D01*
X149909847Y-105164650D01*
X149926955Y-105123331D01*
X149936234Y-105067558D01*
X149939779Y-104991342D01*
X149940062Y-104952659D01*
X149939100Y-104906284D01*
X149851465Y-104906284D01*
X149850449Y-104931163D01*
X149847916Y-104935237D01*
X149831198Y-104929702D01*
X149795223Y-104915054D01*
X149747141Y-104894227D01*
X149737086Y-104889751D01*
X149676320Y-104858851D01*
X149642840Y-104831694D01*
X149635482Y-104806257D01*
X149653081Y-104780518D01*
X149667616Y-104769146D01*
X149720062Y-104746401D01*
X149769150Y-104750159D01*
X149810245Y-104777921D01*
X149838714Y-104827189D01*
X149847841Y-104866294D01*
X149851465Y-104906284D01*
X149939100Y-104906284D01*
X149938187Y-104862286D01*
X149931276Y-104795421D01*
X149917588Y-104746732D01*
X149895376Y-104710886D01*
X149862898Y-104682550D01*
X149848739Y-104673392D01*
X149784419Y-104649544D01*
X149713999Y-104648043D01*
X149645877Y-104667003D01*
G36*
X152695562Y-99942385D02*
G01*
X152617018Y-99942815D01*
X152560174Y-99943979D01*
X152521367Y-99946244D01*
X152496934Y-99949977D01*
X152483210Y-99955543D01*
X152476532Y-99963310D01*
X152473236Y-99973642D01*
X152472916Y-99974980D01*
X152467910Y-99999116D01*
X152458643Y-100046738D01*
X152446080Y-100112778D01*
X152431185Y-100192165D01*
X152414921Y-100279833D01*
X152414353Y-100282912D01*
X152398062Y-100368826D01*
X152382820Y-100444733D01*
X152369611Y-100506082D01*
X152359418Y-100548319D01*
X152353224Y-100566892D01*
X152352929Y-100567221D01*
X152334684Y-100576290D01*
X152297067Y-100591404D01*
X152248201Y-100609299D01*
X152247929Y-100609395D01*
X152186379Y-100632530D01*
X152113815Y-100662002D01*
X152045415Y-100691634D01*
X152042178Y-100693099D01*
X151930770Y-100743663D01*
X151684073Y-100575197D01*
X151608395Y-100523840D01*
X151539841Y-100477926D01*
X151482384Y-100440067D01*
X151439996Y-100412874D01*
X151416647Y-100398958D01*
X151414430Y-100397926D01*
X151397462Y-100402521D01*
X151365771Y-100424692D01*
X151318120Y-100465484D01*
X151253274Y-100525942D01*
X151187075Y-100590264D01*
X151123258Y-100653649D01*
X151066143Y-100711488D01*
X151019167Y-100760212D01*
X150985769Y-100796247D01*
X150969387Y-100816021D01*
X150968778Y-100817039D01*
X150966967Y-100830609D01*
X150973789Y-100852770D01*
X150990932Y-100886515D01*
X151020079Y-100934837D01*
X151062917Y-101000729D01*
X151120024Y-101085554D01*
X151170706Y-101160214D01*
X151216011Y-101227177D01*
X151253322Y-101282553D01*
X151280020Y-101322457D01*
X151293487Y-101342999D01*
X151294335Y-101344393D01*
X151292691Y-101364075D01*
X151280227Y-101402330D01*
X151259424Y-101451926D01*
X151252010Y-101467765D01*
X151219658Y-101538327D01*
X151185144Y-101618390D01*
X151157107Y-101687666D01*
X151136904Y-101739082D01*
X151120857Y-101778156D01*
X151111584Y-101798578D01*
X151110431Y-101800151D01*
X151093376Y-101802758D01*
X151053174Y-101809900D01*
X150995170Y-101820560D01*
X150924709Y-101833722D01*
X150847137Y-101848370D01*
X150767800Y-101863486D01*
X150692041Y-101878055D01*
X150625208Y-101891059D01*
X150572644Y-101901482D01*
X150539696Y-101908307D01*
X150531615Y-101910236D01*
X150523267Y-101914999D01*
X150516966Y-101925755D01*
X150512427Y-101946135D01*
X150509368Y-101979771D01*
X150507505Y-102030292D01*
X150506554Y-102101329D01*
X150506232Y-102196513D01*
X150506215Y-102235529D01*
X150506215Y-102552836D01*
X150582415Y-102567876D01*
X150624809Y-102576032D01*
X150688072Y-102587936D01*
X150764510Y-102602153D01*
X150846429Y-102617247D01*
X150869072Y-102621392D01*
X150944666Y-102636090D01*
X151010519Y-102650542D01*
X151061106Y-102663412D01*
X151090898Y-102673359D01*
X151095860Y-102676324D01*
X151108046Y-102697320D01*
X151125519Y-102738004D01*
X151144895Y-102790359D01*
X151148738Y-102801637D01*
X151174133Y-102871560D01*
X151205655Y-102950455D01*
X151236503Y-103021303D01*
X151236655Y-103021632D01*
X151288025Y-103132770D01*
X151119073Y-103381290D01*
X150950120Y-103629809D01*
X151167043Y-103847095D01*
X151232653Y-103911763D01*
X151292493Y-103968770D01*
X151343205Y-104015070D01*
X151381426Y-104047621D01*
X151403797Y-104063380D01*
X151407006Y-104064380D01*
X151425846Y-104056506D01*
X151464292Y-104034615D01*
X151518142Y-104001304D01*
X151583196Y-103959168D01*
X151653532Y-103911980D01*
X151724917Y-103863847D01*
X151788564Y-103821965D01*
X151840431Y-103788908D01*
X151876477Y-103767255D01*
X151892605Y-103759580D01*
X151912283Y-103766074D01*
X151949597Y-103783187D01*
X151996851Y-103807363D01*
X152001860Y-103810050D01*
X152065495Y-103841964D01*
X152109131Y-103857616D01*
X152136270Y-103857782D01*
X152150415Y-103843241D01*
X152150497Y-103843037D01*
X152157567Y-103825816D01*
X152174430Y-103784936D01*
X152199777Y-103723562D01*
X152232301Y-103644856D01*
X152270694Y-103551984D01*
X152313650Y-103448109D01*
X152355250Y-103347539D01*
X152400968Y-103236553D01*
X152442946Y-103133740D01*
X152479924Y-103042252D01*
X152510645Y-102965238D01*
X152533850Y-102905852D01*
X152548282Y-102867246D01*
X152552729Y-102852837D01*
X152541576Y-102836309D01*
X152512403Y-102809967D01*
X152473501Y-102780924D01*
X152362715Y-102689076D01*
X152276121Y-102583796D01*
X152214756Y-102467303D01*
X152179657Y-102341813D01*
X152171864Y-102209544D01*
X152177529Y-102148494D01*
X152208394Y-102021832D01*
X152261552Y-101909978D01*
X152333705Y-101814038D01*
X152421555Y-101735113D01*
X152521807Y-101674307D01*
X152631162Y-101632724D01*
X152746325Y-101611465D01*
X152863997Y-101611636D01*
X152980882Y-101634338D01*
X153093683Y-101680675D01*
X153199103Y-101751750D01*
X153243104Y-101791948D01*
X153327493Y-101895166D01*
X153386250Y-102007962D01*
X153419768Y-102127047D01*
X153428437Y-102249132D01*
X153412649Y-102370930D01*
X153372794Y-102489153D01*
X153309265Y-102600512D01*
X153222451Y-102701721D01*
X153125443Y-102780924D01*
X153085035Y-102811199D01*
X153056490Y-102837256D01*
X153046215Y-102852862D01*
X153051595Y-102869880D01*
X153066897Y-102910537D01*
X153090860Y-102971679D01*
X153122228Y-103050156D01*
X153159740Y-103142817D01*
X153202139Y-103246509D01*
X153243809Y-103347563D01*
X153289782Y-103458644D01*
X153332365Y-103561578D01*
X153370251Y-103653202D01*
X153402132Y-103730353D01*
X153426701Y-103789868D01*
X153442652Y-103828581D01*
X153448562Y-103843037D01*
X153462524Y-103857722D01*
X153489532Y-103857679D01*
X153533059Y-103842136D01*
X153596582Y-103810321D01*
X153597084Y-103810050D01*
X153644912Y-103785360D01*
X153683575Y-103767375D01*
X153705377Y-103759651D01*
X153706339Y-103759580D01*
X153722751Y-103767415D01*
X153758985Y-103789202D01*
X153810998Y-103822365D01*
X153874747Y-103864328D01*
X153945412Y-103911980D01*
X154017356Y-103960228D01*
X154082198Y-104002188D01*
X154135737Y-104035264D01*
X154173775Y-104056858D01*
X154191939Y-104064380D01*
X154208664Y-104054494D01*
X154242292Y-104026863D01*
X154289462Y-103984532D01*
X154346814Y-103930542D01*
X154410988Y-103867936D01*
X154431975Y-103847020D01*
X154648973Y-103629660D01*
X154483804Y-103387257D01*
X154433608Y-103312818D01*
X154389553Y-103246009D01*
X154354110Y-103190702D01*
X154329753Y-103150766D01*
X154318950Y-103130073D01*
X154318634Y-103128600D01*
X154324329Y-103109095D01*
X154339646Y-103069859D01*
X154361935Y-103017467D01*
X154377579Y-102982392D01*
X154406831Y-102915238D01*
X154434378Y-102847395D01*
X154455735Y-102790071D01*
X154461537Y-102772609D01*
X154478020Y-102725975D01*
X154494132Y-102689942D01*
X154502982Y-102676324D01*
X154522512Y-102667989D01*
X154565138Y-102656174D01*
X154625327Y-102642218D01*
X154697550Y-102627459D01*
X154729872Y-102621392D01*
X154811950Y-102606310D01*
X154890677Y-102591706D01*
X154958363Y-102579017D01*
X155007312Y-102569679D01*
X155016529Y-102567876D01*
X155092729Y-102552836D01*
X155092729Y-102235529D01*
X155092558Y-102131191D01*
X155091856Y-102052250D01*
X155090338Y-101995075D01*
X155087723Y-101956036D01*
X155083726Y-101931502D01*
X155078063Y-101917842D01*
X155070452Y-101911426D01*
X155067329Y-101910236D01*
X155048494Y-101906017D01*
X155006884Y-101897599D01*
X154947842Y-101885998D01*
X154876715Y-101872232D01*
X154798847Y-101857317D01*
X154719585Y-101842269D01*
X154644274Y-101828106D01*
X154578259Y-101815843D01*
X154526885Y-101806498D01*
X154495497Y-101801087D01*
X154488513Y-101800151D01*
X154482187Y-101787633D01*
X154468182Y-101754283D01*
X154449117Y-101706414D01*
X154441838Y-101687666D01*
X154412476Y-101615232D01*
X154377901Y-101535207D01*
X154346935Y-101467765D01*
X154324149Y-101416196D01*
X154308990Y-101373822D01*
X154303930Y-101347871D01*
X154304736Y-101344393D01*
X154315431Y-101327973D01*
X154339852Y-101291454D01*
X154375377Y-101238724D01*
X154419385Y-101173672D01*
X154469255Y-101100188D01*
X154479116Y-101085682D01*
X154536980Y-100999741D01*
X154579516Y-100934298D01*
X154608418Y-100886341D01*
X154625382Y-100852857D01*
X154632105Y-100830832D01*
X154630282Y-100817254D01*
X154630236Y-100817168D01*
X154615886Y-100799334D01*
X154584149Y-100764854D01*
X154538462Y-100717305D01*
X154482268Y-100660259D01*
X154419004Y-100597292D01*
X154411870Y-100590264D01*
X154332142Y-100513057D01*
X154270615Y-100456367D01*
X154226051Y-100419147D01*
X154197215Y-100400352D01*
X154184514Y-100397926D01*
X154165978Y-100408508D01*
X154127511Y-100432953D01*
X154073086Y-100468649D01*
X154006674Y-100512984D01*
X153932247Y-100563348D01*
X153914871Y-100575197D01*
X153668175Y-100743663D01*
X153556766Y-100693099D01*
X153489015Y-100663632D01*
X153416289Y-100633996D01*
X153353769Y-100610367D01*
X153351015Y-100609395D01*
X153302112Y-100591494D01*
X153264415Y-100576357D01*
X153246047Y-100567247D01*
X153246016Y-100567221D01*
X153240187Y-100550754D01*
X153230280Y-100510256D01*
X153217277Y-100450279D01*
X153202163Y-100375377D01*
X153185920Y-100290101D01*
X153184591Y-100282912D01*
X153168297Y-100195051D01*
X153153339Y-100115297D01*
X153140681Y-100048718D01*
X153131286Y-100000384D01*
X153126118Y-99975362D01*
X153126028Y-99974980D01*
X153122883Y-99964336D01*
X153116768Y-99956299D01*
X153104019Y-99950504D01*
X153080972Y-99946584D01*
X153043963Y-99944172D01*
X152989328Y-99942902D01*
X152913405Y-99942408D01*
X152812528Y-99942323D01*
X152799472Y-99942323D01*
X152695562Y-99942385D01*
G37*
X152695562Y-99942385D02*
X152617018Y-99942815D01*
X152560174Y-99943979D01*
X152521367Y-99946244D01*
X152496934Y-99949977D01*
X152483210Y-99955543D01*
X152476532Y-99963310D01*
X152473236Y-99973642D01*
X152472916Y-99974980D01*
X152467910Y-99999116D01*
X152458643Y-100046738D01*
X152446080Y-100112778D01*
X152431185Y-100192165D01*
X152414921Y-100279833D01*
X152414353Y-100282912D01*
X152398062Y-100368826D01*
X152382820Y-100444733D01*
X152369611Y-100506082D01*
X152359418Y-100548319D01*
X152353224Y-100566892D01*
X152352929Y-100567221D01*
X152334684Y-100576290D01*
X152297067Y-100591404D01*
X152248201Y-100609299D01*
X152247929Y-100609395D01*
X152186379Y-100632530D01*
X152113815Y-100662002D01*
X152045415Y-100691634D01*
X152042178Y-100693099D01*
X151930770Y-100743663D01*
X151684073Y-100575197D01*
X151608395Y-100523840D01*
X151539841Y-100477926D01*
X151482384Y-100440067D01*
X151439996Y-100412874D01*
X151416647Y-100398958D01*
X151414430Y-100397926D01*
X151397462Y-100402521D01*
X151365771Y-100424692D01*
X151318120Y-100465484D01*
X151253274Y-100525942D01*
X151187075Y-100590264D01*
X151123258Y-100653649D01*
X151066143Y-100711488D01*
X151019167Y-100760212D01*
X150985769Y-100796247D01*
X150969387Y-100816021D01*
X150968778Y-100817039D01*
X150966967Y-100830609D01*
X150973789Y-100852770D01*
X150990932Y-100886515D01*
X151020079Y-100934837D01*
X151062917Y-101000729D01*
X151120024Y-101085554D01*
X151170706Y-101160214D01*
X151216011Y-101227177D01*
X151253322Y-101282553D01*
X151280020Y-101322457D01*
X151293487Y-101342999D01*
X151294335Y-101344393D01*
X151292691Y-101364075D01*
X151280227Y-101402330D01*
X151259424Y-101451926D01*
X151252010Y-101467765D01*
X151219658Y-101538327D01*
X151185144Y-101618390D01*
X151157107Y-101687666D01*
X151136904Y-101739082D01*
X151120857Y-101778156D01*
X151111584Y-101798578D01*
X151110431Y-101800151D01*
X151093376Y-101802758D01*
X151053174Y-101809900D01*
X150995170Y-101820560D01*
X150924709Y-101833722D01*
X150847137Y-101848370D01*
X150767800Y-101863486D01*
X150692041Y-101878055D01*
X150625208Y-101891059D01*
X150572644Y-101901482D01*
X150539696Y-101908307D01*
X150531615Y-101910236D01*
X150523267Y-101914999D01*
X150516966Y-101925755D01*
X150512427Y-101946135D01*
X150509368Y-101979771D01*
X150507505Y-102030292D01*
X150506554Y-102101329D01*
X150506232Y-102196513D01*
X150506215Y-102235529D01*
X150506215Y-102552836D01*
X150582415Y-102567876D01*
X150624809Y-102576032D01*
X150688072Y-102587936D01*
X150764510Y-102602153D01*
X150846429Y-102617247D01*
X150869072Y-102621392D01*
X150944666Y-102636090D01*
X151010519Y-102650542D01*
X151061106Y-102663412D01*
X151090898Y-102673359D01*
X151095860Y-102676324D01*
X151108046Y-102697320D01*
X151125519Y-102738004D01*
X151144895Y-102790359D01*
X151148738Y-102801637D01*
X151174133Y-102871560D01*
X151205655Y-102950455D01*
X151236503Y-103021303D01*
X151236655Y-103021632D01*
X151288025Y-103132770D01*
X151119073Y-103381290D01*
X150950120Y-103629809D01*
X151167043Y-103847095D01*
X151232653Y-103911763D01*
X151292493Y-103968770D01*
X151343205Y-104015070D01*
X151381426Y-104047621D01*
X151403797Y-104063380D01*
X151407006Y-104064380D01*
X151425846Y-104056506D01*
X151464292Y-104034615D01*
X151518142Y-104001304D01*
X151583196Y-103959168D01*
X151653532Y-103911980D01*
X151724917Y-103863847D01*
X151788564Y-103821965D01*
X151840431Y-103788908D01*
X151876477Y-103767255D01*
X151892605Y-103759580D01*
X151912283Y-103766074D01*
X151949597Y-103783187D01*
X151996851Y-103807363D01*
X152001860Y-103810050D01*
X152065495Y-103841964D01*
X152109131Y-103857616D01*
X152136270Y-103857782D01*
X152150415Y-103843241D01*
X152150497Y-103843037D01*
X152157567Y-103825816D01*
X152174430Y-103784936D01*
X152199777Y-103723562D01*
X152232301Y-103644856D01*
X152270694Y-103551984D01*
X152313650Y-103448109D01*
X152355250Y-103347539D01*
X152400968Y-103236553D01*
X152442946Y-103133740D01*
X152479924Y-103042252D01*
X152510645Y-102965238D01*
X152533850Y-102905852D01*
X152548282Y-102867246D01*
X152552729Y-102852837D01*
X152541576Y-102836309D01*
X152512403Y-102809967D01*
X152473501Y-102780924D01*
X152362715Y-102689076D01*
X152276121Y-102583796D01*
X152214756Y-102467303D01*
X152179657Y-102341813D01*
X152171864Y-102209544D01*
X152177529Y-102148494D01*
X152208394Y-102021832D01*
X152261552Y-101909978D01*
X152333705Y-101814038D01*
X152421555Y-101735113D01*
X152521807Y-101674307D01*
X152631162Y-101632724D01*
X152746325Y-101611465D01*
X152863997Y-101611636D01*
X152980882Y-101634338D01*
X153093683Y-101680675D01*
X153199103Y-101751750D01*
X153243104Y-101791948D01*
X153327493Y-101895166D01*
X153386250Y-102007962D01*
X153419768Y-102127047D01*
X153428437Y-102249132D01*
X153412649Y-102370930D01*
X153372794Y-102489153D01*
X153309265Y-102600512D01*
X153222451Y-102701721D01*
X153125443Y-102780924D01*
X153085035Y-102811199D01*
X153056490Y-102837256D01*
X153046215Y-102852862D01*
X153051595Y-102869880D01*
X153066897Y-102910537D01*
X153090860Y-102971679D01*
X153122228Y-103050156D01*
X153159740Y-103142817D01*
X153202139Y-103246509D01*
X153243809Y-103347563D01*
X153289782Y-103458644D01*
X153332365Y-103561578D01*
X153370251Y-103653202D01*
X153402132Y-103730353D01*
X153426701Y-103789868D01*
X153442652Y-103828581D01*
X153448562Y-103843037D01*
X153462524Y-103857722D01*
X153489532Y-103857679D01*
X153533059Y-103842136D01*
X153596582Y-103810321D01*
X153597084Y-103810050D01*
X153644912Y-103785360D01*
X153683575Y-103767375D01*
X153705377Y-103759651D01*
X153706339Y-103759580D01*
X153722751Y-103767415D01*
X153758985Y-103789202D01*
X153810998Y-103822365D01*
X153874747Y-103864328D01*
X153945412Y-103911980D01*
X154017356Y-103960228D01*
X154082198Y-104002188D01*
X154135737Y-104035264D01*
X154173775Y-104056858D01*
X154191939Y-104064380D01*
X154208664Y-104054494D01*
X154242292Y-104026863D01*
X154289462Y-103984532D01*
X154346814Y-103930542D01*
X154410988Y-103867936D01*
X154431975Y-103847020D01*
X154648973Y-103629660D01*
X154483804Y-103387257D01*
X154433608Y-103312818D01*
X154389553Y-103246009D01*
X154354110Y-103190702D01*
X154329753Y-103150766D01*
X154318950Y-103130073D01*
X154318634Y-103128600D01*
X154324329Y-103109095D01*
X154339646Y-103069859D01*
X154361935Y-103017467D01*
X154377579Y-102982392D01*
X154406831Y-102915238D01*
X154434378Y-102847395D01*
X154455735Y-102790071D01*
X154461537Y-102772609D01*
X154478020Y-102725975D01*
X154494132Y-102689942D01*
X154502982Y-102676324D01*
X154522512Y-102667989D01*
X154565138Y-102656174D01*
X154625327Y-102642218D01*
X154697550Y-102627459D01*
X154729872Y-102621392D01*
X154811950Y-102606310D01*
X154890677Y-102591706D01*
X154958363Y-102579017D01*
X155007312Y-102569679D01*
X155016529Y-102567876D01*
X155092729Y-102552836D01*
X155092729Y-102235529D01*
X155092558Y-102131191D01*
X155091856Y-102052250D01*
X155090338Y-101995075D01*
X155087723Y-101956036D01*
X155083726Y-101931502D01*
X155078063Y-101917842D01*
X155070452Y-101911426D01*
X155067329Y-101910236D01*
X155048494Y-101906017D01*
X155006884Y-101897599D01*
X154947842Y-101885998D01*
X154876715Y-101872232D01*
X154798847Y-101857317D01*
X154719585Y-101842269D01*
X154644274Y-101828106D01*
X154578259Y-101815843D01*
X154526885Y-101806498D01*
X154495497Y-101801087D01*
X154488513Y-101800151D01*
X154482187Y-101787633D01*
X154468182Y-101754283D01*
X154449117Y-101706414D01*
X154441838Y-101687666D01*
X154412476Y-101615232D01*
X154377901Y-101535207D01*
X154346935Y-101467765D01*
X154324149Y-101416196D01*
X154308990Y-101373822D01*
X154303930Y-101347871D01*
X154304736Y-101344393D01*
X154315431Y-101327973D01*
X154339852Y-101291454D01*
X154375377Y-101238724D01*
X154419385Y-101173672D01*
X154469255Y-101100188D01*
X154479116Y-101085682D01*
X154536980Y-100999741D01*
X154579516Y-100934298D01*
X154608418Y-100886341D01*
X154625382Y-100852857D01*
X154632105Y-100830832D01*
X154630282Y-100817254D01*
X154630236Y-100817168D01*
X154615886Y-100799334D01*
X154584149Y-100764854D01*
X154538462Y-100717305D01*
X154482268Y-100660259D01*
X154419004Y-100597292D01*
X154411870Y-100590264D01*
X154332142Y-100513057D01*
X154270615Y-100456367D01*
X154226051Y-100419147D01*
X154197215Y-100400352D01*
X154184514Y-100397926D01*
X154165978Y-100408508D01*
X154127511Y-100432953D01*
X154073086Y-100468649D01*
X154006674Y-100512984D01*
X153932247Y-100563348D01*
X153914871Y-100575197D01*
X153668175Y-100743663D01*
X153556766Y-100693099D01*
X153489015Y-100663632D01*
X153416289Y-100633996D01*
X153353769Y-100610367D01*
X153351015Y-100609395D01*
X153302112Y-100591494D01*
X153264415Y-100576357D01*
X153246047Y-100567247D01*
X153246016Y-100567221D01*
X153240187Y-100550754D01*
X153230280Y-100510256D01*
X153217277Y-100450279D01*
X153202163Y-100375377D01*
X153185920Y-100290101D01*
X153184591Y-100282912D01*
X153168297Y-100195051D01*
X153153339Y-100115297D01*
X153140681Y-100048718D01*
X153131286Y-100000384D01*
X153126118Y-99975362D01*
X153126028Y-99974980D01*
X153122883Y-99964336D01*
X153116768Y-99956299D01*
X153104019Y-99950504D01*
X153080972Y-99946584D01*
X153043963Y-99944172D01*
X152989328Y-99942902D01*
X152913405Y-99942408D01*
X152812528Y-99942323D01*
X152799472Y-99942323D01*
X152695562Y-99942385D01*
%TD*%
M02*
