  0
SECTION
  2
HEADER
  9
$ACADVER
  1
AC1009
  9
$INSBASE
 10
0.0
 20
0.0
 30
0.0
  9
$EXTMIN
 10
0.0
 20
0.0
 30
0.0
  9
$EXTMAX
 10
0.0
 20
0.0
 30
0.0
  0
ENDSEC
  0
SECTION
  2
TABLES
  0
TABLE
  2
VPORT
 70
0
  0
ENDTAB
  0
TABLE
  2
LTYPE
 70
1
  0
LTYPE
  2
CONTINUOUS
 70
0
  3
Solid line
 72
65
 73
0
 40
0.0
  0
ENDTAB
  0
TABLE
  2
LAYER
 70
1
  0
LAYER
  2
0
 70
64
 62
7
  6
continuous
  0
ENDTAB
  0
TABLE
  2
STYLE
 70
1
  0
STYLE
  2
STANDARD
 70
0
 40
0
 41
1.0
 50
0.0
 71
0
 42
1
 3
ARIAL.TTF
 4

  0
ENDTAB
  0
TABLE
  2
VIEW
 70
0
  0
ENDTAB
  0
ENDSEC
  0
SECTION
  2
BLOCKS
  0
BLOCK
  8
0
  2
SKETCH002
 70
0
 10
0.0
 20
0.0
 30
0.0
  3
SKETCH002
  0
CIRCLE
  8
0
 62
7
 10
15.637663
 20
63.229366
 30
0.0
 40
1.25
  0
CIRCLE
  8
0
 62
7
 10
15.99751
 20
52.672089
 30
0.0
 40
1.25
  0
CIRCLE
  8
0
 62
7
 10
18.195509
 20
52.583714
 30
0.0
 40
1.25
  0
CIRCLE
  8
0
 62
7
 10
21.117407
 20
49.298141
 30
0.0
 40
1.25
  0
CIRCLE
  8
0
 62
7
 10
20.890343
 20
51.879868
 30
0.0
 40
1.25
  0
CIRCLE
  8
0
 62
7
 10
28.390461
 20
46.999367
 30
0.0
 40
1.25
  0
CIRCLE
  8
0
 62
7
 10
23.35813
 20
50.994586999999996
 30
0.0
 40
1.25
  0
CIRCLE
  8
0
 62
7
 10
20.786232
 20
54.671146
 30
0.0
 40
1.25
  0
CIRCLE
  8
0
 62
7
 10
31.942053
 20
50.803627
 30
0.0
 40
1.25
  0
CIRCLE
  8
0
 62
7
 10
23.650033999999998
 20
57.579704
 30
0.0
 40
1.25
  0
CIRCLE
  8
0
 62
7
 10
26.481098
 20
53.312763
 30
0.0
 40
1.25
  0
CIRCLE
  8
0
 62
7
 10
24.236599
 20
60.17548
 30
0.0
 40
1.25
  0
CIRCLE
  8
0
 62
7
 10
24.743826
 20
62.23148
 30
0.0
 40
1.25
  0
CIRCLE
  8
0
 62
7
 10
26.085121
 20
55.714397
 30
0.0
 40
1.25
  0
CIRCLE
  8
0
 62
7
 10
34.125916
 20
56.338966
 30
0.0
 40
1.25
  0
CIRCLE
  8
0
 62
7
 10
28.313793
 20
55.110188
 30
0.0
 40
1.25
  0
CIRCLE
  8
0
 62
7
 10
32.316981999999996
 20
57.583
 30
0.0
 40
1.25
  0
CIRCLE
  8
0
 62
7
 10
27.824486
 20
57.637421
 30
0.0
 40
1.25
  0
CIRCLE
  8
0
 62
7
 10
28.091412
 20
60.293167
 30
0.0
 40
1.25
  0
CIRCLE
  8
0
 62
7
 10
30.013466
 20
61.560226
 30
0.0
 40
1.25
  0
CIRCLE
  8
0
 62
7
 10
31.721375
 20
59.900753
 30
0.0
 40
1.25
  0
CIRCLE
  8
0
 62
7
 10
35.968899
 20
57.810452
 30
0.0
 40
1.25
  0
CIRCLE
  8
0
 62
7
 10
34.224766
 20
59.317928
 30
0.0
 40
1.25
  0
CIRCLE
  8
0
 62
7
 10
38.227856
 20
58.483269
 30
0.0
 40
1.25
  0
CIRCLE
  8
0
 62
7
 10
40.736313
 20
59.187504
 30
0.0
 40
1.25
  0
CIRCLE
  8
0
 62
7
 10
34.562778
 20
61.604153
 30
0.0
 40
1.25
  0
CIRCLE
  8
0
 62
7
 10
37.379265000000004
 20
61.910641
 30
0.0
 40
1.25
  0
POLYLINE
  8
0
 62
7
 70
0
 66
1
 10
0.0
 20
0.0
 30
0.0
  0
VERTEX
  8
0
 10
0.0
 20
2.0
 30
0.0
  0
VERTEX
  8
0
 10
0.0
 20
0.0
 30
0.0
  0
VERTEX
  8
0
 10
2.0
 20
0.0
 30
0.0
  0
SEQEND
  8
0
  0
CIRCLE
  8
0
 62
7
 10
20.842239
 20
10.020773
 30
0.0
 40
1.15
  0
CIRCLE
  8
0
 62
7
 10
14.500265
 20
13.771867
 30
0.0
 40
0.55
  0
ENDBLK
  0
ENDSEC
  0
SECTION
  2
ENTITIES
  0
INSERT
  2
SKETCH002
  8
0
 62
7
 10
0.0
 20
0.0
 30
0.0
  0
ENDSEC
  0
EOF
