  0
SECTION
  2
HEADER
  9
$ACADVER
  1
AC1009
  9
$INSBASE
 10
0.0
 20
0.0
 30
0.0
  9
$EXTMIN
 10
0.0
 20
0.0
 30
0.0
  9
$EXTMAX
 10
0.0
 20
0.0
 30
0.0
  0
ENDSEC
  0
SECTION
  2
TABLES
  0
TABLE
  2
VPORT
 70
0
  0
ENDTAB
  0
TABLE
  2
LTYPE
 70
1
  0
LTYPE
  2
CONTINUOUS
 70
0
  3
Solid line
 72
65
 73
0
 40
0.0
  0
ENDTAB
  0
TABLE
  2
LAYER
 70
1
  0
LAYER
  2
0
 70
64
 62
7
  6
continuous
  0
ENDTAB
  0
TABLE
  2
STYLE
 70
1
  0
STYLE
  2
STANDARD
 70
0
 40
0
 41
1.0
 50
0.0
 71
0
 42
1
 3
ARIAL.TTF
 4

  0
ENDTAB
  0
TABLE
  2
VIEW
 70
0
  0
ENDTAB
  0
ENDSEC
  0
SECTION
  2
BLOCKS
  0
BLOCK
  8
0
  2
SKETCH001
 70
0
 10
0.0
 20
0.0
 30
0.0
  3
SKETCH001
  0
POLYLINE
  8
0
 62
7
 70
1
 66
1
 10
0.0
 20
0.0
 30
0.0
  0
VERTEX
  8
0
 10
13.328836000000003
 20
62.389558
 30
0.0
  0
VERTEX
  8
0
 10
15.898836000000003
 20
62.389558
 30
0.0
  0
VERTEX
  8
0
 10
15.898836000000003
 20
58.03871600000001
 30
0.0
  0
VERTEX
  8
0
 10
13.328836000000003
 20
58.03871600000001
 30
0.0
  0
SEQEND
  8
0
  0
POLYLINE
  8
0
 62
7
 70
1
 66
1
 10
0.0
 20
0.0
 30
0.0
  0
VERTEX
  8
0
 10
12.847844000000002
 20
39.132442
 30
0.0
  0
VERTEX
  8
0
 10
4.834063
 20
39.132442
 30
0.0
  0
VERTEX
  8
0
 10
4.834063
 20
48.240680999999995
 30
0.0
  0
VERTEX
  8
0
 10
15.064405
 20
48.240680999999995
 30
0.0
  0
VERTEX
  8
0
 10
15.064405
 20
47.197319
 30
0.0
  0
VERTEX
  8
0
 10
21.682845
 20
47.197319
 30
0.0
  0
VERTEX
  8
0
 10
21.682845
 20
42.470687999999996
 30
0.0
  0
VERTEX
  8
0
 10
12.847844000000002
 20
42.470687999999996
 30
0.0
  0
SEQEND
  8
0
  0
POLYLINE
  8
0
 62
7
 70
1
 66
1
 10
0.0
 20
0.0
 30
0.0
  0
VERTEX
  8
0
 10
31.055955
 20
24.814926000000003
 30
0.0
  0
VERTEX
  8
0
 10
23.387567
 20
24.814926000000003
 30
0.0
  0
VERTEX
  8
0
 10
23.387567
 20
22.771694000000004
 30
0.0
  0
VERTEX
  8
0
 10
11.11039
 20
22.771694000000004
 30
0.0
  0
VERTEX
  8
0
 10
11.11039
 20
30.01922
 30
0.0
  0
VERTEX
  8
0
 10
11.11039
 20
34.692844
 30
0.0
  0
VERTEX
  8
0
 10
14.199918
 20
34.692844
 30
0.0
  0
VERTEX
  8
0
 10
14.199918
 20
32.583755
 30
0.0
  0
VERTEX
  8
0
 10
23.586378
 20
32.583755
 30
0.0
  0
VERTEX
  8
0
 10
30.778596
 20
32.583755
 30
0.0
  0
VERTEX
  8
0
 10
30.778596
 20
33.813572
 30
0.0
  0
VERTEX
  8
0
 10
50.986088
 20
33.813572
 30
0.0
  0
VERTEX
  8
0
 10
50.986088
 20
35.37016700000001
 30
0.0
  0
VERTEX
  8
0
 10
60.192291000000004
 20
35.37016700000001
 30
0.0
  0
VERTEX
  8
0
 10
60.192291000000004
 20
36.727920000000005
 30
0.0
  0
VERTEX
  8
0
 10
68.72924
 20
36.727920000000005
 30
0.0
  0
VERTEX
  8
0
 10
68.72924
 20
28.402096
 30
0.0
  0
VERTEX
  8
0
 10
63.985809
 20
23.996847
 30
0.0
  0
VERTEX
  8
0
 10
63.985809
 20
2.347125000000002
 30
0.0
  0
VERTEX
  8
0
 10
48.559784
 20
2.347125000000002
 30
0.0
  0
VERTEX
  8
0
 10
48.559784
 20
9.803728000000001
 30
0.0
  0
VERTEX
  8
0
 10
31.055955
 20
9.803728000000001
 30
0.0
  0
SEQEND
  8
0
  0
POLYLINE
  8
0
 62
7
 70
1
 66
1
 10
0.0
 20
0.0
 30
0.0
  0
VERTEX
  8
0
 10
46.029469
 20
43.875274
 30
0.0
  0
VERTEX
  8
0
 10
48.757969
 20
43.875274
 30
0.0
  0
VERTEX
  8
0
 10
48.757969
 20
39.418330999999995
 30
0.0
  0
VERTEX
  8
0
 10
46.029469
 20
39.418330999999995
 30
0.0
  0
SEQEND
  8
0
  0
POLYLINE
  8
0
 62
7
 70
1
 66
1
 10
0.0
 20
0.0
 30
0.0
  0
VERTEX
  8
0
 10
22.275224
 20
15.666579999999998
 30
0.0
  0
VERTEX
  8
0
 10
22.275224
 20
9.455588999999998
 30
0.0
  0
VERTEX
  8
0
 10
19.369512
 20
9.455588999999998
 30
0.0
  0
VERTEX
  8
0
 10
19.369512
 20
13.172706999999999
 30
0.0
  0
VERTEX
  8
0
 10
8.608197000000002
 20
13.172706999999999
 30
0.0
  0
VERTEX
  8
0
 10
8.608197000000002
 20
15.666579999999998
 30
0.0
  0
SEQEND
  8
0
  0
POLYLINE
  8
0
 62
7
 70
1
 66
1
 10
0.0
 20
0.0
 30
0.0
  0
VERTEX
  8
0
 10
43.263298
 20
64.349457
 30
0.0
  0
VERTEX
  8
0
 10
9.235757
 20
64.349457
 30
0.0
  0
VERTEX
  8
0
 10
9.235757
 20
72.26992800000001
 30
0.0
  0
VERTEX
  8
0
 10
43.373253
 20
72.26992800000001
 30
0.0
  0
VERTEX
  8
0
 10
64.685963
 20
72.26992800000001
 30
0.0
  0
VERTEX
  8
0
 10
64.685963
 20
61.959422
 30
0.0
  0
VERTEX
  8
0
 10
56.487964999999996
 20
61.959422
 30
0.0
  0
VERTEX
  8
0
 10
56.487964999999996
 20
59.752331
 30
0.0
  0
VERTEX
  8
0
 10
51.62553400000001
 20
59.752331
 30
0.0
  0
VERTEX
  8
0
 10
51.62553400000001
 20
62.004212
 30
0.0
  0
VERTEX
  8
0
 10
43.263298
 20
62.004212
 30
0.0
  0
SEQEND
  8
0
  0
POLYLINE
  8
0
 62
7
 70
1
 66
1
 10
0.0
 20
0.0
 30
0.0
  0
VERTEX
  8
0
 10
44.987713
 20
49.861053
 30
0.0
  0
VERTEX
  8
0
 10
48.343624
 20
49.861053
 30
0.0
  0
VERTEX
  8
0
 10
48.343624
 20
53.371582
 30
0.0
  0
VERTEX
  8
0
 10
53.065166
 20
53.371582
 30
0.0
  0
VERTEX
  8
0
 10
55.782337
 20
53.371582
 30
0.0
  0
VERTEX
  8
0
 10
55.782337
 20
47.542023
 30
0.0
  0
VERTEX
  8
0
 10
53.065166
 20
47.542023
 30
0.0
  0
VERTEX
  8
0
 10
53.065166
 20
48.662354
 30
0.0
  0
VERTEX
  8
0
 10
49.586716
 20
48.662354
 30
0.0
  0
VERTEX
  8
0
 10
49.586716
 20
46.702171
 30
0.0
  0
VERTEX
  8
0
 10
44.499359
 20
46.702171
 30
0.0
  0
VERTEX
  8
0
 10
44.499359
 20
47.818111
 30
0.0
  0
VERTEX
  8
0
 10
38.814895
 20
47.818111
 30
0.0
  0
VERTEX
  8
0
 10
36.609528
 20
47.818111
 30
0.0
  0
VERTEX
  8
0
 10
36.609528
 20
45.220081
 30
0.0
  0
VERTEX
  8
0
 10
32.365295
 20
45.220081
 30
0.0
  0
VERTEX
  8
0
 10
32.365295
 20
50.530972
 30
0.0
  0
VERTEX
  8
0
 10
35.691753999999996
 20
50.530972
 30
0.0
  0
VERTEX
  8
0
 10
35.691753999999996
 20
52.949818
 30
0.0
  0
VERTEX
  8
0
 10
38.370265999999994
 20
52.949818
 30
0.0
  0
VERTEX
  8
0
 10
38.370265999999994
 20
55.841736
 30
0.0
  0
VERTEX
  8
0
 10
42.991951
 20
55.841736
 30
0.0
  0
VERTEX
  8
0
 10
42.991951
 20
53.371582
 30
0.0
  0
VERTEX
  8
0
 10
42.991951
 20
52.183074
 30
0.0
  0
VERTEX
  8
0
 10
44.987713
 20
52.183074
 30
0.0
  0
SEQEND
  8
0
  0
POLYLINE
  8
0
 62
7
 70
1
 66
1
 10
0.0
 20
0.0
 30
0.0
  0
VERTEX
  8
0
 10
58.233203
 20
60.258443
 30
0.0
  0
VERTEX
  8
0
 10
62.937906999999996
 20
60.258443
 30
0.0
  0
VERTEX
  8
0
 10
62.937906999999996
 20
59.123138
 30
0.0
  0
VERTEX
  8
0
 10
67.777977
 20
59.123138
 30
0.0
  0
VERTEX
  8
0
 10
67.777977
 20
61.807831
 30
0.0
  0
VERTEX
  8
0
 10
85.631958
 20
61.807831
 30
0.0
  0
VERTEX
  8
0
 10
85.631958
 20
62.605509999999995
 30
0.0
  0
VERTEX
  8
0
 10
88.460167
 20
62.605509999999995
 30
0.0
  0
VERTEX
  8
0
 10
88.460167
 20
54.20842
 30
0.0
  0
VERTEX
  8
0
 10
85.699127
 20
54.20842
 30
0.0
  0
VERTEX
  8
0
 10
85.699127
 20
52.55488999999999
 30
0.0
  0
VERTEX
  8
0
 10
85.030845
 20
52.55488999999999
 30
0.0
  0
VERTEX
  8
0
 10
85.030845
 20
46.92532
 30
0.0
  0
VERTEX
  8
0
 10
74.966385
 20
46.92532
 30
0.0
  0
VERTEX
  8
0
 10
74.966385
 20
51.755581
 30
0.0
  0
VERTEX
  8
0
 10
69.820229
 20
51.755581
 30
0.0
  0
VERTEX
  8
0
 10
69.820229
 20
48.753235000000004
 30
0.0
  0
VERTEX
  8
0
 10
60.583137
 20
48.753235000000004
 30
0.0
  0
VERTEX
  8
0
 10
60.583137
 20
57.468777
 30
0.0
  0
VERTEX
  8
0
 10
58.233203
 20
57.468777
 30
0.0
  0
SEQEND
  8
0
  0
POLYLINE
  8
0
 62
7
 70
1
 66
1
 10
0.0
 20
0.0
 30
0.0
  0
VERTEX
  8
0
 10
0.0
 20
0.0
 30
0.0
  0
VERTEX
  8
0
 10
10.0
 20
0.0
 30
0.0
  0
VERTEX
  8
0
 10
10.0
 20
-10.0
 30
0.0
  0
VERTEX
  8
0
 10
74.0
 20
-10.0
 30
0.0
  0
VERTEX
  8
0
 10
74.0
 20
18.924952
 30
0.0
  0
VERTEX
  8
0
 10
84.905266
 20
29.908756
 30
0.0
  0
VERTEX
  8
0
 10
95.0
 20
29.908756
 30
0.0
  0
VERTEX
  8
0
 10
95.0
 20
75.0
 30
0.0
  0
VERTEX
  8
0
 10
0.0
 20
75.0
 30
0.0
  0
SEQEND
  8
0
  0
CIRCLE
  8
0
 62
7
 10
4.85
 20
70.15
 30
0.0
 40
2.0
  0
CIRCLE
  8
0
 62
7
 10
4.85
 20
5.05
 30
0.0
 40
2.0
  0
ENDBLK
  0
ENDSEC
  0
SECTION
  2
ENTITIES
  0
INSERT
  2
SKETCH001
  8
0
 62
7
 10
0.0
 20
0.0
 30
0.0
  0
ENDSEC
  0
EOF
